<?xml version="1.0" encoding="UTF-8" standalone="no"?><!DOCTYPE svg PUBLIC "-//W3C//DTD SVG 1.1//EN" "http://www.w3.org/Graphics/SVG/1.1/DTD/svg11.dtd"><svg width="100%" height="100%" viewBox="0 0 336 236" version="1.1" xmlns="http://www.w3.org/2000/svg" xmlns:xlink="http://www.w3.org/1999/xlink" xml:space="preserve" xmlns:serif="http://www.serif.com/" style="fill-rule:evenodd;clip-rule:evenodd;stroke-linejoin:round;stroke-miterlimit:2;"><g><path d="M130.554,22.941l-2.091,-0c-10.513,-0.004 -21.026,-0.013 -31.532,-0.034l-0.249,-0l-0,-0.499l0.249,-0.008c10.506,-0.023 21.019,-0.031 31.532,-0.034c5.249,-0 10.504,0.002 15.76,0.005c5.257,0 10.507,0.006 15.762,0.014c4.157,0.004 8.318,0.007 12.477,0.007l3.292,-0c3.249,-0.002 6.496,-0.006 9.744,-0.011l12.199,-0.009c3.196,-0 6.389,0.001 9.58,0.004c5.256,0.005 10.515,0.01 15.772,0.024l0.249,0.001l0,0.498l-0.249,0.008c-5.258,0.013 -10.516,0.019 -15.772,0.023c-3.428,0.003 -6.861,0.004 -10.294,0.004l-10.483,-0.008c-3.582,-0.005 -7.163,-0.01 -10.746,-0.012l-3.435,-0.001c-4.111,-0 -8.225,0.004 -12.334,0.009c-5.256,0.007 -10.505,0.013 -15.762,0.014l-0.066,0c-4.536,0.002 -9.072,0.005 -13.603,0.005Z" style="fill:#f3ddbd;fill-rule:nonzero;"/><path d="M127.322,19.137c-10.64,-0.003 -21.28,-0.012 -31.914,-0.034l-0.25,-0.001l-0,-0.499l0.25,-0.006c10.634,-0.023 21.274,-0.033 31.914,-0.036l15.948,0.005c5.322,0.002 10.635,0.006 15.956,0.015c4.283,0.004 8.568,0.007 12.852,0.007l3.106,-0c3.48,-0.001 6.955,-0.006 10.43,-0.011l11.243,-0.009c3.412,-0 6.822,0.002 10.229,0.004c5.32,0.005 10.641,0.01 15.963,0.025l0.249,0.001l0,0.498l-0.249,0.007c-5.323,0.013 -10.643,0.019 -15.963,0.024c-3.175,0.002 -6.352,0.004 -9.529,0.004l-13.175,-0.011c-3.066,-0.004 -6.13,-0.008 -9.198,-0.01l-2.261,0c-4.566,0 -9.132,0.004 -13.697,0.009l-1.461,0.002c-4.833,0.005 -9.66,0.01 -14.495,0.012c-5.317,0.003 -10.635,0.004 -15.948,0.004Z" style="fill:#f3ddbd;fill-rule:nonzero;"/><path d="M0,15.639l-0.249,-0.001l0,-0.499l0.249,-0.008l0,0.508Z" style="fill:#fbf4e6;fill-rule:nonzero;"/><path d="M83.938,15.673c-27.987,-0.004 -55.971,-0.011 -83.938,-0.034l0,-0.508c27.967,-0.022 55.951,-0.031 83.938,-0.033l41.953,0.004c13.995,0.002 27.969,0.007 41.959,0.014c11.305,0.005 22.609,0.008 33.913,0.008l8.068,-0.001c8.603,-0.001 17.197,-0.005 25.795,-0.01l30.933,-0.009c9.068,0 18.129,0.001 27.183,0.004c13.997,0.003 27.988,0.011 41.981,0.023l0.25,0.001l-0,0.499l-0.25,0.008c-12.567,0.012 -25.132,0.017 -37.702,0.022l-30.657,0.005l-29.669,-0.008c-9.288,-0.005 -18.572,-0.01 -27.864,-0.013l-8.891,-0.001c-11.03,-0 -22.058,0.004 -33.09,0.011c-13.99,0.007 -27.964,0.011 -41.959,0.013l-41.953,0.005Z" style="fill:#f3ddbd;fill-rule:nonzero;"/><path d="M0,11.754l-0.249,-0.001l0,-0.499l0.249,-0.007l0,0.507Z" style="fill:#fbf4e6;fill-rule:nonzero;"/><path d="M88.342,11.788l-4.404,-0c-27.987,-0.002 -55.971,-0.012 -83.938,-0.034l0,-0.507c27.967,-0.022 55.951,-0.03 83.938,-0.034c12.187,-0 24.393,0.003 36.597,0.005l5.356,0.001c13.995,0.001 27.969,0.006 41.959,0.013c11.976,0.005 23.953,0.009 35.928,0.009l6.053,-0.001c8.759,-0.002 17.51,-0.006 26.263,-0.011l29.666,-0.009c9.334,0 18.663,0.002 27.982,0.005c13.997,0.003 27.988,0.009 41.981,0.022l0.25,0.001l-0,0.499l-0.25,0.007c-13.993,0.013 -27.984,0.02 -41.981,0.024c-8.345,0.003 -16.701,0.004 -25.058,0.004l-33.982,-0.01c-8.289,-0.005 -16.577,-0.008 -24.871,-0.01l-8.105,-0.001c-11.291,0 -22.583,0.004 -33.876,0.009l-4.202,0.002c-12.586,0.005 -25.164,0.011 -37.757,0.012c-12.519,0.003 -25.042,0.004 -37.549,0.004Z" style="fill:#f3ddbd;fill-rule:nonzero;"/><path d="M0,8.082l-0.249,-0.001l0,-0.499l0.249,-0.006l0,0.506Z" style="fill:#fbf4e6;fill-rule:nonzero;"/><path d="M89.54,8.116l-5.602,-0c-27.987,-0.003 -55.971,-0.012 -83.938,-0.034l0,-0.506c27.967,-0.023 55.951,-0.031 83.938,-0.035c13.97,0 27.964,0.002 41.953,0.005c13.995,0.001 27.969,0.007 41.959,0.014c10.928,0.005 21.858,0.008 32.785,0.008l9.196,-0.001c8.186,-0.001 16.365,-0.005 24.547,-0.009l32.543,-0.011c8.947,-0 17.888,0.002 26.821,0.006c13.997,0.004 27.988,0.01 41.981,0.023l0.25,0l-0,0.499l-0.25,0.007c-13.993,0.015 -27.984,0.02 -41.981,0.024c-8.553,0.003 -17.115,0.004 -25.682,0.004l-31.62,-0.009c-8.869,-0.005 -17.735,-0.009 -26.609,-0.011l-8,-0.001c-11.326,0 -22.653,0.004 -33.981,0.01l-5.747,0.002c-12.071,0.005 -24.134,0.01 -36.212,0.011l-36.351,0.004Z" style="fill:#f3ddbd;fill-rule:nonzero;"/><path d="M127.322,39.224c-7.063,-0.003 -14.125,-0.008 -21.185,-0.017l0,-0.543c7.06,-0.009 14.122,-0.013 21.185,-0.016c5.313,-0 10.631,0.002 15.948,0.006c5.322,0 10.635,0.006 15.956,0.014c4.087,0.004 8.175,0.008 12.262,0.008l3.696,-0.001c3.451,-0.002 6.896,-0.007 10.343,-0.012l7.647,-0.006l-1.216,0.556l-7.657,-0.007c-3.038,-0.004 -6.075,-0.008 -9.117,-0.01l-2.079,-0c-4.626,-0 -9.252,0.004 -13.879,0.01c-5.345,0.006 -10.646,0.012 -15.956,0.013c-5.317,0.003 -10.635,0.005 -15.948,0.005Zm84.091,-0.015l0.478,-0.218c0.202,-0.093 0.396,-0.202 0.581,-0.327c3.525,0.004 7.051,0.01 10.577,0.019l0.249,-0l0,0.499l-0.249,0.007c-3.879,0.01 -7.758,0.016 -11.636,0.02Z" style="fill:#f3ddbd;fill-rule:nonzero;"/><path d="M0,35.725l-0.249,-0.001l0,-0.499l0.249,-0.007l0,0.507Z" style="fill:#fbf4e6;fill-rule:nonzero;"/><path d="M99.331,35.758c-1.768,-0.236 -3.488,-0.402 -5.18,-0.528l0.01,0.007c-0.076,-0.018 -0.152,-0.035 -0.228,-0.052l31.958,0.004c13.995,0.001 27.969,0.006 41.959,0.013c10.951,0.005 21.904,0.009 32.854,0.009l-1.046,0.479l-0.092,0.042c-10.572,0.001 -21.144,0.004 -31.716,0.009c-14.02,0.006 -27.979,0.013 -41.959,0.013c-8.854,0.002 -17.709,0.003 -26.56,0.004Zm-25.46,-0c-7.782,-0.002 -15.561,-0.003 -23.342,-0.006c-0.213,-0.052 -0.431,-0.102 -0.653,-0.152c-0.649,-0.151 -1.324,-0.287 -2.02,-0.409c9.584,-0.003 19.167,-0.005 28.753,-0.006c-0.71,0.123 -1.399,0.262 -2.065,0.415c-0.229,0.052 -0.453,0.104 -0.673,0.158Zm195.494,-0.006l-13.505,-0.004c-0.319,-0.191 -0.642,-0.376 -0.969,-0.553l13.734,-0.004c8.378,-0 16.752,0.001 25.117,0.004c13.997,0.004 27.988,0.01 41.981,0.023l0.25,0l-0,0.499l-0.25,0.008c-13.993,0.013 -27.984,0.019 -41.981,0.024l-24.377,0.003Zm-244.137,-0.011c-8.411,-0.004 -16.82,-0.01 -25.228,-0.016l-0,-0.507c10.144,-0.009 20.289,-0.015 30.438,-0.02c-0.059,0.013 -0.117,0.027 -0.175,0.04l0.011,-0.008c-1.647,0.123 -3.323,0.284 -5.046,0.511Zm204.377,-0.001c-5.123,-0.003 -10.247,-0.005 -15.372,-0.007c0.019,-0.175 0.025,-0.351 0.021,-0.525l16.285,-0.005c-0.316,0.173 -0.628,0.352 -0.934,0.537Z" style="fill:#f3ddbd;fill-rule:nonzero;"/><path d="M0,31.84l-0.249,-0l0,-0.499l0.249,-0.008l0,0.507Z" style="fill:#fbf4e6;fill-rule:nonzero;"/><path d="M83.938,31.875c-27.987,-0.004 -55.971,-0.013 -83.938,-0.035l0,-0.507c27.967,-0.022 55.951,-0.029 83.938,-0.033l41.953,0.004c13.995,0.002 27.969,0.007 41.959,0.014c11.292,0.005 22.586,0.009 33.876,0.009l7.785,-0.001c-0.341,0.06 -0.672,0.164 -0.986,0.307l-0.47,0.215l-6.329,0c-11.291,0 -22.583,0.003 -33.876,0.009l-0.506,-0c-13.821,0.006 -27.627,0.012 -41.453,0.014l-41.953,0.004Zm183.248,-0.006l-21.84,-0.007c0.001,-0.164 0.002,-0.351 0.004,-0.549l22.908,-0.007c8.501,-0 16.996,0.002 25.484,0.004c13.997,0.004 27.988,0.011 41.981,0.023l0.25,0.001l-0,0.499l-0.25,0.007c-13.993,0.014 -27.984,0.02 -41.981,0.025c-8.844,0.002 -17.698,0.004 -26.556,0.004Zm-26.178,-0.008l-4.273,-0.001c-8.144,-0.005 -16.285,-0.009 -24.432,-0.011c-0.213,-0.129 -0.441,-0.24 -0.683,-0.33c-0.234,-0.087 -0.472,-0.151 -0.709,-0.193c8.259,-0.002 16.512,-0.006 24.768,-0.01l5.334,-0.002c-0.002,0.199 -0.003,0.385 -0.005,0.547Z" style="fill:#f3ddbd;fill-rule:nonzero;"/><path d="M0,42.712l-0.249,-0.001l0,-0.499l0.249,-0.008l0,0.508Z" style="fill:#fbf4e6;fill-rule:nonzero;"/><path d="M283.738,42.738l0,-0.559c3.336,0.001 6.67,0.001 10.004,0.003c13.997,0.003 27.988,0.01 41.981,0.022l0.25,-0l-0,0.5l-0.25,0.008c-13.993,0.013 -27.984,0.019 -41.981,0.024c-3.333,0.001 -6.668,0.002 -10.004,0.002Zm-262.972,-0.012c-6.924,-0.004 -13.845,-0.009 -20.766,-0.014l-0,-0.508c6.442,-0.005 12.883,-0.009 19.326,-0.012c0.606,0.104 1.075,0.288 1.44,0.534Z" style="fill:#f3ddbd;fill-rule:nonzero;"/><path d="M0,62.417l-0.249,0l0,-0.499l0.249,-0.007l0,0.506Z" style="fill:#fbf4e6;fill-rule:nonzero;"/><path d="M47.591,62.444c0.094,-0.057 0.186,-0.115 0.274,-0.175c-0.088,0.06 -0.18,0.118 -0.274,0.175Zm236.147,0l0,-0.56c3.336,0.001 6.671,0.002 10.004,0.003c13.997,0.005 27.988,0.009 41.981,0.024l0.25,0.001l-0,0.499l-0.25,0.006c-7.917,0.008 -15.833,0.013 -23.75,0.017c-1.24,-0.315 -2.537,-0.482 -3.873,-0.482c-1.343,-0 -2.645,0.168 -3.888,0.486c-3.49,0.001 -6.979,0.002 -10.47,0.003c-3.333,0.001 -6.668,0.002 -10.004,0.003Zm-252.637,-0.007l-0.002,-0c-0.146,-0.094 -0.282,-0.193 -0.41,-0.295c0.128,0.102 0.266,0.201 0.412,0.295Zm-4.041,-0.002c-9.021,-0.004 -18.043,-0.01 -27.06,-0.018l0,-0.506c8.857,-0.007 17.718,-0.013 26.579,-0.017c0.157,0.186 0.318,0.366 0.481,0.541Z" style="fill:#f3ddbd;fill-rule:nonzero;"/><path d="M0,68.385l-0.249,-0.001l0,-0.499l0.249,-0.006l0,0.506Z" style="fill:#fbf4e6;fill-rule:nonzero;"/><path d="M50.638,68.413c-16.883,-0.006 -33.765,-0.014 -50.638,-0.028l0,-0.506c16.873,-0.013 33.755,-0.022 50.638,-0.028l0,0.562Zm233.1,-0.002l0,-0.558c3.336,-0 6.671,0.001 10.004,0.003l2.105,0c-0.143,0.181 -0.284,0.365 -0.42,0.552l-1.685,0c-3.333,0.002 -6.668,0.003 -10.004,0.003Zm37.086,-0.015c-0.134,-0.179 -0.271,-0.355 -0.411,-0.529c5.103,0.003 10.206,0.007 15.31,0.012l0.25,0.001l-0,0.499l-0.25,0.006c-4.967,0.004 -9.933,0.008 -14.899,0.011Z" style="fill:#f3ddbd;fill-rule:nonzero;"/><path d="M0,64.713l-0.249,-0l0,-0.499l0.249,-0.008l0,0.507Z" style="fill:#fbf4e6;fill-rule:nonzero;"/><path d="M50.638,64.74l-1.804,0c0.165,-0.097 0.323,-0.196 0.476,-0.298c0.129,-0.085 0.257,-0.173 0.384,-0.262c0.315,-0 0.63,-0 0.944,-0.001l0,0.561Zm233.1,-0.001l0,-0.558c3.336,-0 6.671,0.001 10.004,0.002c2.098,0.001 4.195,0.001 6.292,0.002c-0.29,0.174 -0.573,0.358 -0.85,0.55c-1.814,0.001 -3.628,0.001 -5.442,0.002c-3.333,0.001 -6.668,0.002 -10.004,0.002Zm-253.89,-0.007c-9.951,-0.004 -19.902,-0.011 -29.848,-0.019l0,-0.507c9.685,-0.008 19.372,-0.014 29.061,-0.018c0.024,0.017 0.049,0.035 0.074,0.052c0.222,0.173 0.459,0.337 0.713,0.492Zm287.169,-0.005c-0.271,-0.187 -0.549,-0.365 -0.831,-0.535c6.513,0.004 13.024,0.008 19.537,0.014l0.25,0.001l-0,0.499l-0.25,0.007c-6.236,0.006 -12.47,0.01 -18.706,0.014Z" style="fill:#f3ddbd;fill-rule:nonzero;"/><path d="M0,84.1l-0.249,0l0,-0.5l0.249,-0.006l0,0.506Z" style="fill:#fbf4e6;fill-rule:nonzero;"/><path d="M50.638,84.127c-16.883,-0.005 -33.765,-0.013 -50.638,-0.027l0,-0.506c16.873,-0.013 33.755,-0.021 50.638,-0.027l0,0.56Zm233.1,-0l0,-0.559c2.901,0.001 5.802,0.002 8.701,0.003l-0,0.555c-2.899,0 -5.799,0.001 -8.701,0.001Zm40.314,-0.017l0,-0.526c3.89,0.003 7.781,0.006 11.671,0.01l0.25,-0l-0,0.499l-0.25,0.007c-3.89,0.004 -7.781,0.007 -11.671,0.01Z" style="fill:#f3ddbd;fill-rule:nonzero;"/><path d="M0,104.187l-0.249,-0l0,-0.499l0.249,-0.008l0,0.507Z" style="fill:#fbf4e6;fill-rule:nonzero;"/><path d="M283.738,104.214l0,-0.561c2.926,0.001 5.85,0.002 8.774,0.003c0.018,0.186 0.039,0.371 0.064,0.555c-2.945,0.001 -5.891,0.002 -8.838,0.003Zm-233.1,-0.001c-16.883,-0.005 -33.765,-0.013 -50.638,-0.026l-0,-0.507c16.873,-0.013 33.755,-0.022 50.638,-0.027l0,0.56Zm273.213,-0.016c0.029,-0.175 0.054,-0.35 0.077,-0.527c3.931,0.003 7.863,0.006 11.795,0.01l0.25,0.001l-0,0.499l-0.25,0.007c-3.957,0.004 -7.915,0.007 -11.872,0.01Z" style="fill:#f3ddbd;fill-rule:nonzero;"/><path d="M0,118.73l-0.249,0l0,-0.499l0.249,-0.009l0,0.508Z" style="fill:#fbf4e6;fill-rule:nonzero;"/><path d="M50.638,118.757c-16.883,-0.005 -33.765,-0.014 -50.638,-0.027l0,-0.508c16.873,-0.014 33.755,-0.022 50.638,-0.027l0,0.562Zm233.1,-0.001l0,-0.559l10.004,0.002c13.997,0.005 27.988,0.009 41.981,0.023l0.25,0.001l-0,0.499l-0.25,0.008c-13.993,0.013 -27.984,0.019 -41.981,0.024c-3.333,-0 -6.668,0.001 -10.004,0.002Z" style="fill:#f3ddbd;fill-rule:nonzero;"/><path d="M0,115.058l-0.249,-0.001l0,-0.499l0.249,-0.009l0,0.509Z" style="fill:#fbf4e6;fill-rule:nonzero;"/><path d="M50.638,115.085c-16.883,-0.005 -33.765,-0.014 -50.638,-0.027l0,-0.509c16.873,-0.013 33.755,-0.021 50.638,-0.026l0,0.562Zm233.1,-0.001l0,-0.56c3.336,0.001 6.671,0.002 10.004,0.003c1.594,0 3.188,0.001 4.782,0.001c0.247,0.192 0.499,0.375 0.758,0.552c-1.846,0 -3.694,0.001 -5.54,0.001c-3.333,0.001 -6.668,0.002 -10.004,0.003Zm33.204,-0.012c0.252,-0.172 0.499,-0.35 0.741,-0.535c6.013,0.003 12.026,0.007 18.04,0.012l0.25,0l-0,0.499l-0.25,0.01c-6.26,0.006 -12.521,0.01 -18.781,0.014Z" style="fill:#f3ddbd;fill-rule:nonzero;"/><path d="M0,134.762l-0.249,0l0,-0.5l0.249,-0.007l0,0.507Z" style="fill:#fbf4e6;fill-rule:nonzero;"/><path d="M283.738,134.789l0,-0.558l10.004,0.001c13.997,0.004 27.988,0.011 41.981,0.023l0.25,-0l-0,0.5l-0.25,0.007c-13.993,0.014 -27.984,0.022 -41.981,0.025c-3.333,0 -6.668,0.001 -10.004,0.002Zm-263.445,-0.013c-6.764,-0.004 -13.53,-0.008 -20.293,-0.014l-0,-0.507c6.763,-0.005 13.529,-0.01 20.293,-0.014l-0,0.535Z" style="fill:#f3ddbd;fill-rule:nonzero;"/><path d="M0,131.093l-0.249,0l0,-0.5l0.249,-0.008l0,0.508Z" style="fill:#fbf4e6;fill-rule:nonzero;"/><path d="M283.738,131.117l0,-0.559c3.336,0.001 6.671,0.003 10.004,0.003c13.997,0.004 27.988,0.011 41.981,0.024l0.25,-0l-0,0.5l-0.25,0.008c-10.773,0.011 -21.544,0.015 -32.319,0.019l-19.666,0.005Zm-263.445,-0.011c-6.764,-0.004 -13.53,-0.009 -20.293,-0.013l-0,-0.508c6.763,-0.005 13.529,-0.009 20.293,-0.014l-0,0.535Z" style="fill:#f3ddbd;fill-rule:nonzero;"/><path d="M0,164.147l-0.249,0l0,-0.5l0.249,-0.007l0,0.507Z" style="fill:#fbf4e6;fill-rule:nonzero;"/><path d="M20.293,164.161c-6.764,-0.004 -13.53,-0.008 -20.293,-0.014l0,-0.507c6.763,-0.005 13.529,-0.009 20.293,-0.013l-0,0.534Zm301.061,-0.002l0.006,-0.53c4.788,0.003 9.575,0.007 14.363,0.011l0.25,-0l-0,0.5l-0.25,0.007c-4.79,0.005 -9.58,0.008 -14.369,0.012Z" style="fill:#f3ddbd;fill-rule:nonzero;"/><path d="M0,156.592l-0.249,0l0,-0.5l0.249,-0.009l0,0.509Z" style="fill:#fbf4e6;fill-rule:nonzero;"/><path d="M20.293,156.606c-6.764,-0.004 -13.53,-0.008 -20.293,-0.014l0,-0.509c6.763,-0.004 13.529,-0.008 20.293,-0.012l-0,0.535Zm301.153,-0.003l0.007,-0.529c4.757,0.002 9.513,0.006 14.27,0.009l0.25,0l-0,0.5l-0.25,0.009c-4.759,0.005 -9.518,0.008 -14.277,0.011Z" style="fill:#f3ddbd;fill-rule:nonzero;"/><path d="M127.322,187.733c-10.64,-0.004 -21.28,-0.014 -31.914,-0.035l-0.25,-0.001l-0,-0.498l0.25,-0.008c10.634,-0.022 21.274,-0.03 31.914,-0.032l13.79,0.004l-0.002,0.566l-13.788,0.004Zm71.483,-0.006l0.002,-0.563c2.761,0 5.521,0.001 8.279,0.003c0.849,0.001 1.698,0.001 2.546,0.002l-0.006,0.551c-0.847,0.001 -1.694,0.001 -2.54,0.002c-2.758,0.002 -5.519,0.004 -8.281,0.005Z" style="fill:#f3ddbd;fill-rule:nonzero;"/><path d="M198.801,189.316l0.002,-0.562c3.605,0.002 7.206,0.007 10.81,0.012l-0.005,0.352l3.453,0.042l0,0.003l10.889,0.133l-2.054,-0.001c-3.989,-0 -7.979,0.003 -11.971,0.01l-0.093,0c-3.678,0.004 -7.354,0.008 -11.031,0.011Z" style="fill:#f3ddbd;fill-rule:nonzero;"/><path d="M0,180.351l-0.249,0l0,-0.5l0.249,-0.008l0,0.508Z" style="fill:#fbf4e6;fill-rule:nonzero;"/><path d="M20.293,180.364c-6.764,-0.003 -13.53,-0.008 -20.293,-0.013l0,-0.508c6.763,-0.005 13.529,-0.01 20.293,-0.014l-0,0.535Zm302.396,-0.003l0.252,-0.528c4.26,0.003 8.521,0.007 12.782,0.01l0.25,-0l-0,0.5l-0.25,0.008c-4.345,0.004 -8.689,0.007 -13.034,0.01Z" style="fill:#f3ddbd;fill-rule:nonzero;"/><path d="M128.463,206.08c-10.513,-0.003 -21.026,-0.011 -31.532,-0.035l-0.249,-0.001l-0,-0.498l0.249,-0.008c10.506,-0.021 21.019,-0.03 31.532,-0.033c4.202,-0 8.408,-0 12.615,0.002c0.015,0.192 0.038,0.382 0.071,0.569l-12.686,0.004Zm70.227,-0.008c0.028,-0.185 0.047,-0.372 0.057,-0.562l0.218,0c2.772,0 5.543,0.001 8.312,0.004c5.256,0.003 10.514,0.012 15.772,0.024l0.249,0.001l0,0.498l-0.249,0.008c-4.044,0.011 -8.089,0.016 -12.132,0.02l-12.227,0.007Z" style="fill:#f3ddbd;fill-rule:nonzero;"/><path d="M249.375,203.859c-2.512,0 -5.024,-0.001 -7.536,-0.003l-6.972,-0.008c-2.993,-0.004 -5.986,-0.008 -8.98,-0.009l-3.91,-0.001c-4.016,0 -8.033,0.003 -12.052,0.011l-2.652,0.002c-2.838,0.003 -5.675,0.006 -8.513,0.008l0.002,-0.561c3.722,0.002 7.441,0.006 11.163,0.012c4.771,0.005 9.541,0.008 14.308,0.008l22.713,-0.022c3.617,0 7.232,0.002 10.844,0.005l2.44,0.003c1.179,0.001 2.357,0.003 3.535,0.004l1.134,0.54c-2.369,0.003 -4.739,0.006 -7.109,0.008l-8.415,0.003Z" style="fill:#f3ddbd;fill-rule:nonzero;"/><path d="M0,198.775l-0.249,0l0,-0.5l0.249,-0.004l0,0.504Z" style="fill:#fbf4e6;fill-rule:nonzero;"/><path d="M83.938,198.811l-1.2,0l-0,-0.575l1.2,0l57.142,0.013l-0.002,0.555c-5.061,0.001 -10.123,0.002 -15.187,0.003l-41.953,0.004Zm170.372,-0.011l-48.053,-0.016l-7.482,0l0.001,-0.521l2.406,0l8.649,-0.001c7.455,-0.001 14.904,-0.005 22.355,-0.009l20.963,-0.007l1.161,0.554Zm59.592,-0.007l0.257,-0.538c7.188,0.003 14.376,0.008 21.564,0.016l0.25,-0l-0,0.5l-0.25,0.004c-7.274,0.009 -14.547,0.014 -21.821,0.018Zm-293.609,-0.003c-6.764,-0.004 -13.53,-0.009 -20.293,-0.015l-0,-0.504c6.763,-0.006 13.529,-0.01 20.293,-0.014l-0,0.533Z" style="fill:#f3ddbd;fill-rule:nonzero;"/><path d="M0,194.895l-0.249,0l0,-0.5l0.249,-0.008l0,0.508Z" style="fill:#fbf4e6;fill-rule:nonzero;"/><path d="M95.657,194.926l-11.719,-0.001l-1.2,-0l-0,-0.573l1.2,0l41.953,0.005c5.068,0.001 10.135,0.001 15.2,0.003l-0.001,0.559c-5.065,0.002 -10.131,0.003 -15.199,0.003c-10.079,0.002 -20.161,0.004 -30.234,0.004Zm150.503,-0.011l-9.354,-0.003c-8.992,-0.005 -17.979,-0.01 -26.975,-0.011l-7.202,-0.001l-3.844,0l0.002,-0.522l11.044,-0c11.73,-0.002 23.446,-0.008 35.173,-0.015l1.156,0.552Zm69.594,-0.007l0.256,-0.537c6.572,0.004 13.142,0.009 19.713,0.016l0.25,0l-0,0.5l-0.25,0.008c-6.657,0.006 -13.312,0.01 -19.969,0.013Zm-295.461,0c-6.764,-0.004 -13.53,-0.008 -20.293,-0.013l-0,-0.508c6.763,-0.005 13.529,-0.01 20.293,-0.014l-0,0.535Z" style="fill:#f3ddbd;fill-rule:nonzero;"/><path d="M128.463,222.113c-10.513,-0.004 -21.026,-0.013 -31.532,-0.034l-0.249,-0.001l-0,-0.499l0.249,-0.006c10.506,-0.025 21.019,-0.031 31.532,-0.035l15.76,0.004c5.257,0.002 10.507,0.006 15.762,0.015c4.17,0.005 8.344,0.009 12.516,0.009l3.253,-0.001c3.043,-0.001 6.084,-0.006 9.126,-0.011l11.899,-0.01c3.501,-0 7.001,0.001 10.498,0.004c5.256,0.005 10.515,0.011 15.772,0.025l0.249,0.001l0,0.498l-0.249,0.007c-5.257,0.014 -10.516,0.019 -15.772,0.023c-2.888,0.003 -5.78,0.005 -8.672,0.005l-24.041,-0.022c-3.689,0 -7.38,0.003 -11.068,0.006l-3.511,0.003c-5.256,0.008 -10.505,0.014 -15.762,0.014c-5.256,0.004 -10.511,0.005 -15.76,0.005Z" style="fill:#f3ddbd;fill-rule:nonzero;"/><path d="M178.026,219.899c-10.64,-0.004 -21.279,-0.013 -31.913,-0.033l-0.25,-0.001l0,-0.498l0.25,-0.008c10.634,-0.023 21.273,-0.032 31.913,-0.034l4.272,-0.001c3.89,-0 7.783,0.002 11.678,0.005c5.32,0.003 10.631,0.007 15.949,0.013c4.232,0.006 8.463,0.009 12.691,0.009l3.271,-0.001c3.541,-0.002 7.081,-0.007 10.622,-0.011l10.845,-0.009l10.436,0.004c5.321,0.004 10.642,0.011 15.961,0.025l0.249,0.001l-0,0.498l-0.249,0.008c-5.319,0.011 -10.64,0.019 -15.961,0.023c-3.079,0.002 -6.162,0.004 -9.246,0.004l-24.631,-0.021c-4.661,-0 -9.323,0.002 -13.988,0.009c-5.318,0.008 -10.629,0.014 -15.949,0.014c-5.321,0.003 -10.637,0.004 -15.95,0.004Z" style="fill:#f3ddbd;fill-rule:nonzero;"/><path d="M0,216.895l-0.249,0l0,-0.5l0.249,-0.007l0,0.507Z" style="fill:#fbf4e6;fill-rule:nonzero;"/><path d="M83.938,216.929c-27.987,-0.003 -55.971,-0.012 -83.938,-0.034l0,-0.507c27.967,-0.021 55.951,-0.031 83.938,-0.035c13.97,0 27.964,0.003 41.953,0.006c13.995,-0 27.969,0.006 41.959,0.012c10.424,0.006 20.848,0.009 31.271,0.009l10.71,-0.001c11.657,-0.002 23.302,-0.008 34.957,-0.013l24.386,-0.006c7.33,0 14.656,0.001 21.976,0.004l1.166,0.556l-23.72,0.002l-68.199,-0.02c-10.848,0 -21.697,0.004 -32.547,0.009c-13.99,0.006 -27.964,0.011 -41.959,0.013l-41.953,0.005Zm221.326,-0.014l0.26,-0.546c10.067,0.004 20.133,0.009 30.199,0.019l0.25,0l-0,0.5l-0.25,0.007c-10.153,0.009 -20.305,0.015 -30.459,0.02Z" style="fill:#f3ddbd;fill-rule:nonzero;"/><path d="M0,213.224l-0.249,0l0,-0.5l0.249,-0.008l0,0.508Z" style="fill:#fbf4e6;fill-rule:nonzero;"/><path d="M83.938,213.256c-27.987,-0.005 -55.971,-0.011 -83.938,-0.032l0,-0.508c27.967,-0.022 55.951,-0.032 83.938,-0.035c13.97,-0 27.964,0.003 41.953,0.007c13.995,-0 27.969,0.006 41.959,0.014l8.373,0.003c7.761,0.001 15.522,0.004 23.282,0.004l10.326,-0.002c8.592,-0.001 17.177,-0.004 25.765,-0.009l16.19,-0.007c5.226,-0.003 10.45,-0.004 15.675,-0.004c5.329,0 10.657,0.001 15.983,0.003l1.17,0.558l-15.199,0.002l-32.975,-0.009c-8.869,-0.004 -17.735,-0.009 -26.609,-0.011l-4.361,-0c-12.539,-0 -25.079,0.004 -37.62,0.01l-9.359,0.003c-10.866,0.004 -21.727,0.008 -32.6,0.008c-13.989,0.005 -27.983,0.005 -41.953,0.005Zm223.077,-0.014l0.259,-0.544c9.484,0.004 18.966,0.009 28.449,0.018l0.25,-0l-0,0.5l-0.25,0.008c-9.569,0.008 -19.138,0.014 -28.708,0.018Z" style="fill:#f3ddbd;fill-rule:nonzero;"/><path d="M283.738,141.061l-2.363,-0.029l0,-6.243l2.363,0l0,6.272Zm0,-6.83l-2.363,0l0,-3.114l2.363,-0l0,3.114Zm0,-3.673l-2.363,-0l0,-11.802l2.363,-0l0,11.802Zm0,-12.361l-2.363,-0l0,-3.113l2.363,-0l0,3.113Zm0,-3.673l-2.363,0l0,-10.31l2.363,0l0,10.31Zm0,-10.871l-2.363,-0l0,-19.525c0.788,0 1.576,0 2.363,-0.001l0,19.526Zm0,-20.085l-2.363,-0l0,-15.156c0.788,0 1.575,0 2.363,-0.001l0,15.157Zm0,-15.715c-0.788,-0.001 -1.575,-0.001 -2.363,-0.001l0,-3.112c0.788,0 1.575,-0.001 2.363,-0.001l0,3.114Zm0,-3.672c-0.787,-0.001 -1.575,-0.001 -2.363,-0.001l0,-1.736l2.363,0l0,1.737Zm0,-2.297l-2.363,0l0,-19.145c0.788,-0 1.576,-0 2.363,-0.001l0,19.146Zm0,-19.705c-0.787,0 -1.576,0 -2.363,-0.001l0,-1.174l-19.302,-0l21.665,-0l0,1.175Z" style="fill:#ebd3b5;fill-rule:nonzero;"/><path d="M281.375,42.739l0,-0.561c0.787,0.001 1.576,0.001 2.363,0.001l0,0.559c-0.787,0.001 -1.575,0.001 -2.363,0.001Z" style="fill:#e7c8a1;fill-rule:nonzero;"/><rect x="281.375" y="61.884" width="2.363" height="0.56" style="fill:#e7c8a1;fill-rule:nonzero;"/><path d="M281.375,68.412l0,-0.56c0.788,0 1.575,0 2.363,0.001l0,0.558c-0.788,0.001 -1.575,0.001 -2.363,0.001Z" style="fill:#e7c8a1;fill-rule:nonzero;"/><path d="M281.375,64.74l0,-0.56c0.788,-0 1.576,-0 2.363,0.001l0,0.558c-0.788,-0 -1.575,0.001 -2.363,0.001Z" style="fill:#e7c8a1;fill-rule:nonzero;"/><path d="M281.375,84.128l0,-0.56l2.363,-0l0,0.559c-0.787,0.001 -1.575,0.001 -2.363,0.001Z" style="fill:#e7c8a1;fill-rule:nonzero;"/><rect x="281.375" y="103.653" width="2.363" height="0.561" style="fill:#e7c8a1;fill-rule:nonzero;"/><rect x="281.375" y="118.197" width="2.363" height="0.559" style="fill:#e7c8a1;fill-rule:nonzero;"/><rect x="281.375" y="114.524" width="2.363" height="0.56" style="fill:#e7c8a1;fill-rule:nonzero;"/><rect x="281.375" y="134.231" width="2.363" height="0.558" style="fill:#e7c8a1;fill-rule:nonzero;"/><rect x="281.375" y="130.558" width="2.363" height="0.559" style="fill:#e7c8a1;fill-rule:nonzero;"/><rect x="50.638" y="41.004" width="230.737" height="144.907" style="fill:#fff;fill-rule:nonzero;"/><path d="M321.031,190.484l-3.149,-0.039l3.233,-6.781l-0.084,6.82Zm-86.381,-1.057l-10.7,-0.131l0.233,0l10.461,0.128l0.006,0.003Z" style="fill:#ebd3b5;fill-rule:nonzero;"/><path d="M224.183,189.296l-0.233,0l-10.889,-0.133l0,-0.003l11.122,0.136Z" style="fill:#e7c8a1;fill-rule:nonzero;"/><path d="M321.204,176.389l-3.429,-1.635l0.131,-10.593c1.149,-0.001 2.298,-0.002 3.448,-0.002l-0.15,12.23Zm0.156,-12.76c-1.149,-0 -2.298,-0.001 -3.448,-0.002l0.087,-7.022c1.149,-0.001 2.299,-0.001 3.447,-0.002l-0.086,7.026Zm0.093,-7.555c-1.149,-0.001 -2.299,-0.002 -3.447,-0.003l0.179,-14.587l3.446,0.042l-0.178,14.548Z" style="fill:#ebd3b5;fill-rule:nonzero;"/><path d="M317.906,164.161l0.006,-0.534c1.15,0.001 2.299,0.002 3.448,0.002l-0.006,0.53c-1.15,-0 -2.299,0.001 -3.448,0.002Z" style="fill:#e7c8a1;fill-rule:nonzero;"/><path d="M317.999,156.605l0.007,-0.534c1.148,0.001 2.298,0.002 3.447,0.003l-0.007,0.529c-1.148,0.001 -2.298,0.001 -3.447,0.002Z" style="fill:#e7c8a1;fill-rule:nonzero;"/><path d="M317.582,190.438l-107.974,-1.32l0.603,-48.955l107.974,1.319l-0.603,48.956Z" style="fill:#fff;fill-rule:nonzero;"/><path d="M310.145,171.983l0.959,0.018l-0.251,12.183l-0.958,-0.022l0.25,-12.179Z" style="fill:#f7e9d3;fill-rule:nonzero;"/><path d="M307.652,171.931l0.959,0.02l-0.252,12.182l-0.958,-0.018l0.251,-12.184Z" style="fill:#f7e9d3;fill-rule:nonzero;"/><path d="M305.931,171.893l0.956,0.022l-0.251,12.179l-0.958,-0.016l0.253,-12.185Z" style="fill:#f7e9d3;fill-rule:nonzero;"/><path d="M304.982,171.876l0.575,0.007l-0.243,12.182l-0.578,-0.008l0.246,-12.181Z" style="fill:#f7e9d3;fill-rule:nonzero;"/><path d="M301.735,171.813l1.992,0.038l-0.251,12.178l-1.983,-0.039l0.242,-12.177Z" style="fill:#f7e9d3;fill-rule:nonzero;"/><path d="M300.168,171.78l0.966,0.018l-0.243,12.182l-0.962,-0.019l0.239,-12.181Z" style="fill:#f7e9d3;fill-rule:nonzero;"/><path d="M298.078,171.74l0.51,0.003l-0.239,12.185l-0.519,-0.01l0.248,-12.178Z" style="fill:#f7e9d3;fill-rule:nonzero;"/><path d="M295.823,171.685l0.967,0.023l-0.25,12.179l-0.958,-0.015l0.241,-12.187Z" style="fill:#f7e9d3;fill-rule:nonzero;"/><path d="M294.247,171.659l0.511,0.013l-0.248,12.178l-0.51,-0.01l0.247,-12.181Z" style="fill:#f7e9d3;fill-rule:nonzero;"/><path d="M293.318,171.642l0.513,0.006l-0.25,12.181l-0.511,-0.008l0.248,-12.179Z" style="fill:#f7e9d3;fill-rule:nonzero;"/><path d="M289.726,171.567l2.04,0.037l-0.245,12.18l-2.043,-0.037l0.248,-12.18Z" style="fill:#f7e9d3;fill-rule:nonzero;"/><path d="M287.419,171.522l1.857,0.038l-0.241,12.179l-1.861,-0.034l0.245,-12.183Z" style="fill:#f7e9d3;fill-rule:nonzero;"/><path d="M286.55,171.5l0.29,0.012l-0.247,12.178l-0.3,-0.002l0.257,-12.188Z" style="fill:#f7e9d3;fill-rule:nonzero;"/><path d="M311.461,172.01l0.3,0.006l-0.246,12.178l-0.303,-0.011l0.249,-12.173Z" style="fill:#f7e9d3;fill-rule:nonzero;"/><path d="M312.172,172.018l0.297,0.009l-0.244,12.177l-0.311,-0l0.258,-12.186Z" style="fill:#f7e9d3;fill-rule:nonzero;"/><path d="M312.869,172.031l0.303,0.008l-0.25,12.184l-0.298,-0.007l0.245,-12.185Z" style="fill:#f7e9d3;fill-rule:nonzero;"/><path d="M313.574,172.048l0.305,0.007l-0.246,12.181l-0.305,-0.007l0.246,-12.181Z" style="fill:#f7e9d3;fill-rule:nonzero;"/><path d="M285.586,171.479l0.545,0.018l-0.249,12.175l-0.535,-0.01l0.239,-12.183Z" style="fill:#f7e9d3;fill-rule:nonzero;"/><path d="M284.683,171.458l0.501,0.017l-0.247,12.18l-0.503,-0.008l0.249,-12.189Z" style="fill:#f7e9d3;fill-rule:nonzero;"/><path d="M282.084,171.409l1.479,0.029l-0.242,12.185l-1.483,-0.028l0.246,-12.186Z" style="fill:#f7e9d3;fill-rule:nonzero;"/><path d="M281.427,171.399l0.298,0.006l-0.245,12.184l-0.3,-0.008l0.247,-12.182Z" style="fill:#f7e9d3;fill-rule:nonzero;"/><path d="M279.021,171.349l0.957,0.021l-0.246,12.18l-0.961,-0.019l0.25,-12.182Z" style="fill:#f7e9d3;fill-rule:nonzero;"/><path d="M277.884,171.327l0.445,0.006l-0.244,12.183l-0.446,-0.011l0.245,-12.178Z" style="fill:#f7e9d3;fill-rule:nonzero;"/><path d="M317.963,151.345l-107.876,-1.362l0.124,-9.82l107.873,1.364l-0.121,9.818Z" style="fill:#86ccdb;fill-rule:nonzero;"/><path d="M275.564,153.878l-0.311,-0.004l0.017,-1.216l0.311,0.004l-0.017,1.216Z" style="fill:#f7e9d3;fill-rule:nonzero;"/><path d="M272.015,163.054l-57.632,-0.555l0.025,-2.819l57.635,0.553l-0.028,2.821Z" style="fill:#f7e9d3;fill-rule:nonzero;"/><path d="M271.807,167.99l-57.47,-0.543l0.024,-2.817l57.472,0.539l-0.026,2.821Z" style="fill:#f7e9d3;fill-rule:nonzero;"/><path d="M231.231,172.548l-16.943,-0.16l0.03,-2.811l16.946,0.156l-0.033,2.815Z" style="fill:#f7e9d3;fill-rule:nonzero;"/><path d="M253.724,172.771l-19.72,-0.196l0.032,-2.817l19.715,0.192l-0.027,2.821Z" style="fill:#f7e9d3;fill-rule:nonzero;"/><path d="M240.125,182.848l-25.962,-0.248l0.03,-2.814l25.961,0.245l-0.029,2.817Z" style="fill:#f7e9d3;fill-rule:nonzero;"/><path d="M271.703,183.155l-28.768,-0.283l0.03,-2.817l28.769,0.275l-0.031,2.825Z" style="fill:#f7e9d3;fill-rule:nonzero;"/><path d="M240.449,157.71l-25.961,-0.247l0.032,-2.815l25.961,0.247l-0.032,2.815Z" style="fill:#f7e9d3;fill-rule:nonzero;"/><path d="M272.029,158.018l-28.768,-0.283l0.028,-2.817l28.771,0.277l-0.031,2.823Z" style="fill:#f7e9d3;fill-rule:nonzero;"/><path d="M271.83,173.042l-15.455,-0.157l0.026,-2.817l15.459,0.149l-0.03,2.825Z" style="fill:#f7e9d3;fill-rule:nonzero;"/><path d="M271.806,177.885l-57.562,-0.55l0.024,-2.82l57.557,0.548l-0.019,2.822Z" style="fill:#f7e9d3;fill-rule:nonzero;"/><path d="M314.153,155.703l-36.153,-0.468l-0.16,12.413l36.153,0.468l0.16,-12.413Z" style="fill:#256681;fill-rule:nonzero;"/><path d="M307.063,163.31c-0.167,-0.293 -0.837,-0.925 -1.128,-1.095c-0.488,-0.291 -1.933,-0.985 -2.499,-0.992c-0.218,-0.003 -2.031,-0.028 -4.36,-0.059l-4.314,-2.111l-1.811,-0.023l0.33,2.06c-3.756,-0.052 -5.8,-0.082 -5.8,-0.082l-2.991,-1.843c-0,0 -0.152,5.417 3.727,5.468c0.48,0.006 17.294,0.225 17.892,0.233c0.504,0.005 1.519,-0.582 0.954,-1.556Z" style="fill:#fff;fill-rule:nonzero;"/><path d="M302.864,221.949l-10.548,-5.029l0.124,0l8.124,3.872l1.848,-3.876c0.951,0 1.901,-0.001 2.852,-0.001l-2.4,5.034Zm2.66,-5.58c-0.95,-0.001 -1.9,-0.001 -2.851,-0.001l1.489,-3.125c0.951,0 1.902,-0.001 2.853,-0.001l-1.491,3.127Zm-14.25,-0.005l-0.124,0l-6.536,-3.116l0.124,-0l6.536,3.116Zm16,-3.666c-0.95,-0 -1.901,-0.001 -2.851,-0.001l6.626,-13.902c0.951,-0.001 1.902,-0.001 2.853,-0.002l-6.628,13.905Zm-23.707,-0.008l-0.123,0l-18.545,-8.842l0.121,-0l18.547,8.842Zm-19.68,-9.382l-0.122,-0l-9.455,-4.508l0.12,-0l9.457,4.508Zm50.272,-5.053c-0.951,-0.001 -1.901,-0.001 -2.852,-0.002l1.594,-3.344c0.951,0 1.902,0 2.853,-0.001l-1.595,3.347Zm-61.01,-0.009l-6.989,-3.331l0.119,0l6.99,3.331l-0.12,-0Zm62.861,-3.875c-0.95,-0 -1.902,-0.001 -2.852,-0.001l1.887,-3.96l2.837,0.035l-1.872,3.926Zm-71.006,-0.008l-10.354,-4.936l0.12,0.001l10.352,4.935l-0.118,-0Z" style="fill:#ebd3b5;fill-rule:nonzero;"/><path d="M264.899,203.848l-1.134,-0.54l0.122,-0l1.133,0.54l-0.121,-0Z" style="fill:#e7c8a1;fill-rule:nonzero;"/><path d="M254.43,198.8l-0.12,-0l-1.161,-0.554l0.12,-0l1.161,0.554Zm56.619,-0.005l0.258,-0.542c0.951,0.001 1.901,0.001 2.852,0.002l-0.257,0.538c-0.951,0.001 -1.902,0.001 -2.853,0.002Z" style="fill:#e7c8a1;fill-rule:nonzero;"/><path d="M246.279,194.915l-0.119,0l-1.156,-0.552l0.118,-0l1.157,0.552Zm66.622,-0.006l0.257,-0.539c0.95,-0 1.902,0.001 2.852,0.001l-0.256,0.537c-0.951,0.001 -1.902,0.001 -2.853,0.001Z" style="fill:#e7c8a1;fill-rule:nonzero;"/><path d="M292.316,216.92l-1.166,-0.556l0.124,0l1.166,0.556l-0.124,0Zm10.096,-0.004l0.261,-0.548c0.951,0 1.901,0 2.851,0.001l-0.26,0.546c-0.951,0 -1.901,0.001 -2.852,0.001Z" style="fill:#e7c8a1;fill-rule:nonzero;"/><path d="M284.614,213.248l-1.17,-0.558l0.123,0l1.171,0.558l-0.124,-0Zm19.548,-0.005l0.261,-0.546c0.95,0 1.901,0.001 2.851,0.001l-0.259,0.544c-0.951,0 -1.902,0.001 -2.853,0.001Z" style="fill:#e7c8a1;fill-rule:nonzero;"/><path d="M321.115,183.664l0.04,-3.302c0.512,-0.001 1.023,-0.001 1.534,-0.001l-1.574,3.303Zm1.826,-3.831c-0.593,0 -1.187,0 -1.779,-0.001l0.028,-2.315l0.418,-0.877l2.326,1.108l-0.993,2.085Z" style="fill:#ebd3b5;fill-rule:nonzero;"/><path d="M321.155,180.362l0.007,-0.53c0.592,0.001 1.186,0.001 1.779,0.001l-0.252,0.528c-0.511,0 -1.022,0 -1.534,0.001Z" style="fill:#e7c8a1;fill-rule:nonzero;"/><path d="M317.882,190.445l-2.837,-0.035l0.002,-0.003l2.535,0.031l0.068,-5.493l2.184,-4.583l1.321,-0l-0.04,3.302l-3.233,6.781Zm3.28,-10.613c-0.359,0 -0.716,0 -1.075,-0.001l1.103,-2.314l-0.028,2.315Z" style="fill:#dfbe99;fill-rule:nonzero;"/><path d="M319.834,180.362l0.253,-0.531c0.359,0.001 0.716,0.001 1.075,0.001l-0.007,0.53l-1.321,-0Z" style="fill:#dcb589;fill-rule:nonzero;"/><path d="M234.77,189.428l-0.12,-0.001l-0.006,-0.003l0.12,0.001l0.006,0.003Z" style="fill:#dfbe99;fill-rule:nonzero;"/><path d="M317.582,190.438l-2.535,-0.031l2.603,-5.462l-0.068,5.493Zm-82.818,-1.013l-0.12,-0.001l-14.187,-6.764l0.118,0.001l14.189,6.764Z" style="fill:#f3e7d9;fill-rule:nonzero;"/><path d="M209.751,177.556l-4.356,-2.077l0.021,-0.044l4.335,2.067l0,0.054Z" style="fill:#f3e7d9;fill-rule:nonzero;"/><path d="M214.55,179.789l-0.117,-0.001l-4.682,-2.232l0,-0.054l4.799,2.287Z" style="fill:#f3e7d9;fill-rule:nonzero;"/><path d="M220.575,182.661l-0.118,-0.001l-6.024,-2.872l0.117,0.001l6.025,2.872Z" style="fill:#ebd3b5;fill-rule:nonzero;"/><path d="M300.564,220.792l-97.481,-46.469l21.071,-44.193l97.477,46.462l-21.067,44.2Z" style="fill:#fff;fill-rule:nonzero;"/><path d="M301.545,200.913l0.862,0.421l-5.331,10.955l-0.861,-0.421l5.33,-10.955Z" style="fill:#f7e9d3;fill-rule:nonzero;"/><path d="M299.305,199.823l0.862,0.42l-5.337,10.954l-0.861,-0.419l5.336,-10.955Z" style="fill:#f7e9d3;fill-rule:nonzero;"/><path d="M297.76,199.067l0.857,0.421l-5.336,10.951l-0.861,-0.416l5.34,-10.956Z" style="fill:#f7e9d3;fill-rule:nonzero;"/><path d="M296.904,198.656l0.517,0.246l-5.327,10.958l-0.521,-0.251l5.331,-10.953Z" style="fill:#f7e9d3;fill-rule:nonzero;"/><path d="M293.98,197.236l1.794,0.866l-5.338,10.953l-1.781,-0.867l5.325,-10.952Z" style="fill:#f7e9d3;fill-rule:nonzero;"/><path d="M292.575,196.546l0.866,0.425l-5.329,10.954l-0.866,-0.418l5.329,-10.961Z" style="fill:#f7e9d3;fill-rule:nonzero;"/><path d="M290.688,195.633l0.462,0.215l-5.324,10.965l-0.468,-0.226l5.33,-10.954Z" style="fill:#f7e9d3;fill-rule:nonzero;"/><path d="M288.668,194.638l0.868,0.429l-5.334,10.95l-0.861,-0.414l5.327,-10.965Z" style="fill:#f7e9d3;fill-rule:nonzero;"/><path d="M287.246,193.953l0.459,0.23l-5.327,10.949l-0.46,-0.22l5.328,-10.959Z" style="fill:#f7e9d3;fill-rule:nonzero;"/><path d="M286.41,193.552l0.462,0.218l-5.331,10.956l-0.458,-0.222l5.327,-10.952Z" style="fill:#f7e9d3;fill-rule:nonzero;"/><path d="M283.181,191.978l1.839,0.89l-5.332,10.956l-1.836,-0.894l5.329,-10.952Z" style="fill:#f7e9d3;fill-rule:nonzero;"/><path d="M281.103,190.968l1.674,0.817l-5.325,10.953l-1.677,-0.812l5.328,-10.958Z" style="fill:#f7e9d3;fill-rule:nonzero;"/><path d="M280.323,190.585l0.261,0.13l-5.331,10.954l-0.27,-0.127l5.34,-10.957Z" style="fill:#f7e9d3;fill-rule:nonzero;"/><path d="M302.728,201.489l0.268,0.131l-5.326,10.956l-0.275,-0.136l5.333,-10.951Z" style="fill:#f7e9d3;fill-rule:nonzero;"/><path d="M303.369,201.795l0.267,0.134l-5.327,10.955l-0.28,-0.134l5.34,-10.955Z" style="fill:#f7e9d3;fill-rule:nonzero;"/><path d="M303.996,202.102l0.271,0.134l-5.332,10.954l-0.268,-0.13l5.329,-10.958Z" style="fill:#f7e9d3;fill-rule:nonzero;"/><path d="M304.629,202.411l0.275,0.132l-5.33,10.958l-0.271,-0.132l5.326,-10.958Z" style="fill:#f7e9d3;fill-rule:nonzero;"/><path d="M279.46,190.163l0.486,0.245l-5.332,10.949l-0.479,-0.234l5.325,-10.96Z" style="fill:#f7e9d3;fill-rule:nonzero;"/><path d="M278.647,189.766l0.45,0.225l-5.33,10.953l-0.457,-0.218l5.337,-10.96Z" style="fill:#f7e9d3;fill-rule:nonzero;"/><path d="M276.309,188.63l1.332,0.647l-5.331,10.96l-1.336,-0.647l5.335,-10.96Z" style="fill:#f7e9d3;fill-rule:nonzero;"/><path d="M275.717,188.345l0.268,0.131l-5.332,10.958l-0.267,-0.136l5.331,-10.953Z" style="fill:#f7e9d3;fill-rule:nonzero;"/><path d="M273.554,187.292l0.859,0.42l-5.331,10.954l-0.865,-0.419l5.337,-10.955Z" style="fill:#f7e9d3;fill-rule:nonzero;"/><path d="M272.528,186.794l0.405,0.195l-5.331,10.956l-0.401,-0.197l5.327,-10.954Z" style="fill:#f7e9d3;fill-rule:nonzero;"/><path d="M317.292,185.455l-97.366,-46.464l4.228,-8.861l97.368,46.461l-4.23,8.864Z" style="fill:#f48789;fill-rule:nonzero;"/><path d="M263.051,200.745l-0.283,-0.133l0.528,-1.099l0.279,0.134l-0.524,1.098Zm1.048,-2.198l-0.281,-0.134l0.525,-1.098l0.279,0.134l-0.523,1.098Zm1.046,-2.198l-0.279,-0.133l0.524,-1.098l0.281,0.133l-0.526,1.098Zm1.05,-2.197l-0.282,-0.134l0.528,-1.098l0.28,0.132l-0.526,1.1Zm1.05,-2.197l-0.28,-0.133l0.524,-1.099l0.281,0.133l-0.525,1.099Zm1.049,-2.197l-0.28,-0.135l0.523,-1.098l0.281,0.134l-0.524,1.099Zm1.049,-2.197l-0.282,-0.136l0.526,-1.096l0.281,0.132l-0.525,1.1Zm1.049,-2.197l-0.281,-0.134l0.523,-1.098l0.282,0.13l-0.524,1.102Zm1.05,-2.198l-0.279,-0.134l0.522,-1.099l0.282,0.134l-0.525,1.099Zm1.05,-2.198l-0.282,-0.134l0.524,-1.098l0.284,0.134l-0.526,1.098Zm1.051,-2.197l-0.282,-0.135l0.525,-1.098l0.281,0.135l-0.524,1.098Zm1.051,-2.197l-0.281,-0.135l0.523,-1.097l0.28,0.134l-0.522,1.098Zm1.048,-2.198l-0.279,-0.135l0.524,-1.098l0.281,0.135l-0.526,1.098Zm1.05,-2.198l-0.28,-0.134l0.524,-1.096l0.28,0.134l-0.524,1.096Zm1.05,-2.197l-0.281,-0.132l0.523,-1.101l0.282,0.134l-0.524,1.099Z" style="fill:#f7e9d3;fill-rule:nonzero;"/><path d="M262.12,202.337l0.266,-0.561l-0.266,0.561Z" style="fill:#f7e9d3;fill-rule:nonzero;"/><path d="M270.666,176.825l-52.089,-24.669l1.206,-2.547l52.091,24.665l-1.208,2.551Z" style="fill:#f7e9d3;fill-rule:nonzero;"/><path d="M268.408,181.219l-51.945,-24.59l1.205,-2.546l51.948,24.585l-1.208,2.551Z" style="fill:#f7e9d3;fill-rule:nonzero;"/><path d="M229.662,168.345l-15.315,-7.252l1.205,-2.539l15.317,7.247l-1.207,2.544Z" style="fill:#f7e9d3;fill-rule:nonzero;"/><path d="M249.987,177.975l-17.816,-8.443l1.205,-2.547l17.821,8.439l-1.21,2.551Z" style="fill:#f7e9d3;fill-rule:nonzero;"/><path d="M233.419,181.422l-23.467,-11.108l1.205,-2.542l23.468,11.106l-1.206,2.544Z" style="fill:#f7e9d3;fill-rule:nonzero;"/><path d="M261.963,194.943l-26.002,-12.321l1.205,-2.543l26.006,12.312l-1.209,2.552Z" style="fill:#f7e9d3;fill-rule:nonzero;"/><path d="M244.253,158.737l-23.467,-11.109l1.206,-2.542l23.467,11.106l-1.206,2.545Z" style="fill:#f7e9d3;fill-rule:nonzero;"/><path d="M272.793,172.258l-26,-12.318l1.208,-2.548l26.004,12.312l-1.212,2.554Z" style="fill:#f7e9d3;fill-rule:nonzero;"/><path d="M266.313,185.813l-13.966,-6.624l1.206,-2.545l13.969,6.617l-1.209,2.552Z" style="fill:#f7e9d3;fill-rule:nonzero;"/><path d="M264.261,190.201l-52.03,-24.634l1.203,-2.552l52.028,24.631l-1.201,2.555Z" style="fill:#f7e9d3;fill-rule:nonzero;"/><path d="M312.009,187.814l-32.627,-15.582l-5.349,11.204l32.624,15.582l5.352,-11.204Z" style="fill:#0ca0d5;fill-rule:nonzero;"/><path d="M302.383,191.749c-0.03,-0.336 -0.371,-1.189 -0.566,-1.468c-0.317,-0.469 -1.343,-1.702 -1.851,-1.948c-0.198,-0.094 -1.834,-0.877 -3.934,-1.881l-3.033,-3.725l-1.633,-0.78l-0.565,2.007c-3.384,-1.622 -5.232,-2.504 -5.232,-2.504l-1.943,-2.927c0,-0 -2.407,4.856 1.093,6.526c0.431,0.209 15.605,7.454 16.147,7.713c0.452,0.216 1.621,0.108 1.517,-1.013Z" style="fill:#fff;fill-rule:nonzero;"/><path d="M262.073,41.004l-38.672,-0c1.733,-2.036 3.81,-3.823 6.204,-5.264c2.066,0 4.133,0.001 6.2,0.003l20.055,0.005c2.31,1.388 4.415,3.15 6.213,5.256Zm-31.534,-5.801c0.212,-0.116 0.426,-0.229 0.643,-0.339c3.154,-1.611 6.493,-2.495 9.823,-2.717c0.001,-0.083 0.002,-0.18 0.003,-0.286l4.338,0.001c-0.001,0.143 -0.002,0.27 -0.003,0.372c3.344,0.351 6.595,1.359 9.548,2.961l-24.352,0.008Zm10.474,-3.889c0.001,-0.124 0.001,-0.254 0.003,-0.386l0,-0.007c-2.426,-0.908 -4.153,-3.253 -4.13,-5.991c0.028,-3.481 2.868,-6.295 6.344,-6.295c0.018,-0 0.036,-0 0.053,0.001c3.5,0.028 6.323,2.898 6.296,6.398c-0.022,2.735 -1.785,5.052 -4.226,5.921l-0,0.009l-0.001,0c0,0.119 -0.001,0.236 -0.002,0.349l-4.337,0.001Zm1.948,-2.967c1.159,0 2.413,0.126 2.411,0.339c-0,0.077 -0.002,0.273 -0.004,0.534c1.536,-0.778 2.599,-2.363 2.613,-4.199c0.022,-2.62 -2.09,-4.767 -4.71,-4.789l-0.036,-0c-2.603,-0 -4.73,2.106 -4.753,4.711c-0.013,1.839 1.025,3.44 2.549,4.242c0.002,-0.255 0.003,-0.448 0.004,-0.535c0.001,-0.21 0.929,-0.303 1.926,-0.303Z" style="fill:#ebd3b5;fill-rule:nonzero;"/><path d="M255.86,35.748l-20.055,-0.005c-2.067,-0.002 -4.134,-0.003 -6.2,-0.003c0.306,-0.185 0.618,-0.364 0.934,-0.537l24.352,-0.008c0.327,0.177 0.65,0.362 0.969,0.553Z" style="fill:#e7c8a1;fill-rule:nonzero;"/><path d="M245.346,31.862l-4.338,-0.001c0.002,-0.162 0.003,-0.348 0.005,-0.547l4.337,-0.001c-0.002,0.198 -0.003,0.385 -0.004,0.549Z" style="fill:#e7c8a1;fill-rule:nonzero;"/><path d="M242.777,82.915c-9.253,-0 -18.192,-5.067 -22.68,-13.859c-4.807,-9.417 -3.157,-20.461 3.304,-28.052l38.672,-0c1.265,1.482 2.377,3.133 3.301,4.943c6.37,12.483 1.398,27.822 -11.085,34.193c-3.69,1.883 -7.628,2.776 -11.512,2.775Z" style="fill:#f3e7d9;fill-rule:nonzero;"/><path d="M235.639,24.943c0.022,-2.617 2.17,-4.731 4.788,-4.711c2.619,0.022 4.733,2.169 4.711,4.789c-0.015,1.836 -1.077,3.421 -2.615,4.199c0.001,-0.261 0.003,-0.457 0.004,-0.534c0.005,-0.397 -4.333,-0.491 -4.336,-0.036c-0.001,0.087 -0.003,0.28 -0.005,0.535c-1.522,-0.802 -2.561,-2.403 -2.547,-4.242Zm26.891,21.004c-4.059,-7.949 -11.753,-12.846 -20.029,-13.713c0.001,-0.287 0.005,-0.761 0.009,-1.27l-0,-0.009c2.441,-0.869 4.203,-3.186 4.225,-5.921c0.029,-3.5 -2.796,-6.37 -6.294,-6.398c-3.5,-0.029 -6.372,2.796 -6.399,6.294c-0.022,2.738 1.705,5.083 4.13,5.991l-0,0.007c-0.003,0.48 -0.008,0.928 -0.01,1.219c-3.33,0.222 -6.668,1.106 -9.824,2.717c-12.484,6.371 -17.455,21.71 -11.084,34.192c6.371,12.482 21.709,17.456 34.191,11.084c12.483,-6.371 17.456,-21.71 11.085,-34.193Z" style="fill:#256681;fill-rule:nonzero;"/><path d="M260.449,47.01c5.794,11.354 1.288,25.254 -10.065,31.048c-11.353,5.793 -25.254,1.288 -31.05,-10.064c-5.792,-11.352 -1.287,-25.254 10.064,-31.049c11.355,-5.795 25.256,-1.287 31.051,10.065Z" style="fill:#fff;fill-rule:nonzero;"/><path d="M254.118,67.889c-1.749,2.397 -4.102,4.348 -6.876,5.622l0,-0.001l-0.051,0.023l-0.051,0.02l0.001,0.003c-1.341,0.606 -2.783,1.051 -4.3,1.31l-0.003,-0.023l-0.056,0.008l-0.055,0.007l0.005,0.026l-0.124,0.024c-1.48,0.231 -2.948,0.268 -4.376,0.133l0.005,-0.05l-0.053,-0.006l-0.055,-0.007l-0.006,0.054c-1.519,-0.153 -2.992,-0.505 -4.39,-1.028l0.023,-0.061l-0.051,-0.019l-0.052,-0.022l-0.022,0.062c-1.416,-0.539 -2.751,-1.258 -3.976,-2.132l0.044,-0.06l-0.044,-0.033l-0.045,-0.034l-0.047,0.064l-0.055,-0.04c-1.199,-0.874 -2.283,-1.901 -3.231,-3.053l0.066,-0.053l-0.035,-0.041l-0.034,-0.045l-0.066,0.053c-0.942,-1.16 -1.743,-2.448 -2.371,-3.842l0.077,-0.035l-0.022,-0.049l-0.021,-0.051l-0.08,0.035c-0.599,-1.352 -1.037,-2.801 -1.284,-4.327l0.074,-0.012l-0.008,-0.054l-0.009,-0.054l-0.078,0.012c-0.236,-1.53 -0.269,-3.04 -0.119,-4.51l0.067,0.007l0.004,-0.055l0.008,-0.055l-0.066,-0.007c0.165,-1.518 0.528,-2.986 1.061,-4.38l0.038,0.015l0.021,-0.052l0.021,-0.051l-0.041,-0.015c0.551,-1.407 1.275,-2.737 2.156,-3.95l0.016,0.012l0.032,-0.045l0.034,-0.045l-0.017,-0.012c2.658,-3.616 6.691,-6.225 11.476,-6.97c4.805,-0.752 9.461,0.519 13.102,3.177c3.64,2.656 6.268,6.705 7.016,11.51c0.75,4.806 -0.519,9.461 -3.177,13.102Zm3.422,-8.701c0.137,-1.441 0.1,-2.922 -0.135,-4.419l-0.015,-0.075l4.392,-0.685l-0.007,-0.055l-0.01,-0.054l-4.393,0.685c-0.794,-4.754 -3.412,-8.758 -7.028,-11.397l2.619,-3.591l-0.043,-0.035l-0.046,-0.03l-2.62,3.592c-1.217,-0.877 -2.546,-1.597 -3.951,-2.145l1.597,-4.135l-0.049,-0.022l-0.053,-0.018l-1.6,4.135c-1.389,-0.53 -2.856,-0.89 -4.371,-1.056l0.471,-4.388l-0.054,-0.008l-0.054,-0.005l-0.471,4.388c-1.469,-0.152 -2.979,-0.121 -4.504,0.112l-0.679,-4.34l-0.055,0.005l-0.053,0.012l0.677,4.34c-1.526,0.244 -2.976,0.675 -4.328,1.267l-1.766,-3.991l-0.051,0.021l-0.05,0.023l1.767,3.993c-1.398,0.623 -2.69,1.416 -3.856,2.352l-2.726,-3.381l-0.044,0.033l-0.041,0.036l2.726,3.38c-1.179,0.958 -2.229,2.058 -3.123,3.273l-3.488,-2.544l-0.034,0.042l-0.03,0.046l3.486,2.545c-0.888,1.223 -1.616,2.561 -2.169,3.976l-4.006,-1.547l-0.021,0.051l-0.019,0.052l4.007,1.548c-0.539,1.401 -0.901,2.881 -1.068,4.407l-4.249,-0.455l-0.007,0.054l-0.004,0.055l4.247,0.455c-0.151,1.481 -0.117,3.003 0.12,4.539l-4.209,0.657l0.008,0.056l0.009,0.053l4.212,-0.656c0.247,1.535 0.69,2.993 1.292,4.354l-3.887,1.72l0.019,0.051l0.026,0.05l3.888,-1.722c0.632,1.403 1.437,2.7 2.388,3.868l-3.313,2.67l0.032,0.043l0.037,0.041l3.311,-2.669c0.954,1.159 2.046,2.194 3.25,3.073l0.057,0.04l-2.509,3.44l0.043,0.035l0.046,0.031l2.512,-3.443c1.232,0.88 2.576,1.602 4.001,2.147l-1.539,3.984l0.05,0.022l0.051,0.017l1.539,-3.984c1.408,0.526 2.89,0.881 4.418,1.034l-0.456,4.26l0.055,0.008l0.054,0.003l0.458,-4.26c1.437,0.135 2.914,0.097 4.404,-0.136l0.124,-0.022l0.666,4.26l0.053,-0.007l0.055,-0.011l-0.665,-4.262c1.528,-0.259 2.979,-0.707 4.328,-1.318l1.755,3.965l0.051,-0.021l0.05,-0.024l-1.756,-3.966c1.392,-0.636 2.676,-1.445 3.833,-2.393l2.738,3.395l0.043,-0.033l0.041,-0.035l-2.736,-3.396c1.131,-0.941 2.142,-2.013 3.003,-3.194l0.075,-0.106l3.544,2.587l0.034,-0.043l0.029,-0.045l-3.545,-2.59c0.869,-1.225 1.583,-2.56 2.12,-3.974l4.114,1.589l0.022,-0.05l0.017,-0.052l-4.112,-1.59c0.52,-1.395 0.871,-2.866 1.022,-4.382l4.4,0.471l0.007,-0.053l0.006,-0.055l-4.401,-0.473Z" style="fill:#256681;fill-rule:nonzero;"/><path d="M256.06,50.231l0.022,0.051l4.066,-1.801l-0.021,-0.049l-0.022,-0.05l-4.069,1.8l0.024,0.049Z" style="fill:#256681;fill-rule:nonzero;"/><path d="M253.679,46.359l3.463,-2.794l-0.033,-0.043l-0.038,-0.04l-3.462,2.79l0.034,0.042l0.036,0.045Z" style="fill:#256681;fill-rule:nonzero;"/><path d="M242.338,56.557c-0.49,-1.305 -1.946,-1.964 -3.252,-1.473c-1.305,0.493 -1.965,1.949 -1.473,3.254c0.491,1.305 1.948,1.965 3.253,1.473c1.306,-0.492 1.964,-1.949 1.472,-3.254Z" style="fill:#256681;fill-rule:nonzero;"/><path d="M242.456,57.864c-0.145,0.857 -0.718,1.618 -1.59,1.947c-0.81,0.306 -1.682,0.165 -2.342,-0.298l7.848,13.398l-3.916,-15.047Z" style="fill:#86ccdb;fill-rule:nonzero;"/><path d="M239.086,55.084c0.796,-0.299 1.644,-0.167 2.301,0.275l-7.781,-13.28l3.892,14.943c0.147,-0.852 0.72,-1.609 1.588,-1.938Z" style="fill:#f48789;fill-rule:nonzero;"/><path d="M192.671,211.256l-0.018,0l-45.523,-0.13c-2.987,-0.007 -5.488,-2.199 -5.981,-5.05l3.074,-0.001c5.257,-0.002 10.507,-0.006 15.762,-0.015c4.307,-0.004 8.619,-0.008 12.928,-0.008l2.841,0.001c4.194,0.003 8.386,0.009 12.58,0.015l8.684,0.005l1.672,-0.001c-0.438,2.926 -2.978,5.184 -6.019,5.184Zm-19.664,-5.723c-4.341,0 -8.684,-0.004 -13.022,-0.01c-5.255,-0.009 -10.505,-0.014 -15.762,-0.014c-1.048,-0.001 -2.097,-0.001 -3.145,-0.002c-0.012,-0.159 -0.018,-0.319 -0.018,-0.481l0.018,-6.222c8.755,-0.003 17.508,-0.007 26.266,-0.011l0.506,-0c10.309,-0.004 20.617,-0.008 30.925,-0.009l-0.013,4.514c-1.595,-0.001 -3.19,-0.002 -4.786,-0.002c-5.321,-0.005 -10.637,-0.008 -15.95,-0.008c-10.64,0.006 -21.279,0.013 -31.913,0.038l-0.25,0.005l0,0.498l0.25,0.001c10.634,0.022 21.273,0.031 31.913,0.034l15.95,-0.003c1.595,-0.001 3.19,-0.001 4.784,-0.002l-0.003,1.333c-0.001,0.107 -0.004,0.213 -0.01,0.318l-25.74,0.023Zm25.769,-7.27c-8.145,0 -16.289,-0.003 -24.434,-0.006l-33.262,-0.008l0.01,-3.33c6.598,-0.001 13.194,-0.004 19.793,-0.006l6.967,-0.002c10.312,-0.007 20.624,-0.01 30.935,-0.011l-0.009,3.363Zm0.011,-3.885c-10.312,-0.001 -20.624,-0.003 -30.937,-0.008c-8.923,-0.005 -17.839,-0.008 -26.759,-0.01l0.019,-6.631l2.16,0c5.322,-0.001 10.634,-0.007 15.956,-0.014c3.893,-0.006 7.787,-0.01 11.68,-0.01l4.278,0.002c3.273,0.001 6.542,0.005 9.812,0.01l12.101,0.01l1.708,0l-0.002,1.027c-1.611,-0.001 -3.222,-0.002 -4.835,-0.002c-4.121,-0.002 -8.239,-0.005 -12.356,-0.005l-3.586,0.001c-10.64,0.003 -21.279,0.01 -31.913,0.034l-0.25,0.007l0,0.499l0.25,-0c10.634,0.021 21.273,0.031 31.913,0.036l15.95,-0.005c1.609,-0.001 3.217,-0.002 4.825,-0.003l-0.014,5.062Zm-27.588,-7.193c-3.991,0 -7.983,-0.004 -11.973,-0.009c-5.322,-0.007 -10.634,-0.013 -15.956,-0.013l-2.158,-0l0.004,-1.252l57.695,-0l-0.004,1.253c-0.781,0 -1.563,-0.001 -2.344,-0.001l-11.148,0.009c-3.376,0.004 -6.752,0.009 -10.131,0.011l-3.985,0.002Z" style="fill:#ebd3b5;fill-rule:nonzero;"/><path d="M141.11,187.729l0.002,-0.566l2.158,-0c5.322,-0 10.634,0.006 15.956,0.013c3.99,0.005 7.982,0.009 11.973,0.009l3.985,-0.002c3.379,-0.002 6.755,-0.007 10.131,-0.011l11.148,-0.009c0.781,-0 1.563,0.001 2.344,0.001l-0.002,0.563l-1.708,0l-12.101,-0.01c-3.27,-0.005 -6.539,-0.009 -9.812,-0.01l-4.278,-0.002c-3.893,0 -7.787,0.004 -11.68,0.01c-5.322,0.007 -10.634,0.013 -15.956,0.014l-2.16,0Z" style="fill:#e7c8a1;fill-rule:nonzero;"/><path d="M178.026,189.324c-10.64,-0.005 -21.279,-0.015 -31.913,-0.036l-0.25,-0l0,-0.499l0.25,-0.007c10.634,-0.024 21.273,-0.031 31.913,-0.034l3.586,-0.001c4.117,0 8.235,0.003 12.356,0.005c1.613,-0 3.224,0.001 4.835,0.002l-0.002,0.562c-1.608,0.001 -3.216,0.002 -4.825,0.003l-15.95,0.005Z" style="fill:#e7c8a1;fill-rule:nonzero;"/><path d="M141.149,206.076c-0.033,-0.187 -0.056,-0.377 -0.071,-0.569c1.048,0.001 2.097,0.001 3.145,0.002c5.257,0 10.507,0.005 15.762,0.014c4.338,0.006 8.681,0.01 13.022,0.01l25.74,-0.023c-0.01,0.19 -0.029,0.377 -0.057,0.562l-1.672,0.001l-8.684,-0.005c-4.194,-0.006 -8.386,-0.012 -12.58,-0.015l-2.841,-0.001c-4.309,0 -8.621,0.004 -12.928,0.008c-5.255,0.009 -10.505,0.013 -15.762,0.015l-3.074,0.001Z" style="fill:#e7c8a1;fill-rule:nonzero;"/><path d="M178.026,203.864c-10.64,-0.003 -21.279,-0.012 -31.913,-0.034l-0.25,-0.001l0,-0.498l0.25,-0.005c10.634,-0.025 21.273,-0.032 31.913,-0.038c5.313,-0 10.629,0.003 15.95,0.008c1.596,0 3.191,0.001 4.786,0.002l-0.002,0.561c-1.594,0.001 -3.189,0.001 -4.784,0.002l-15.95,0.003Z" style="fill:#e7c8a1;fill-rule:nonzero;"/><path d="M141.078,198.804l0.002,-0.555l33.262,0.008c8.145,0.003 16.289,0.006 24.434,0.006l-0.001,0.521c-10.308,0.001 -20.616,0.005 -30.925,0.009l-0.506,-0c-8.758,0.004 -17.511,0.008 -26.266,0.011Z" style="fill:#e7c8a1;fill-rule:nonzero;"/><path d="M141.09,194.919l0.001,-0.559c8.92,0.002 17.836,0.005 26.759,0.01c10.313,0.005 20.625,0.007 30.937,0.008l-0.002,0.522c-10.311,0.001 -20.623,0.004 -30.935,0.011l-6.967,0.002c-6.599,0.002 -13.195,0.005 -19.793,0.006Z" style="fill:#e7c8a1;fill-rule:nonzero;"/><path d="M198.811,185.911l-57.695,-0l0.019,-6.82c0.009,-3.34 2.745,-6.069 6.082,-6.069l0.024,-0l45.523,0.131c3.347,0.01 6.076,2.755 6.065,6.104l-0.018,6.654Z" style="fill:#f3e7d9;fill-rule:nonzero;"/><path d="M189.792,140.168c-0.011,3.346 -2.756,6.074 -6.104,6.064l-45.526,-0.13c-3.346,-0.008 -6.08,-2.754 -6.07,-6.1l0.075,-25.935c0.009,-3.347 2.757,-6.082 6.104,-6.069l45.528,0.131c3.347,0.01 6.077,2.755 6.065,6.104l-0.072,25.935Z" style="fill:#256681;fill-rule:nonzero;"/><path d="M152.471,129.033c-0.006,1.677 -1.382,3.046 -3.057,3.038l-10.282,-0.032c-1.675,-0.004 -3.039,-1.38 -3.032,-3.051l0.008,-3.332c0.004,-1.671 1.377,-3.036 3.052,-3.029l10.279,0.025c1.676,0.006 3.045,1.383 3.04,3.051l-0.008,3.33Z" style="fill:#fff;fill-rule:nonzero;"/><path d="M166.891,117.349c0.009,-2.867 2.34,-5.181 5.208,-5.176c2.859,0.01 5.177,2.341 5.168,5.205c-0.008,2.868 -2.337,5.18 -5.199,5.176c-2.868,-0.009 -5.185,-2.338 -5.177,-5.205Z" style="fill:#f48789;fill-rule:nonzero;"/><path d="M174.411,117.372c0.006,-2.868 2.332,-5.183 5.201,-5.18c2.863,0.014 5.178,2.345 5.17,5.207c-0.009,2.866 -2.337,5.181 -5.2,5.174c-2.869,-0.005 -5.182,-2.339 -5.171,-5.201Z" style="fill:#86ccdb;fill-rule:nonzero;"/><rect x="136.099" y="135.228" width="48.682" height="2.065" style="fill:#f7e9d3;fill-rule:nonzero;"/><rect x="136.099" y="139.349" width="48.682" height="2.064" style="fill:#f7e9d3;fill-rule:nonzero;"/><path d="M308.1,117.796c-3.271,-0 -6.307,-1.003 -8.818,-2.716c5.888,-0.003 11.773,-0.005 17.66,-0.008c-2.529,1.718 -5.568,2.724 -8.842,2.724Zm9.583,-3.259c-6.386,-0.004 -12.772,-0.006 -19.159,-0.009c-3.185,-2.464 -5.394,-6.13 -5.948,-10.317l1.166,-0c10.039,-0.004 20.074,-0.008 30.109,-0.014c-0.677,4.197 -2.949,7.872 -6.168,10.34Zm6.245,-10.867c-8.386,-0.006 -16.772,-0.009 -25.16,-0.012l-5.026,-0.002l-1.23,0c-0.048,-0.5 -0.073,-1.006 -0.073,-1.519l-0,-18.011c0.435,0 0.869,-0.001 1.303,-0.001c10.106,-0.003 20.208,-0.008 30.31,-0.015l0,18.027c-0.018,0.517 -0.06,1.029 -0.124,1.533Zm0.124,-20.086c-10.102,-0.007 -20.204,-0.01 -30.31,-0.012c-0.434,-0.001 -0.868,-0.001 -1.303,-0.001l-0,-5.961c-0,-3.439 1.109,-6.619 2.988,-9.202c8.467,-0.003 16.933,-0.006 25.397,-0.012c1.927,2.586 3.11,5.77 3.228,9.214l0,5.974Zm-3.639,-15.717c-8.188,-0.005 -16.376,-0.008 -24.566,-0.011c0.954,-1.195 2.078,-2.248 3.337,-3.121c5.945,-0.002 11.889,-0.005 17.833,-0.008c1.275,0.877 2.419,1.937 3.396,3.14Zm-4.227,-3.675c-5.384,-0.003 -10.768,-0.005 -16.152,-0.007c1.284,-0.773 2.689,-1.367 4.178,-1.747c2.587,-0.001 5.174,-0.003 7.761,-0.004c1.5,0.381 2.915,0.979 4.213,1.758Z" style="fill:#ebd3b5;fill-rule:nonzero;"/><path d="M304.212,62.438c1.243,-0.318 2.545,-0.486 3.888,-0.486c1.336,-0 2.633,0.167 3.873,0.482c-2.587,0.001 -5.174,0.003 -7.761,0.004Z" style="fill:#e7c8a1;fill-rule:nonzero;"/><path d="M295.427,68.408c0.136,-0.187 0.277,-0.371 0.42,-0.552c8.19,0.003 16.378,0.006 24.566,0.011c0.14,0.174 0.277,0.35 0.411,0.529c-8.464,0.006 -16.93,0.009 -25.397,0.012Z" style="fill:#e7c8a1;fill-rule:nonzero;"/><path d="M299.184,64.735c0.277,-0.192 0.56,-0.376 0.85,-0.55c5.384,0.002 10.768,0.004 16.152,0.007c0.282,0.17 0.56,0.348 0.831,0.535c-5.944,0.003 -11.888,0.006 -17.833,0.008Z" style="fill:#e7c8a1;fill-rule:nonzero;"/><path d="M292.439,84.126l-0,-0.555c0.435,-0 0.869,-0 1.303,0.001c10.106,0.002 20.208,0.005 30.31,0.012l0,0.526c-10.102,0.007 -20.204,0.012 -30.31,0.015c-0.434,0 -0.868,0.001 -1.303,0.001Z" style="fill:#e7c8a1;fill-rule:nonzero;"/><path d="M292.576,104.211c-0.025,-0.184 -0.046,-0.369 -0.064,-0.555l1.23,0l5.026,0.002c8.388,0.003 16.774,0.006 25.16,0.012c-0.023,0.177 -0.048,0.352 -0.077,0.527c-10.035,0.006 -20.07,0.01 -30.109,0.014l-1.166,-0Z" style="fill:#e7c8a1;fill-rule:nonzero;"/><path d="M299.282,115.08c-0.259,-0.177 -0.511,-0.36 -0.758,-0.552c6.387,0.003 12.773,0.005 19.159,0.009c-0.242,0.185 -0.489,0.363 -0.741,0.535c-5.887,0.003 -11.772,0.005 -17.66,0.008Z" style="fill:#e7c8a1;fill-rule:nonzero;"/><path d="M321.597,102.137c-0,8.647 -7.013,15.659 -15.659,15.659c-8.648,-0 -15.658,-7.012 -15.658,-15.659l-0,-24.527c-0,-8.647 7.01,-15.658 15.658,-15.658c8.646,-0 15.659,7.011 15.659,15.658l-0,24.527Z" style="fill:#fff;fill-rule:nonzero;"/><path d="M308.441,76.124c0,1.639 -1.007,2.965 -2.25,2.965c-1.242,0 -2.251,-1.326 -2.251,-2.965l0,-5.513c0,-1.636 1.009,-2.968 2.251,-2.968c1.243,0 2.25,1.332 2.25,2.968l0,5.513Z" style="fill:#f7e9d3;fill-rule:nonzero;"/><path d="M207.49,41.004l-19.447,-0l3.915,-1.791l5.045,0.004l10.083,-0.004c1.442,-0.001 2.885,-0.002 4.327,-0.004l-3.923,1.795Zm4.982,-2.34c-1.795,-0.002 -3.591,-0.003 -5.386,-0.004c-3.54,-0.004 -7.082,-0.006 -10.627,-0.006l-3.285,0.003l6.392,-2.925l10.265,-0c1.468,0.001 2.935,0.001 4.402,0.001c-0.035,0.331 -0.111,0.663 -0.232,0.989c-0.307,0.822 -0.853,1.486 -1.529,1.942Zm-8.158,-3.453l-3.61,-0l3.226,-1.475l4.125,-1.888l1.776,0.001l2.472,-0c0.708,0.429 1.252,1.055 1.583,1.779c0.226,0.492 0.353,1.03 0.368,1.58l-9.94,0.003Zm5.197,-3.885c0.23,-0.04 0.465,-0.061 0.701,-0.061c0.232,-0 0.465,0.02 0.699,0.061l-1.4,0Z" style="fill:#ebd3b5;fill-rule:nonzero;"/><path d="M197.003,39.217l-5.045,-0.004l1.216,-0.556l3.285,-0.003c3.545,0 7.087,0.002 10.627,0.006c1.795,0.001 3.591,0.002 5.386,0.004c-0.185,0.125 -0.379,0.234 -0.581,0.327l-0.478,0.218c-1.442,0.002 -2.885,0.003 -4.327,0.004l-10.083,0.004Z" style="fill:#e7c8a1;fill-rule:nonzero;"/><path d="M214.233,35.733c-1.467,0 -2.934,0 -4.402,-0.001l-10.265,-0l0.092,-0.042l1.046,-0.479l3.61,-0l9.94,-0.003c0.004,0.174 -0.002,0.35 -0.021,0.525Z" style="fill:#e7c8a1;fill-rule:nonzero;"/><path d="M212.303,31.849l-2.472,-0l-1.776,-0.001l0.47,-0.215c0.314,-0.143 0.645,-0.247 0.986,-0.307l1.4,0c0.237,0.042 0.475,0.106 0.709,0.193c0.242,0.09 0.47,0.201 0.683,0.33Z" style="fill:#e7c8a1;fill-rule:nonzero;"/><path d="M97.487,86.884l4.068,-3.611l0.004,0.008l6.332,-5.606l80.152,-36.671l19.447,-0l-0.195,0.089l-4.272,1.954l-91.766,41.985l-13.77,1.852Z" style="fill:#f3e7d9;fill-rule:nonzero;"/><path d="M103.166,77.378l-10.404,9.21l13.77,-1.852l-3.366,-7.358Z" style="fill:#fff;fill-rule:nonzero;"/><path d="M103.166,77.378l3.366,7.358l91.765,-41.985l-3.365,-7.358l-91.766,41.985Z" style="fill:#0ca0d5;fill-rule:nonzero;"/><path d="M97.736,84.958l-0.907,-1.98l-4.067,3.61l5.388,-0.726l-0.414,-0.904Z" style="fill:#0ca0d5;fill-rule:nonzero;"/><path d="M199.201,33.44l3.367,7.358l-4.271,1.953l-3.365,-7.358l4.269,-1.953Z" style="fill:#fff;fill-rule:nonzero;"/><path d="M207.164,38.694c0.941,-0.43 1.72,-1.221 2.108,-2.268c0.39,-1.045 0.32,-2.153 -0.113,-3.094c-0.43,-0.941 -1.221,-1.719 -2.266,-2.109c-1.047,-0.389 -2.153,-0.317 -3.094,0.114l-4.598,2.103l3.367,7.358l4.596,-2.104Z" style="fill:#f48789;fill-rule:nonzero;"/><path d="M103.656,37.748c-1.295,-0.01 -2.587,-0.143 -3.88,-0.243c-1.299,-0.091 -2.599,-0.178 -3.905,-0.253c-2.587,-0.132 -5.169,-0.201 -7.76,-0.215c-1.733,-0.005 -3.471,0.014 -5.209,0.066c-1.928,0.091 -3.857,0.189 -5.784,0.27c-1.93,0.087 -3.858,0.179 -5.793,0.292c-3.039,0.168 -6.075,0.338 -9.099,0.602c-3.023,-0.264 -6.059,-0.434 -9.095,-0.602c-1.929,-0.113 -3.863,-0.205 -5.798,-0.292c-1.917,-0.081 -3.845,-0.179 -5.774,-0.27c-1.744,-0.052 -3.476,-0.071 -5.22,-0.066c-2.588,0.014 -5.173,0.083 -7.757,0.215c-1.296,0.075 -2.596,0.162 -3.895,0.253c-1.291,0.1 -2.583,0.233 -3.886,0.243c-1.207,0.02 -2.22,0.999 -2.22,2.23c-0,1.195 1.013,2.241 2.22,2.223c1.403,-0.018 2.8,-0.173 4.198,-0.264c1.351,-0.1 2.7,-0.187 4.043,-0.254c2.689,-0.141 5.374,-0.21 8.06,-0.193c1.742,0 3.488,0.029 5.219,0.082c0.486,0.018 0.971,0.035 1.454,0.052c-1.328,0.455 -2.645,0.944 -3.937,1.5c-0.462,0.202 -0.929,0.404 -1.397,0.626c-0.462,0.213 -0.923,0.432 -1.38,0.655c-2.292,1.138 -4.507,2.416 -6.637,3.82c-0.688,0.459 -1.357,0.946 -2.016,1.447c-0.634,0.473 -1.259,0.969 -1.867,1.479c-0.619,0.509 -1.219,1.034 -1.805,1.552c-0.274,0.251 -0.54,0.491 -0.811,0.74c-0.272,0.243 -0.543,0.492 -0.809,0.74c-0.533,0.513 -0.976,1.073 -1.207,1.749c-0.156,0.467 -0.037,0.876 0.22,1.211c0.259,0.347 0.654,0.596 1.057,0.728c0.297,0.12 0.617,0.204 0.946,0.267c0.325,0.063 0.65,0.092 0.957,0.115c0.247,0.019 0.491,0.019 0.724,-0.01c0.271,-0.022 0.548,-0.052 0.808,-0.1c1.614,-0.168 2.954,-0.9 4.154,-1.866c0.403,-0.318 0.786,-0.664 1.164,-1.021c1.192,-1.143 2.383,-2.302 3.621,-3.412c0.415,-0.364 0.832,-0.733 1.255,-1.085c1.712,-1.432 3.544,-2.72 5.552,-3.684l-0.138,0.043c3.282,-1.718 6.837,-2.814 10.475,-3.38c0.342,-0.066 0.687,-0.113 1.03,-0.164c0.954,-0.167 1.905,-0.256 2.858,-0.412c1.864,-0.266 3.731,-0.469 5.601,-0.629c1.373,0.114 2.745,0.25 4.113,0.42c0.478,0.058 0.959,0.126 1.439,0.191c0.833,0.149 1.665,0.227 2.496,0.343l-0.087,-0.009c1.182,0.137 2.378,0.329 3.55,0.578c0.387,0.086 0.78,0.171 1.167,0.259c1.934,0.433 3.81,1.059 5.612,1.876c0.445,0.194 0.895,0.408 1.334,0.635c2.327,1.236 4.526,2.696 6.571,4.33c0.305,0.236 0.589,0.481 0.883,0.709c0.261,0.215 0.514,0.423 0.762,0.638c0.248,0.229 0.491,0.451 0.728,0.681c1.855,1.76 3.527,3.968 6.08,4.746c0.325,0.092 0.659,0.157 1.006,0.208c0.255,0.053 0.529,0.083 0.802,0.105c0.224,0.016 0.474,0.029 0.72,0.01c0.301,-0.023 0.636,-0.052 0.961,-0.115c0.316,-0.063 0.646,-0.147 0.941,-0.267c0.398,-0.132 0.804,-0.381 1.057,-0.728c0.253,-0.335 0.38,-0.744 0.23,-1.189c-0.172,-0.55 -0.483,-1.033 -0.889,-1.431c-1.125,-1.136 -2.293,-2.139 -3.501,-3.141c-0.259,-0.226 -0.529,-0.438 -0.794,-0.659c-1.082,-0.877 -2.189,-1.721 -3.339,-2.498c-0.658,-0.436 -1.34,-0.862 -2.009,-1.277c-3.269,-1.981 -6.71,-3.661 -10.29,-4.961c-0.345,-0.127 -0.695,-0.241 -1.044,-0.363c0.479,-0.017 0.958,-0.034 1.437,-0.052c1.744,-0.053 3.487,-0.082 5.219,-0.082c2.69,-0.017 5.376,0.052 8.06,0.193c1.353,0.067 2.704,0.154 4.054,0.254c1.397,0.091 2.796,0.246 4.194,0.264c1.213,0.018 2.229,-1.028 2.229,-2.223c0,-1.231 -1.016,-2.21 -2.229,-2.23Z" style="fill:#256681;fill-rule:nonzero;"/><path d="M93.733,62.142c-1.699,1.369 -5.097,2.04 -8.542,2.04c-3.358,0 -6.757,-0.643 -8.635,-1.913c-7.607,-4.942 -9.919,-18.593 -7.682,-21.363c1.486,-2.197 9.497,-3.896 16.976,-3.896c6.82,-0 13.189,1.411 13.826,5.149c1.178,7.389 -0.626,16.347 -5.943,19.983Zm-45.868,0.127c-1.873,1.27 -5.266,1.913 -8.624,1.913c-3.444,0 -6.852,-0.671 -8.552,-2.04c-5.314,-3.636 -7.122,-12.594 -5.938,-19.983c0.63,-3.738 7.005,-5.149 13.819,-5.149c7.481,-0 15.49,1.699 16.981,3.896c2.244,2.77 -0.068,16.421 -7.686,21.363Zm57.602,-25.409c-4.029,-0.919 -7.733,-1.364 -11.316,-1.63l0.01,0.007c-0.942,-0.218 -1.952,-0.399 -3.045,-0.533c-1.625,-0.196 -3.394,-0.3 -5.266,-0.3c-1.925,0 -3.896,0.11 -5.873,0.319c-1.93,0.202 -3.756,0.49 -5.433,0.877c-1.436,0.321 -2.689,0.689 -3.762,1.098l0.006,-0.005c-5.919,1.26 -11.63,1.237 -17.143,-0l0.013,0.009c-1.078,-0.411 -2.335,-0.779 -3.782,-1.102c-1.665,-0.387 -3.497,-0.675 -5.433,-0.877c-1.965,-0.209 -3.942,-0.319 -5.873,-0.319c-1.865,0 -3.634,0.104 -5.256,0.3c-1.094,0.134 -2.109,0.317 -3.051,0.534l0.011,-0.008c-3.572,0.266 -7.28,0.711 -11.309,1.63c-0.395,0.093 -0.675,0.445 -0.675,0.85l0,3.687c0,0.393 0.308,0.7 0.693,0.745c1.908,0.221 2.619,1.134 2.888,2.319l0.011,-0.021c-0.082,1.175 -0.103,2.364 -0.055,3.559c0.097,2.172 0.412,4.27 0.939,6.223c0.566,2.121 1.364,4.023 2.367,5.658c1.107,1.815 2.456,3.284 4.002,4.36c1.128,0.879 2.674,1.537 4.597,1.971c1.651,0.387 3.555,0.582 5.509,0.582c1.885,-0 3.758,-0.19 5.41,-0.537c1.907,-0.409 3.474,-1.017 4.659,-1.814c1.341,-0.885 2.601,-2.011 3.733,-3.37c1.007,-1.214 1.931,-2.618 2.729,-4.16c0.728,-1.401 1.34,-2.898 1.85,-4.475c0.467,-1.463 0.82,-2.942 1.051,-4.381c0.057,-0.355 0.099,-0.703 0.14,-1.05c-0.058,0.657 -0.159,1.325 -0.313,2.003c1.595,-6.681 6.017,-6.056 7.421,0l-0.002,-0.102c0.225,1.169 0.508,2.353 0.88,3.53c0.51,1.577 1.133,3.074 1.856,4.475c0.803,1.542 1.722,2.946 2.728,4.16c1.138,1.359 2.399,2.485 3.74,3.37c1.179,0.797 2.745,1.405 4.647,1.814c1.658,0.347 3.53,0.537 5.421,0.537c1.954,-0 3.849,-0.195 5.501,-0.582c1.931,-0.434 3.469,-1.092 4.596,-1.971c1.556,-1.076 2.906,-2.545 4.005,-4.36c1.006,-1.635 1.804,-3.537 2.37,-5.658c0.521,-1.953 0.833,-4.051 0.936,-6.223c0.053,-1.195 0.027,-2.383 -0.055,-3.557l0.01,0.019c0.265,-1.185 0.983,-2.098 2.889,-2.319c0.383,-0.045 0.694,-0.352 0.694,-0.745l0,-3.687c0,-0.405 -0.278,-0.757 -0.67,-0.85Z" style="fill:#f48789;fill-rule:nonzero;"/><path d="M82.327,37.13c1.169,-0.078 2.353,-0.12 3.523,-0.12c0.534,-0 1.065,0.009 1.591,0.027c-1.51,0 -3.024,0.02 -4.539,0.066c-0.191,0.009 -0.383,0.018 -0.575,0.027Z" style="fill:url(#_Radial1);"/><path d="M85.182,64.181c-0.951,-0 -1.904,-0.051 -2.825,-0.154c-2.331,-0.26 -4.456,-0.848 -5.801,-1.758c-5.772,-3.75 -8.496,-12.515 -8.496,-17.734c-0,-0.474 0.022,-0.918 0.066,-1.327c0.706,0.11 1.411,0.181 2.115,0.279l-0.087,-0.009c1.182,0.137 2.378,0.329 3.55,0.578c0.387,0.086 0.78,0.171 1.167,0.259c1.934,0.433 3.81,1.059 5.612,1.876c0.445,0.194 0.895,0.408 1.334,0.635c2.327,1.236 4.526,2.696 6.571,4.33c0.305,0.236 0.589,0.481 0.883,0.709c0.261,0.215 0.514,0.423 0.762,0.638c0.248,0.229 0.491,0.451 0.728,0.681c1.855,1.76 3.527,3.968 6.08,4.746c0.167,0.047 0.335,0.087 0.507,0.122c-0.944,1.673 -2.145,3.084 -3.615,4.09c-1.702,1.365 -5.109,2.039 -8.551,2.039Zm14.23,-11.749c-0.409,-0.354 -0.824,-0.702 -1.244,-1.05c-0.259,-0.226 -0.529,-0.438 -0.794,-0.659c-1.082,-0.877 -2.189,-1.721 -3.339,-2.498c-0.658,-0.436 -1.34,-0.862 -2.009,-1.277c-3.269,-1.981 -6.71,-3.661 -10.29,-4.961c-0.345,-0.127 -0.695,-0.241 -1.044,-0.363c0.479,-0.017 0.958,-0.034 1.437,-0.052c1.744,-0.053 3.487,-0.082 5.219,-0.082c0.268,-0.002 0.537,-0.003 0.805,-0.003c2.421,-0 4.838,0.069 7.255,0.196c1.353,0.067 2.704,0.154 4.054,0.254c0.057,0.004 0.114,0.008 0.171,0.011c0.016,0.07 0.031,0.14 0.043,0.211c0.229,1.436 0.346,2.931 0.345,4.435c0,1.969 -0.2,3.953 -0.609,5.838Z" style="fill:url(#_Radial2);"/><path d="M97.348,58.052c-0.172,-0.035 -0.34,-0.075 -0.507,-0.122c-2.553,-0.778 -4.225,-2.986 -6.08,-4.746c-0.237,-0.23 -0.48,-0.452 -0.728,-0.681c-0.248,-0.215 -0.501,-0.423 -0.762,-0.638c-0.294,-0.228 -0.578,-0.473 -0.883,-0.709c-2.045,-1.634 -4.244,-3.094 -6.571,-4.33c-0.439,-0.227 -0.889,-0.441 -1.334,-0.635c-1.802,-0.817 -3.678,-1.443 -5.612,-1.876c-0.387,-0.088 -0.78,-0.173 -1.167,-0.259c-1.172,-0.249 -2.368,-0.441 -3.55,-0.578l0.087,0.009c-0.704,-0.098 -1.409,-0.169 -2.115,-0.279c0.112,-1.024 0.362,-1.824 0.748,-2.302c1.085,-1.603 5.663,-2.946 10.975,-3.552c0.812,-0.092 1.642,-0.167 2.478,-0.224c0.192,-0.009 0.384,-0.018 0.575,-0.027c1.515,-0.046 3.029,-0.066 4.539,-0.066c6.064,0.204 11.423,1.617 12.192,4.911c-0.057,-0.003 -0.114,-0.007 -0.171,-0.011c-1.35,-0.1 -2.701,-0.187 -4.054,-0.254c-2.417,-0.127 -4.834,-0.196 -7.255,-0.196c-0.268,-0 -0.537,0.001 -0.805,0.003c-1.732,0 -3.475,0.029 -5.219,0.082c-0.479,0.018 -0.958,0.035 -1.437,0.052c0.349,0.122 0.699,0.236 1.044,0.363c3.58,1.3 7.021,2.98 10.29,4.961c0.669,0.415 1.351,0.841 2.009,1.277c1.15,0.777 2.257,1.621 3.339,2.498c0.265,0.221 0.535,0.433 0.794,0.659c0.42,0.348 0.835,0.696 1.244,1.05c-0.441,2.036 -1.125,3.957 -2.064,5.62Z" style="fill:url(#_Radial3);"/><path d="M82.357,64.027c-2.333,-0.26 -4.458,-0.848 -5.801,-1.758c-5.772,-3.75 -8.496,-12.515 -8.496,-17.734c-0,5.219 2.724,13.984 8.496,17.734c1.345,0.91 3.47,1.498 5.801,1.758Zm11.376,-1.885c1.47,-1.006 2.671,-2.417 3.615,-4.09c0.939,-1.663 1.623,-3.584 2.064,-5.62c0.409,-1.885 0.609,-3.869 0.609,-5.838c0,6.234 -2.004,12.618 -6.288,15.548Zm5.943,-19.983c-0.012,-0.071 -0.027,-0.141 -0.043,-0.211c-0.769,-3.294 -6.128,-4.707 -12.192,-4.911c-0.526,-0.018 -1.057,-0.027 -1.591,-0.027c-1.17,-0 -2.354,0.042 -3.523,0.12c-0.836,0.057 -1.666,0.132 -2.478,0.224c1.952,-0.223 4.003,-0.346 6.015,-0.346c6.81,-0 13.184,1.411 13.812,5.151Z" style="fill:url(#_Radial4);"/><path d="M39.24,64.181c-3.183,-0 -6.336,-0.577 -8.139,-1.744c5.497,0.003 10.992,0.005 16.49,0.007c-1.918,1.153 -5.15,1.737 -8.351,1.737Zm-8.899,-2.289c-1.304,-0.978 -2.385,-2.287 -3.251,-3.815c1.407,-0.248 2.603,-0.929 3.685,-1.8c0.403,-0.318 0.786,-0.664 1.164,-1.021c1.192,-1.143 2.383,-2.302 3.621,-3.412c0.415,-0.364 0.832,-0.733 1.255,-1.085c1.712,-1.432 3.544,-2.72 5.552,-3.684l-0.138,0.043c2.658,-1.391 5.494,-2.375 8.409,-2.999l0,15.747c-0.676,0.753 -1.414,1.434 -2.215,2.018c-6.027,0.002 -12.056,0.005 -18.082,0.008Z" style="fill:url(#_Radial5);"/><path d="M47.591,62.444c-5.498,-0.002 -10.993,-0.004 -16.49,-0.007c-0.146,-0.094 -0.284,-0.193 -0.412,-0.295c-0.117,-0.081 -0.234,-0.164 -0.348,-0.25c6.026,-0.003 12.055,-0.006 18.082,-0.008c-0.182,0.134 -0.369,0.262 -0.558,0.385c-0.088,0.06 -0.18,0.118 -0.274,0.175Z" style="fill:url(#_Radial6);"/><path d="M25.016,52.456c-0.411,-1.892 -0.613,-3.885 -0.613,-5.862c0.001,-1.306 0.089,-2.606 0.263,-3.866c5.369,0.002 10.738,0.005 16.107,0.007c-0.313,0.126 -0.625,0.256 -0.935,0.389c-0.462,0.202 -0.929,0.404 -1.397,0.626c-0.462,0.213 -0.923,0.432 -1.38,0.655c-2.292,1.138 -4.507,2.416 -6.637,3.82c-0.688,0.459 -1.357,0.946 -2.016,1.447c-0.634,0.473 -1.259,0.969 -1.867,1.479c-0.52,0.428 -1.028,0.868 -1.525,1.305Zm-0.27,-10.267c0.002,-0.01 0.003,-0.02 0.005,-0.03c0.012,-0.07 0.026,-0.14 0.042,-0.208c0.068,-0.005 0.137,-0.01 0.206,-0.014c1.351,-0.1 2.7,-0.187 4.043,-0.254c2.421,-0.127 4.838,-0.196 7.256,-0.196c0.268,-0 0.536,0.001 0.804,0.003c1.742,0 3.488,0.029 5.219,0.082c0.486,0.018 0.971,0.035 1.454,0.052c-0.524,0.18 -1.046,0.365 -1.566,0.557c-5.82,0.002 -11.644,0.005 -17.463,0.008Z" style="fill:url(#_Radial7);"/><path d="M40.773,42.735c-5.369,-0.002 -10.738,-0.005 -16.107,-0.007c0.025,-0.181 0.052,-0.361 0.08,-0.539c5.819,-0.003 11.643,-0.006 17.463,-0.008c-0.481,0.178 -0.96,0.362 -1.436,0.554Z" style="fill:url(#_Radial8);"/><path d="M41.987,37.123c-0.142,-0.006 -0.285,-0.013 -0.428,-0.02c-1.53,-0.046 -3.051,-0.066 -4.579,-0.066c0.526,-0.018 1.057,-0.027 1.59,-0.027c1.135,-0 2.283,0.039 3.417,0.113Z" style="fill:url(#_Radial9);"/><path d="M50.638,59.866l0,-15.747c0.685,-0.147 1.374,-0.274 2.066,-0.381c0.342,-0.066 0.687,-0.113 1.03,-0.164c0.857,-0.15 1.712,-0.237 2.568,-0.366c0.044,0.409 0.067,0.853 0.067,1.327c0.002,4.3 -1.848,11.005 -5.731,15.331Z" style="fill:url(#_Radial10);"/><path d="M27.09,58.077c-0.943,-1.662 -1.63,-3.584 -2.074,-5.621c0.497,-0.437 1.005,-0.877 1.525,-1.305c0.608,-0.51 1.233,-1.006 1.867,-1.479c0.659,-0.501 1.328,-0.988 2.016,-1.447c2.13,-1.404 4.345,-2.682 6.637,-3.82c0.457,-0.223 0.918,-0.442 1.38,-0.655c0.468,-0.222 0.935,-0.424 1.397,-0.626c0.31,-0.133 0.622,-0.263 0.935,-0.389c0.476,-0.192 0.955,-0.376 1.436,-0.554c0.52,-0.192 1.042,-0.377 1.566,-0.557c-0.483,-0.017 -0.968,-0.034 -1.454,-0.052c-1.731,-0.053 -3.477,-0.082 -5.219,-0.082c-0.268,-0.002 -0.536,-0.003 -0.804,-0.003c-2.418,-0 -4.835,0.069 -7.256,0.196c-1.343,0.067 -2.692,0.154 -4.043,0.254c-0.069,0.004 -0.138,0.009 -0.206,0.014c0.762,-3.296 6.126,-4.71 12.187,-4.914c1.528,0 3.049,0.02 4.579,0.066c0.143,0.007 0.286,0.014 0.428,0.02c2.162,0.141 4.279,0.409 6.18,0.775c2.403,0.462 4.461,1.08 5.831,1.794c0.001,0 0.001,0.001 0.001,0.001c0.003,0.001 0.005,0.002 0.008,0.004c0.724,0.378 1.256,0.785 1.544,1.209c0.387,0.478 0.638,1.278 0.751,2.302c-0.856,0.129 -1.711,0.216 -2.568,0.366c-0.343,0.051 -0.688,0.098 -1.03,0.164c-0.692,0.107 -1.381,0.234 -2.066,0.381c-2.915,0.624 -5.751,1.608 -8.409,2.999l0.138,-0.043c-2.008,0.964 -3.84,2.252 -5.552,3.684c-0.423,0.352 -0.84,0.721 -1.255,1.085c-1.238,1.11 -2.429,2.269 -3.621,3.412c-0.378,0.357 -0.761,0.703 -1.164,1.021c-1.082,0.871 -2.278,1.552 -3.685,1.8Z" style="fill:url(#_Radial11);"/><path d="M47.865,62.269c0.189,-0.123 0.376,-0.251 0.558,-0.385c0.801,-0.584 1.539,-1.265 2.215,-2.018c3.883,-4.326 5.733,-11.031 5.731,-15.331c0.002,5.219 -2.724,13.984 -8.504,17.734Zm-17.176,-0.127c-4.281,-2.93 -6.287,-9.314 -6.286,-15.548c-0,1.977 0.202,3.97 0.613,5.862c0.444,2.037 1.131,3.959 2.074,5.621c0.866,1.528 1.947,2.837 3.251,3.815c0.114,0.086 0.231,0.169 0.348,0.25Zm-5.938,-19.983c0.63,-3.74 7.005,-5.151 13.813,-5.151c3.301,-0 6.702,0.332 9.603,0.89c-1.901,-0.366 -4.018,-0.634 -6.18,-0.775c-1.134,-0.074 -2.282,-0.113 -3.417,-0.113c-0.533,-0 -1.064,0.009 -1.59,0.027c-6.061,0.204 -11.425,1.618 -12.187,4.914c-0.016,0.068 -0.03,0.138 -0.042,0.208Zm30.8,-1.253c-0.288,-0.424 -0.82,-0.831 -1.544,-1.209c0.725,0.379 1.257,0.785 1.544,1.209Zm-1.552,-1.213c0,-0 0,-0.001 -0.001,-0.001c0.001,0.001 0.001,0 0.001,0.001Z" style="fill:url(#_Radial12);"/><path d="M312.624,51.355c-2.322,-0 -4.203,-1.883 -4.206,-4.207c-0,-2.322 1.884,-4.206 4.206,-4.207c2.323,-0 4.209,1.885 4.207,4.208c-0,2.323 -1.884,4.206 -4.207,4.206Z" style="fill:#fff;fill-rule:nonzero;"/><path d="M270.24,27.306c-1.47,0.001 -2.664,-1.194 -2.662,-2.664c-0.002,-1.472 1.192,-2.665 2.662,-2.665c1.47,0 2.664,1.194 2.664,2.665c-0,1.47 -1.194,2.665 -2.664,2.664Z" style="fill:#fff;fill-rule:nonzero;"/><path d="M316.301,135.82c-1.469,-0 -2.664,-1.195 -2.664,-2.666c-0,-1.471 1.195,-2.665 2.664,-2.665c1.472,-0 2.667,1.194 2.667,2.665c-0,1.471 -1.195,2.666 -2.667,2.666Z" style="fill:#fff;fill-rule:nonzero;"/><path d="M22.435,87.549c-1.47,-0 -2.665,-1.194 -2.663,-2.664c-0.001,-1.471 1.192,-2.665 2.663,-2.665c1.47,0 2.664,1.192 2.664,2.667c0,1.468 -1.194,2.66 -2.664,2.662Z" style="fill:#fff;fill-rule:nonzero;"/><path d="M312.85,21.416c-1.046,0 -1.894,-0.848 -1.894,-1.894c-0,-1.044 0.848,-1.892 1.892,-1.893c1.047,0.002 1.893,0.849 1.895,1.895c0,1.044 -0.848,1.892 -1.893,1.892Z" style="fill:#fff;fill-rule:nonzero;"/><path d="M97.664,24.138c-1.046,0 -1.893,-0.847 -1.893,-1.894c0,-1.044 0.849,-1.893 1.893,-1.892c1.046,-0.001 1.892,0.847 1.892,1.894c-0,1.044 -0.846,1.892 -1.892,1.892Z" style="fill:#fff;fill-rule:nonzero;"/><path d="M215.727,96.775c-1.045,-0.001 -1.893,-0.847 -1.895,-1.893c0.002,-1.045 0.85,-1.893 1.892,-1.894c1.048,0 1.897,0.849 1.897,1.895c0,1.045 -0.849,1.891 -1.894,1.892Z" style="fill:#fff;fill-rule:nonzero;"/><path d="M29.877,79.34c-1.045,-0.001 -1.893,-0.849 -1.894,-1.893c0.002,-1.045 0.849,-1.893 1.894,-1.894c1.045,-0 1.893,0.849 1.893,1.893c0,1.047 -0.848,1.894 -1.893,1.894Z" style="fill:#fff;fill-rule:nonzero;"/><path d="M117.958,197.167c-1.897,-0.115 -3.351,-1.749 -3.236,-3.65c0.117,-1.901 1.75,-3.351 3.651,-3.238c1.899,0.111 3.352,1.747 3.236,3.65c-0.114,1.902 -1.751,3.351 -3.651,3.238Z" style="fill:#fff;fill-rule:nonzero;"/><path d="M222.624,202.13c-1.35,-0.079 -2.379,-1.241 -2.299,-2.592c0.082,-1.353 1.241,-2.382 2.597,-2.3c1.348,0.082 2.378,1.244 2.296,2.593c-0.079,1.351 -1.241,2.381 -2.594,2.299Z" style="fill:#fff;fill-rule:nonzero;"/><path d="M110.026,202.725c-1.35,-0.079 -2.38,-1.241 -2.299,-2.593c0.081,-1.353 1.242,-2.381 2.594,-2.303c1.351,0.084 2.383,1.246 2.3,2.596c-0.082,1.352 -1.241,2.38 -2.595,2.3Z" style="fill:#fff;fill-rule:nonzero;"/><path d="M80.114,211.019l-2.96,-0c1.449,-0 2.624,-1.179 2.624,-2.625l-0,-9.584c0.988,0 1.972,0.001 2.96,0.001l-0,9.583c-0,1.446 -1.175,2.625 -2.624,2.625Zm-0.336,-12.783l-0,-3.311l2.96,-0l-0,3.311l-2.96,0Zm-0,-3.884l-0,-8.441l2.96,-0l-0,8.441l-2.96,0Z" style="fill:#ebd3b5;fill-rule:nonzero;"/><path d="M82.738,198.811c-0.988,0 -1.972,-0.001 -2.96,-0.001l-0,-0.574l2.96,0l-0,0.575Z" style="fill:#e7c8a1;fill-rule:nonzero;"/><rect x="79.778" y="194.352" width="2.96" height="0.573" style="fill:#e7c8a1;fill-rule:nonzero;"/><path d="M82.738,185.911l-2.96,-0l-0,-59.796c-0,-1.45 -1.175,-2.624 -2.624,-2.624l-26.516,-0l29.476,-0c1.449,-0 2.624,1.174 2.624,2.624l-0,59.796Z" style="fill:#f3e7d9;fill-rule:nonzero;"/><path d="M22.918,123.491l54.236,-0c1.449,-0 2.624,1.174 2.624,2.624l-0,82.279c-0,1.446 -1.175,2.625 -2.624,2.625l-54.236,-0c-1.45,-0 -2.625,-1.179 -2.625,-2.625l-0,-82.279c-0,-1.45 1.175,-2.624 2.625,-2.624Z" style="fill:#0ca0d5;fill-rule:nonzero;"/><rect x="24.346" y="128.291" width="50.077" height="16.153" style="fill:#86ccdb;fill-rule:nonzero;"/><path d="M58.905,194.916l-6.549,0c-1.084,0 -1.963,0.879 -1.963,1.965l0,6.549c0,1.084 0.879,1.963 1.963,1.963l6.549,-0c1.084,-0 1.964,-0.879 1.964,-1.963l-0,-6.549c-0,-1.086 -0.88,-1.965 -1.964,-1.965Zm-0,-12.44l-6.549,0c-1.084,0 -1.963,0.879 -1.963,1.964l0,6.548c0,1.083 0.879,1.965 1.963,1.965l6.549,-0c1.084,-0 1.964,-0.882 1.964,-1.965l-0,-6.548c-0,-1.085 -0.88,-1.964 -1.964,-1.964Zm-12.441,12.44l-6.549,0c-1.083,0 -1.965,0.879 -1.965,1.965l0,6.549c0,1.084 0.882,1.963 1.965,1.963l6.549,-0c1.084,-0 1.964,-0.879 1.964,-1.963l0,-6.549c0,-1.086 -0.88,-1.965 -1.964,-1.965Zm0,-12.44l-6.549,0c-1.083,0 -1.965,0.879 -1.965,1.964l0,6.548c0,1.083 0.882,1.965 1.965,1.965l6.549,-0c1.084,-0 1.964,-0.882 1.964,-1.965l0,-6.548c0,-1.085 -0.88,-1.964 -1.964,-1.964Z" style="fill:#fff;fill-rule:nonzero;"/><path d="M34.186,194.916l-6.549,0c-1.084,0 -1.965,0.879 -1.965,1.965l0,6.549c0,1.084 0.881,1.963 1.965,1.963l6.549,-0c1.085,-0 1.963,-0.879 1.963,-1.963l-0,-6.549c-0,-1.086 -0.878,-1.965 -1.963,-1.965Zm0,-12.44l-6.549,0c-1.084,0 -1.965,0.879 -1.965,1.964l0,6.548c0,1.083 0.881,1.965 1.965,1.965l6.549,-0c1.085,-0 1.963,-0.882 1.963,-1.965l-0,-6.548c-0,-1.085 -0.878,-1.964 -1.963,-1.964Z" style="fill:#fff;fill-rule:nonzero;"/><path d="M71.326,169.913l-6.549,0c-1.084,0 -1.963,0.879 -1.963,1.963l-0,6.549c-0,1.083 0.879,1.964 1.963,1.964l6.549,-0c1.084,-0 1.964,-0.881 1.964,-1.964l0,-6.549c0,-1.084 -0.88,-1.963 -1.964,-1.963Zm-0,-12.442l-6.549,0c-1.084,0 -1.963,0.878 -1.963,1.964l-0,6.549c-0,1.084 0.879,1.964 1.963,1.964l6.549,-0c1.084,-0 1.964,-0.88 1.964,-1.964l0,-6.549c0,-1.086 -0.88,-1.964 -1.964,-1.964Zm-12.421,12.442l-6.549,0c-1.084,0 -1.963,0.879 -1.963,1.963l0,6.549c0,1.083 0.879,1.964 1.963,1.964l6.549,-0c1.084,-0 1.964,-0.881 1.964,-1.964l-0,-6.549c-0,-1.084 -0.88,-1.963 -1.964,-1.963Zm-0,-12.442l-6.549,0c-1.084,0 -1.963,0.878 -1.963,1.964l0,6.549c0,1.084 0.879,1.964 1.963,1.964l6.549,-0c1.084,-0 1.964,-0.88 1.964,-1.964l-0,-6.549c-0,-1.086 -0.88,-1.964 -1.964,-1.964Zm-12.441,12.442l-6.549,0c-1.083,0 -1.965,0.879 -1.965,1.963l0,6.549c0,1.083 0.882,1.964 1.965,1.964l6.549,-0c1.084,-0 1.964,-0.881 1.964,-1.964l0,-6.549c0,-1.084 -0.88,-1.963 -1.964,-1.963Zm0,-12.442l-6.549,0c-1.083,0 -1.965,0.878 -1.965,1.964l0,6.549c0,1.084 0.882,1.964 1.965,1.964l6.549,-0c1.084,-0 1.964,-0.88 1.964,-1.964l0,-6.549c0,-1.086 -0.88,-1.964 -1.964,-1.964Z" style="fill:#fff;fill-rule:nonzero;"/><path d="M34.186,169.913l-6.549,0c-1.084,0 -1.965,0.879 -1.965,1.963l0,6.549c0,1.083 0.881,1.964 1.965,1.964l6.549,-0c1.085,-0 1.963,-0.881 1.963,-1.964l-0,-6.549c-0,-1.084 -0.878,-1.963 -1.963,-1.963Zm0,-12.442l-6.549,0c-1.084,0 -1.965,0.878 -1.965,1.964l0,6.549c0,1.084 0.881,1.964 1.965,1.964l6.549,-0c1.085,-0 1.963,-0.88 1.963,-1.964l-0,-6.549c-0,-1.086 -0.878,-1.964 -1.963,-1.964Z" style="fill:#fff;fill-rule:nonzero;"/><path d="M65.143,182.476l6.547,0c1.085,0 1.966,0.879 1.966,1.964l-0,18.99c-0,1.084 -0.881,1.963 -1.966,1.963l-6.547,-0c-1.085,-0 -1.965,-0.879 -1.965,-1.963l0,-18.99c0,-1.085 0.88,-1.964 1.965,-1.964Z" style="fill:#f48789;fill-rule:nonzero;"/><path d="M31.619,198.71c-0.242,-0.362 -0.598,-0.54 -1.075,-0.54c-0.483,-0 -0.846,0.172 -1.081,0.517c-0.236,0.339 -0.351,0.874 -0.351,1.599c-0,0.695 0.121,1.219 0.362,1.575c0.242,0.357 0.598,0.535 1.07,0.535c0.488,-0 0.851,-0.173 1.086,-0.518c0.236,-0.345 0.351,-0.874 0.351,-1.592c0,-0.69 -0.121,-1.219 -0.362,-1.576Zm-1.512,0.489c0.086,-0.219 0.235,-0.328 0.437,-0.328c0.201,-0 0.345,0.109 0.437,0.328c0.092,0.224 0.138,0.581 0.138,1.087c-0,0.5 -0.046,0.856 -0.138,1.075c-0.087,0.224 -0.236,0.333 -0.437,0.333c-0.207,0 -0.351,-0.109 -0.437,-0.327c-0.087,-0.219 -0.133,-0.575 -0.133,-1.081c0,-0.506 0.046,-0.863 0.133,-1.087Z" style="fill:#256681;fill-rule:nonzero;"/><path d="M31.28,186.262l-0.713,0l-1.323,1.052l0.42,0.523l0.471,-0.379c0.058,-0.046 0.156,-0.138 0.299,-0.282l-0.011,0.426l-0.012,0.391l-0,2.374l0.869,0l0,-4.105Z" style="fill:#256681;fill-rule:nonzero;"/><path d="M32.096,175.818l-0.494,0l-0,-2.582l-0.8,0l-1.799,2.651l0,0.603l1.753,0l0,0.851l0.846,-0l-0,-0.851l0.494,0l0,-0.672Zm-2.329,0l0.754,-1.139c0.097,-0.144 0.178,-0.293 0.247,-0.448l0.023,-0c-0.006,0.034 -0.012,0.161 -0.023,0.385c-0.006,0.218 -0.012,0.391 -0.012,0.506l0,0.696l-0.989,0Z" style="fill:#256681;fill-rule:nonzero;"/><path d="M30.452,164.709l1.552,-3.553l0,-0.546l-2.944,0l-0,0.73l2.024,-0l-1.541,3.369l0.909,-0Z" style="fill:#256681;fill-rule:nonzero;"/><path d="M44.682,189.637l-1.788,0l0,-0.04l0.529,-0.495c0.35,-0.322 0.598,-0.569 0.736,-0.747c0.138,-0.173 0.241,-0.339 0.31,-0.506c0.063,-0.167 0.098,-0.345 0.098,-0.535c0,-0.213 -0.052,-0.408 -0.161,-0.575c-0.109,-0.172 -0.265,-0.299 -0.46,-0.397c-0.196,-0.092 -0.42,-0.138 -0.679,-0.138c-0.195,-0 -0.368,0.018 -0.529,0.058c-0.155,0.04 -0.299,0.092 -0.431,0.167c-0.138,0.069 -0.305,0.189 -0.506,0.362l0.472,0.558c0.166,-0.133 0.322,-0.236 0.471,-0.311c0.15,-0.075 0.305,-0.109 0.46,-0.109c0.155,0 0.276,0.04 0.368,0.121c0.086,0.08 0.132,0.201 0.132,0.368c-0,0.109 -0.017,0.218 -0.057,0.322c-0.046,0.097 -0.109,0.212 -0.207,0.333c-0.092,0.121 -0.293,0.339 -0.598,0.65l-1.029,1.041l-0,0.603l2.869,0l-0,-0.73Z" style="fill:#256681;fill-rule:nonzero;"/><path d="M42.882,174.76l-0.098,0.017l0.075,-0.805l1.466,0l0,-0.736l-2.225,0l-0.155,2.093l0.345,0.184c0.075,-0.023 0.172,-0.04 0.293,-0.063c0.121,-0.018 0.23,-0.029 0.328,-0.029c0.552,0 0.822,0.207 0.822,0.621c0,0.431 -0.264,0.65 -0.793,0.65c-0.179,0 -0.363,-0.023 -0.558,-0.075c-0.196,-0.052 -0.368,-0.115 -0.518,-0.19l-0,0.748c0.282,0.149 0.65,0.224 1.104,0.224c0.529,-0 0.932,-0.121 1.214,-0.368c0.281,-0.247 0.425,-0.604 0.425,-1.064c-0,-0.385 -0.115,-0.69 -0.351,-0.914c-0.235,-0.224 -0.552,-0.334 -0.948,-0.334c-0.167,0 -0.311,0.012 -0.426,0.041Z" style="fill:#256681;fill-rule:nonzero;"/><path d="M42.278,160.822c-0.247,0.184 -0.368,0.42 -0.368,0.713c-0,0.202 0.052,0.386 0.156,0.558c0.103,0.167 0.27,0.322 0.506,0.472c-0.276,0.138 -0.478,0.299 -0.598,0.483c-0.127,0.178 -0.19,0.385 -0.19,0.621c0,0.35 0.126,0.621 0.385,0.81c0.259,0.19 0.61,0.288 1.058,0.288c0.431,-0 0.782,-0.104 1.041,-0.305c0.264,-0.207 0.397,-0.477 0.397,-0.816c0,-0.213 -0.064,-0.409 -0.202,-0.587c-0.132,-0.178 -0.35,-0.351 -0.661,-0.517c0.259,-0.127 0.449,-0.276 0.564,-0.437c0.115,-0.167 0.172,-0.351 0.172,-0.564c-0,-0.299 -0.121,-0.54 -0.356,-0.719c-0.242,-0.178 -0.558,-0.27 -0.955,-0.27c-0.391,0 -0.707,0.092 -0.949,0.27Zm0.909,2.099c0.236,0.127 0.408,0.242 0.517,0.351c0.104,0.109 0.156,0.224 0.156,0.351c0,0.155 -0.052,0.276 -0.161,0.368c-0.104,0.092 -0.265,0.138 -0.483,0.138c-0.196,-0 -0.345,-0.046 -0.46,-0.133c-0.11,-0.092 -0.167,-0.218 -0.167,-0.379c0,-0.282 0.201,-0.512 0.598,-0.696Zm0.397,-1.621c0.092,0.074 0.138,0.172 0.138,0.304c0,0.115 -0.035,0.225 -0.11,0.311c-0.074,0.092 -0.201,0.178 -0.385,0.264c-0.19,-0.092 -0.316,-0.184 -0.391,-0.27c-0.069,-0.092 -0.109,-0.195 -0.109,-0.305c0,-0.126 0.046,-0.23 0.138,-0.304c0.092,-0.075 0.213,-0.115 0.356,-0.115c0.15,-0 0.271,0.04 0.363,0.115Z" style="fill:#256681;fill-rule:nonzero;"/><path d="M57.035,186.463c-0.248,-0.172 -0.581,-0.259 -1.007,-0.259c-0.517,-0 -0.966,0.133 -1.339,0.403l0.402,0.598c0.173,-0.109 0.328,-0.184 0.466,-0.23c0.138,-0.046 0.276,-0.069 0.408,-0.069c0.391,-0 0.587,0.155 0.587,0.466c-0,0.201 -0.075,0.345 -0.219,0.425c-0.149,0.086 -0.379,0.127 -0.701,0.127l-0.317,-0l-0,0.667l0.311,-0c0.345,-0 0.598,0.04 0.753,0.12c0.161,0.081 0.236,0.219 0.236,0.409c0,0.218 -0.069,0.373 -0.201,0.471c-0.138,0.098 -0.351,0.144 -0.639,0.144c-0.184,0 -0.373,-0.023 -0.569,-0.075c-0.19,-0.052 -0.362,-0.115 -0.523,-0.195l-0,0.736c0.345,0.149 0.742,0.224 1.184,0.224c0.535,-0 0.943,-0.109 1.231,-0.328c0.282,-0.224 0.425,-0.529 0.425,-0.926c-0,-0.27 -0.08,-0.488 -0.253,-0.649c-0.172,-0.156 -0.419,-0.259 -0.753,-0.299l-0,-0.018c0.282,-0.069 0.5,-0.189 0.656,-0.368c0.155,-0.184 0.23,-0.402 0.23,-0.655c-0,-0.311 -0.121,-0.546 -0.368,-0.719Z" style="fill:#256681;fill-rule:nonzero;"/><path d="M67.947,195.675l0.615,-0l-0,-1.081l1.087,0l0,-0.615l-1.087,0l-0,-1.093l-0.615,0l-0,1.093l-1.087,0l0,0.615l1.087,0l-0,1.081Z" style="fill:#fff;fill-rule:nonzero;"/><rect x="67.419" y="175.451" width="1.507" height="0.701" style="fill:#256681;fill-rule:nonzero;"/><path d="M54.85,176.571c0.12,0.27 0.299,0.477 0.523,0.615c0.224,0.144 0.489,0.213 0.793,0.213c0.437,-0 0.782,-0.127 1.03,-0.385c0.247,-0.253 0.368,-0.604 0.368,-1.041c-0,-0.403 -0.104,-0.725 -0.311,-0.955c-0.207,-0.23 -0.494,-0.345 -0.862,-0.345c-0.409,0 -0.708,0.161 -0.892,0.478l-0.034,0c0.017,-0.322 0.069,-0.575 0.167,-0.748c0.092,-0.178 0.23,-0.31 0.419,-0.402c0.19,-0.087 0.432,-0.133 0.731,-0.133c0.161,0 0.327,0.018 0.494,0.058l0,-0.696c-0.132,-0.029 -0.316,-0.04 -0.552,-0.04c-0.684,-0 -1.196,0.201 -1.541,0.598c-0.345,0.397 -0.517,1 -0.517,1.811c0,0.38 0.063,0.707 0.184,0.972Zm0.856,-0.098c-0.12,-0.155 -0.178,-0.339 -0.178,-0.563c-0,-0.15 0.063,-0.282 0.19,-0.397c0.121,-0.115 0.27,-0.173 0.448,-0.173c0.19,0 0.328,0.058 0.42,0.173c0.092,0.115 0.138,0.27 0.138,0.471c-0,0.23 -0.046,0.409 -0.149,0.535c-0.098,0.121 -0.242,0.184 -0.426,0.184c-0.178,-0 -0.328,-0.075 -0.443,-0.23Z" style="fill:#256681;fill-rule:nonzero;"/><path d="M66.873,163.04l0.42,0.431l0.845,-0.839l0.857,0.845l0.42,-0.431l-0.845,-0.851l0.856,-0.851l-0.431,-0.426l-0.857,0.84l-0.845,-0.84l-0.425,0.437l0.839,0.84l-0.834,0.845Z" style="fill:#256681;fill-rule:nonzero;"/><path d="M57.368,161.391c-0.126,-0.271 -0.299,-0.478 -0.529,-0.621c-0.224,-0.144 -0.489,-0.213 -0.793,-0.213c-0.432,-0 -0.771,0.126 -1.024,0.385c-0.247,0.253 -0.374,0.604 -0.374,1.041c-0,0.408 0.104,0.724 0.311,0.954c0.207,0.23 0.489,0.345 0.845,0.345c0.213,-0 0.391,-0.034 0.535,-0.109c0.144,-0.069 0.264,-0.19 0.374,-0.368l0.034,0c-0.011,0.322 -0.069,0.569 -0.172,0.753c-0.098,0.184 -0.242,0.317 -0.426,0.403c-0.19,0.086 -0.425,0.126 -0.719,0.126c-0.172,-0 -0.339,-0.017 -0.494,-0.057l0,0.696c0.126,0.028 0.31,0.04 0.552,0.04c0.69,-0 1.207,-0.201 1.547,-0.598c0.345,-0.397 0.511,-1.001 0.511,-1.811c0,-0.374 -0.057,-0.696 -0.178,-0.966Zm-0.857,0.092c0.115,0.155 0.173,0.339 0.173,0.563c-0,0.15 -0.063,0.282 -0.184,0.397c-0.127,0.115 -0.276,0.172 -0.454,0.172c-0.19,-0 -0.328,-0.057 -0.42,-0.172c-0.092,-0.115 -0.138,-0.276 -0.138,-0.472c-0,-0.23 0.052,-0.408 0.155,-0.534c0.098,-0.121 0.242,-0.184 0.42,-0.184c0.184,-0 0.328,0.074 0.448,0.23Z" style="fill:#256681;fill-rule:nonzero;"/><path d="M42.68,198.71c-0.241,-0.362 -0.598,-0.54 -1.075,-0.54c-0.483,-0 -0.845,0.172 -1.081,0.517c-0.236,0.339 -0.351,0.874 -0.351,1.599c0,0.695 0.121,1.219 0.363,1.575c0.241,0.357 0.598,0.535 1.069,0.535c0.489,-0 0.851,-0.173 1.087,-0.518c0.236,-0.345 0.351,-0.874 0.351,-1.592c-0,-0.69 -0.121,-1.219 -0.363,-1.576Zm-1.512,0.489c0.086,-0.219 0.236,-0.328 0.437,-0.328c0.201,-0 0.345,0.109 0.437,0.328c0.092,0.224 0.138,0.581 0.138,1.087c0,0.5 -0.046,0.856 -0.138,1.075c-0.086,0.224 -0.236,0.333 -0.437,0.333c-0.207,0 -0.351,-0.109 -0.437,-0.327c-0.086,-0.219 -0.132,-0.575 -0.132,-1.081c-0,-0.506 0.046,-0.863 0.132,-1.087Z" style="fill:#256681;fill-rule:nonzero;"/><path d="M45.963,198.71c-0.242,-0.362 -0.598,-0.54 -1.076,-0.54c-0.483,-0 -0.845,0.172 -1.081,0.517c-0.235,0.339 -0.35,0.874 -0.35,1.599c0,0.695 0.12,1.219 0.362,1.575c0.241,0.357 0.598,0.535 1.069,0.535c0.489,-0 0.851,-0.173 1.087,-0.518c0.236,-0.345 0.351,-0.874 0.351,-1.592c0,-0.69 -0.121,-1.219 -0.362,-1.576Zm-1.513,0.489c0.087,-0.219 0.236,-0.328 0.437,-0.328c0.202,-0 0.345,0.109 0.437,0.328c0.092,0.224 0.138,0.581 0.138,1.087c0,0.5 -0.046,0.856 -0.138,1.075c-0.086,0.224 -0.235,0.333 -0.437,0.333c-0.207,0 -0.35,-0.109 -0.437,-0.327c-0.086,-0.219 -0.132,-0.575 -0.132,-1.081c0,-0.506 0.046,-0.863 0.132,-1.087Z" style="fill:#256681;fill-rule:nonzero;"/><path d="M55.581,201.88c0.086,0.086 0.207,0.126 0.362,0.126c0.155,0 0.276,-0.04 0.362,-0.126c0.086,-0.087 0.127,-0.202 0.127,-0.351c-0,-0.155 -0.041,-0.27 -0.127,-0.357c-0.086,-0.08 -0.207,-0.12 -0.362,-0.12c-0.161,-0 -0.282,0.04 -0.368,0.12c-0.086,0.081 -0.127,0.202 -0.127,0.357c0,0.149 0.046,0.27 0.133,0.351Z" style="fill:#256681;fill-rule:nonzero;"/><path d="M24.346,144.444l0,-16.153l49.852,0l-49.852,16.153Z" style="fill:#9ed7e2;fill-rule:nonzero;"/></g><defs><radialGradient id="_Radial1" cx="0" cy="0" r="1" gradientUnits="userSpaceOnUse" gradientTransform="matrix(32.4614,0,0,32.4614,97.5299,44.4817)"><stop offset="0" style="stop-color:#ebe5da;stop-opacity:1"/><stop offset="1" style="stop-color:#fdf6eb;stop-opacity:1"/></radialGradient><radialGradient id="_Radial2" cx="0" cy="0" r="1" gradientUnits="userSpaceOnUse" gradientTransform="matrix(32.4614,0,0,32.4614,97.5299,44.4817)"><stop offset="0" style="stop-color:#f1f2f3;stop-opacity:1"/><stop offset="1" style="stop-color:#fff;stop-opacity:1"/></radialGradient><radialGradient id="_Radial3" cx="0" cy="0" r="1" gradientUnits="userSpaceOnUse" gradientTransform="matrix(32.4614,0,0,32.4614,97.5299,44.4817)"><stop offset="0" style="stop-color:#82a4b1;stop-opacity:1"/><stop offset="1" style="stop-color:#92b3c1;stop-opacity:1"/></radialGradient><radialGradient id="_Radial4" cx="0" cy="0" r="1" gradientUnits="userSpaceOnUse" gradientTransform="matrix(32.4614,0,0,32.4614,97.5299,44.4817)"><stop offset="0" style="stop-color:#f1b5b5;stop-opacity:1"/><stop offset="1" style="stop-color:#fac3c4;stop-opacity:1"/></radialGradient><radialGradient id="_Radial5" cx="0" cy="0" r="1" gradientUnits="userSpaceOnUse" gradientTransform="matrix(34.418,0,0,34.418,57.8665,42.3434)"><stop offset="0" style="stop-color:#ebe5da;stop-opacity:1"/><stop offset="1" style="stop-color:#fdf6eb;stop-opacity:1"/></radialGradient><radialGradient id="_Radial6" cx="0" cy="0" r="1" gradientUnits="userSpaceOnUse" gradientTransform="matrix(34.418,0,0,34.418,57.8665,42.3434)"><stop offset="0" style="stop-color:#e9dfcf;stop-opacity:1"/><stop offset="1" style="stop-color:#faefde;stop-opacity:1"/></radialGradient><radialGradient id="_Radial7" cx="0" cy="0" r="1" gradientUnits="userSpaceOnUse" gradientTransform="matrix(34.418,0,0,34.418,57.8665,42.3434)"><stop offset="0" style="stop-color:#ebe5da;stop-opacity:1"/><stop offset="1" style="stop-color:#fdf6eb;stop-opacity:1"/></radialGradient><radialGradient id="_Radial8" cx="0" cy="0" r="1" gradientUnits="userSpaceOnUse" gradientTransform="matrix(34.418,0,0,34.418,57.8665,42.3434)"><stop offset="0" style="stop-color:#e9dfcf;stop-opacity:1"/><stop offset="1" style="stop-color:#faefde;stop-opacity:1"/></radialGradient><radialGradient id="_Radial9" cx="0" cy="0" r="1" gradientUnits="userSpaceOnUse" gradientTransform="matrix(34.418,0,0,34.418,57.8665,42.3434)"><stop offset="0" style="stop-color:#ebe5da;stop-opacity:1"/><stop offset="1" style="stop-color:#fdf6eb;stop-opacity:1"/></radialGradient><radialGradient id="_Radial10" cx="0" cy="0" r="1" gradientUnits="userSpaceOnUse" gradientTransform="matrix(34.418,0,0,34.418,57.8665,42.3434)"><stop offset="0" style="stop-color:#f1f2f3;stop-opacity:1"/><stop offset="1" style="stop-color:#fff;stop-opacity:1"/></radialGradient><radialGradient id="_Radial11" cx="0" cy="0" r="1" gradientUnits="userSpaceOnUse" gradientTransform="matrix(34.418,0,0,34.418,57.8665,42.3434)"><stop offset="0" style="stop-color:#82a4b1;stop-opacity:1"/><stop offset="1" style="stop-color:#92b3c1;stop-opacity:1"/></radialGradient><radialGradient id="_Radial12" cx="0" cy="0" r="1" gradientUnits="userSpaceOnUse" gradientTransform="matrix(34.418,0,0,34.418,57.8665,42.3434)"><stop offset="0" style="stop-color:#f1b5b5;stop-opacity:1"/><stop offset="1" style="stop-color:#fac3c4;stop-opacity:1"/></radialGradient></defs></svg>