<?xml version="1.0" encoding="UTF-8" standalone="no"?><!DOCTYPE svg PUBLIC "-//W3C//DTD SVG 1.1//EN" "http://www.w3.org/Graphics/SVG/1.1/DTD/svg11.dtd"><svg width="100%" height="100%" viewBox="0 0 2000 2000" version="1.1" xmlns="http://www.w3.org/2000/svg" xmlns:xlink="http://www.w3.org/1999/xlink" xml:space="preserve" xmlns:serif="http://www.serif.com/" style="fill-rule:evenodd;clip-rule:evenodd;stroke-linejoin:round;stroke-miterlimit:2;"><g><path d="M280.848,1650.43c-0,-0 -257.566,-365.91 -35.745,-740.484c221.82,-374.572 526.281,-140.168 653.832,-419.516c127.555,-279.348 708.635,-234.534 887.045,302.622c178.41,537.158 -104.55,857.378 -104.55,857.378l-1400.58,-0Z" style="fill:#e1feb9;fill-rule:nonzero;"/><path d="M1014.86,1678.52l-820.905,-0l25.818,-44.73l3.497,-6.06l59.075,-102.32l3.752,-6.5l75.057,-129.98l4.07,-7.06l67.554,-116.98l4.705,-8.16l99.709,-172.71c28.425,-49.219 97.399,-51.62 129.766,-7.17c1.124,1.53 2.205,3.14 3.222,4.77c0.488,0.79 0.975,1.59 1.442,2.4l23.888,41.39l3.222,5.56l51.402,89.04l3.243,5.62l52.207,90.43l3.307,5.7l51.932,89.96l3.37,5.85l150.667,260.95Z" style="fill:#a4c47c;fill-rule:nonzero;"/><path d="M1014.86,1678.52l-653.684,-0c19.797,-12.81 38.832,-27.09 57.04,-42.8c2.904,-2.44 5.765,-4.96 8.605,-7.52c45.743,-40.98 86.122,-90.75 120.143,-147.47c1.76,-2.92 3.497,-5.87 5.215,-8.84c28.297,-48.71 52.016,-102.31 70.5,-159.73c0.953,-2.93 1.886,-5.88 2.798,-8.84c13.989,-44.94 24.821,-92.15 32.218,-141.09c0.446,-2.9 0.869,-5.81 1.251,-8.71c3.603,-25.12 6.274,-50.7 8.012,-76.67c1.124,1.53 2.205,3.14 3.222,4.77c0.488,0.79 0.975,1.59 1.442,2.4l23.888,41.39l3.222,5.56l51.402,89.04l3.243,5.62l52.207,90.43l3.307,5.7l51.932,89.96l3.37,5.85l150.667,260.95Z" style="fill:#98b76c;fill-rule:nonzero;"/><path d="M698.732,1130.97c-13.184,10.95 -26.877,21.36 -41.037,31.26c-50.638,35.42 -107.466,64.16 -169.551,85.72c-17.997,6.25 -36.459,11.89 -55.366,16.94l4.705,-8.16c94.601,-26.2 167.242,-64.68 221.463,-103.21c13.269,-9.41 25.457,-18.87 36.564,-28.11l3.222,5.56Z" style="fill:#e2ffb8;fill-rule:nonzero;"/><path d="M753.377,1225.63c-1.653,1.42 -3.307,2.84 -5.002,4.26c-37.857,31.75 -79.912,59.27 -125.696,82.27c-27.832,13.98 -57.062,26.3 -87.543,36.88c-54.072,18.78 -112.236,32.09 -173.982,39.89l4.07,-7.06c106.98,-14.2 192.72,-43.96 260.253,-78.55c48.498,-24.85 87.627,-52.19 118.51,-78.07c2.077,-1.74 4.133,-3.48 6.147,-5.24l3.243,5.62Z" style="fill:#e2ffb8;fill-rule:nonzero;"/><path d="M808.891,1321.76c-12.103,12.19 -25.457,24.59 -40.146,36.9c-60.898,51.08 -132.628,91.19 -213.239,119.17c-2.84,0.97 -5.68,1.95 -8.542,2.9c-79.975,26.71 -168.704,41.7 -264.619,44.68l3.752,-6.5c105.072,-3.69 193.08,-21.77 266.082,-47.02c94.218,-32.53 163.468,-77 212.199,-117.85c15.156,-12.7 28.87,-25.46 41.206,-37.98l3.307,5.7Z" style="fill:#e2ffb8;fill-rule:nonzero;"/><path d="M864.193,1417.57c-25.966,31.2 -67.914,73.65 -128.685,112.83c-66.812,43.07 -143.013,73.87 -226.465,91.57c-29.378,6.21 -59.668,10.81 -90.827,13.75c-28.34,2.72 -57.401,4.07 -87.097,4.07c-36.183,0 -73.32,-2.01 -111.346,-6l3.497,-6.06c75.418,7.72 143.12,7 203.551,0.47c137.758,-14.84 237.763,-59.69 304.914,-102.93c61.556,-39.62 103.567,-82.59 129.088,-113.55l3.37,5.85Z" style="fill:#e2ffb8;fill-rule:nonzero;"/><path d="M1771.95,1678.52l-1006.94,-0l31.669,-54.86l4.29,-7.44l72.463,-125.5l4.602,-7.99l92.068,-159.43l4.992,-8.66l82.86,-143.5l5.78,-10.01l122.3,-211.848c34.87,-60.373 119.47,-63.311 159.18,-8.788c1.38,1.872 2.7,3.848 3.95,5.85c0.6,0.962 1.2,1.95 1.77,2.938l29.3,50.778l3.95,6.81l63.05,109.23l3.98,6.89l64.04,110.92l4.06,6.99l63.7,110.35l4.13,7.18l184.81,320.09Z" style="fill:#a4c47c;fill-rule:nonzero;"/><path d="M1771.95,1678.52l-801.826,-0c24.285,-15.71 47.636,-33.23 69.965,-52.5c3.561,-2.99 7.071,-6.08 10.561,-9.23c56.11,-50.26 105.64,-111.31 147.37,-180.88c2.16,-3.59 4.29,-7.21 6.4,-10.84c34.71,-59.75 63.8,-125.51 86.47,-195.94c1.17,-3.59 2.32,-7.21 3.43,-10.85c17.16,-55.12 30.45,-113.02 39.53,-173.06c0.54,-3.559 1.06,-7.12 1.53,-10.679c4.42,-30.811 7.7,-62.197 9.83,-94.047c1.38,1.872 2.7,3.848 3.95,5.85c0.6,0.962 1.2,1.95 1.77,2.938l29.3,50.778l3.95,6.81l63.05,109.23l3.98,6.89l64.04,110.92l4.06,6.99l63.7,110.35l4.13,7.18l184.81,320.09Z" style="fill:#98b76c;fill-rule:nonzero;"/><path d="M1384.18,1006.87c-16.17,13.45 -32.97,26.21 -50.33,38.35c-62.12,43.45 -131.83,78.71 -207.98,105.15c-22.08,7.67 -44.72,14.59 -67.92,20.77l5.78,-10.01c116.04,-32.13 205.14,-79.32 271.65,-126.589c16.28,-11.551 31.23,-23.141 44.85,-34.481l3.95,6.81Z" style="fill:#e2ffb8;fill-rule:nonzero;"/><path d="M1451.21,1122.99c-2.03,1.74 -4.05,3.49 -6.13,5.23c-46.44,38.95 -98.03,72.7 -154.19,100.91c-34.14,17.16 -69.99,32.26 -107.38,45.24c-66.33,23.03 -137.671,39.36 -213.412,48.93l4.992,-8.66c131.22,-17.42 236.4,-53.92 319.23,-96.36c59.49,-30.47 107.49,-64.01 145.37,-95.76c2.55,-2.13 5.07,-4.26 7.54,-6.42l3.98,6.89Z" style="fill:#e2ffb8;fill-rule:nonzero;"/><path d="M1519.31,1240.9c-14.85,14.95 -31.23,30.16 -49.25,45.27c-74.7,62.66 -162.68,111.85 -261.56,146.18c-3.49,1.19 -6.97,2.39 -10.48,3.56c-98.1,32.76 -206.939,51.14 -324.592,54.81l4.602,-7.99c128.89,-4.52 236.84,-26.7 326.39,-57.66c115.57,-39.92 200.51,-94.46 260.29,-144.57c18.59,-15.57 35.41,-31.22 50.54,-46.59l4.06,6.99Z" style="fill:#e2ffb8;fill-rule:nonzero;"/><path d="M1587.14,1358.43c-31.85,38.27 -83.3,90.35 -157.85,138.4c-81.95,52.83 -175.42,90.61 -277.79,112.32c-36.03,7.62 -73.19,13.26 -111.411,16.87c-34.759,3.33 -70.407,4.99 -106.834,4.99c-44.382,0 -89.935,-2.47 -136.58,-7.35l4.29,-7.44c92.51,9.46 175.556,8.58 249.685,0.57c168.98,-18.2 291.65,-73.21 374.02,-126.26c75.5,-48.59 127.03,-101.29 158.34,-139.28l4.13,7.18Z" style="fill:#e2ffb8;fill-rule:nonzero;"/><path d="M748.283,446.952c0,50.315 -40.788,91.103 -91.102,91.103c-50.315,0 -91.103,-40.788 -91.103,-91.103c0,-50.314 40.788,-91.102 91.103,-91.102c50.314,-0 91.102,40.788 91.102,91.102Z" style="fill:#e1feb9;fill-rule:nonzero;"/><path d="M1340.63,844.95l-301.801,-0l-0,-121.801l281.321,0c11.31,0 20.48,9.17 20.48,20.481l0,101.32Z" style="fill:#376773;fill-rule:nonzero;"/><path d="M1306.63,1113.09l-274.03,0l-0,-278.739l315.78,-0c10.35,-0 18.75,8.395 18.75,18.75l0,199.489c0,33.41 -27.09,60.5 -60.5,60.5Z" style="fill:#192f35;fill-rule:nonzero;"/><path d="M1300.46,739.673l-285.56,-0l0,-141.484l285.56,-0c13.41,-0 24.28,10.871 24.28,24.281l-0,92.923c-0,13.409 -10.87,24.28 -24.28,24.28Z" style="fill:#192f35;fill-rule:nonzero;"/><path d="M741.298,768.642c-0,-0 124.452,47.838 214.521,-0c90.071,-47.839 60.581,-146.77 60.581,-146.77c0,-0 -29.751,48.928 -75.323,36.378c-45.573,-12.549 -93.661,-96.306 -200.507,-59.197l0.728,169.589Z" style="fill:#376773;fill-rule:nonzero;"/><path d="M773.622,751.145l-13.855,-8.826l8.825,-13.856l-8.342,-5.314l-8.826,13.855l-13.856,-8.825l-5.314,8.343l13.855,8.825l-8.825,13.856l8.343,5.314l8.825,-13.855l13.856,8.825l5.314,-8.342Z" style="fill:#192f35;fill-rule:nonzero;"/><path d="M771.598,640.035l-12.575,-10.571l10.572,-12.574l-7.572,-6.366l-10.571,12.574l-12.575,-10.571l-6.365,7.572l12.574,10.571l-10.571,12.574l7.572,6.366l10.571,-12.574l12.574,10.57l6.366,-7.571Z" style="fill:#192f35;fill-rule:nonzero;"/><path d="M745.424,1555.5l-9.707,0c-2.394,0 -4.335,-1.94 -4.335,-4.34l0,-966.831c0,-2.394 1.941,-4.335 4.335,-4.335l9.707,0c2.394,0 4.335,1.941 4.335,4.335l-0,966.831c-0,2.4 -1.941,4.34 -4.335,4.34Z" style="fill:#192f35;fill-rule:nonzero;"/><path d="M736.086,880.984c-0,0 -12.275,-2.12 -14.925,9.008c-2.649,11.129 -7.949,47.762 4.24,57.796c12.188,10.034 25.435,10.007 37.094,-1.903c11.658,-11.909 19.077,-42.645 19.077,-42.645c0,-0 0.53,-11.128 0,-14.307c-0.53,-3.18 -7.949,-15.368 -9.539,-15.368c-1.59,-0 -35.947,7.419 -35.947,7.419Z" style="fill:#ffbf9c;fill-rule:nonzero;"/><path d="M948.495,1092.95c-0,0 -79.487,50.87 -107.043,83.73c-27.556,32.85 -31.795,127.18 -37.094,144.13c-5.299,16.96 26.496,9.54 26.496,19.08c0,9.54 -20.137,10.6 -12.718,22.26c-0,0 66.769,-21.2 104.924,0c-0,0 14.13,-9.89 13.424,-19.79c-0.707,-9.89 -14.838,-5.65 -17.664,-14.13c-2.826,-8.48 11.305,-11.3 9.892,-19.78c-1.413,-8.48 -10.617,-43.28 13.406,-75.78c24.023,-32.5 71.382,-56.35 103.882,-48.57c32.5,7.77 65.89,20.84 77.9,40.27c12.01,19.43 73.13,219.38 64.65,236.34c-8.48,16.96 10.6,18.02 10.6,18.02c0,-0 -11.66,9.54 -6.36,16.96c5.3,7.42 87.43,-24.38 109.69,-8.48c-0,0 3.89,-9.89 -9.01,-22.61c-0,-0 8.3,-11.31 4.06,-21.2c-4.24,-9.89 -42.43,-233.34 -78.25,-308.59l-165.88,-84.25c0,-0 -102.785,9.54 -104.905,42.39Z" style="fill:#163623;fill-rule:nonzero;"/><path d="M939.31,785.599c-0,-0 -56.524,60.764 -144.844,86.906c0,0 -13.424,-16.957 -27.202,-21.196c-13.778,-4.24 -26.496,1.059 -29.145,12.188c-2.65,11.128 -3.71,53.521 3.179,52.991c6.889,-0.53 18.547,-7.948 16.428,-30.735c0,0 14.307,-1.06 15.897,8.479c1.59,9.538 -1.06,41.307 -11.128,51.653c-0,0 20.667,8.574 39.213,-10.677c0,0 147.959,-14.552 187.293,-100.098l-49.691,-49.511Z" style="fill:#ffbf9c;fill-rule:nonzero;"/><path d="M1052.91,529.473c-1.26,-0.062 14.47,-38.152 19.09,-48.046c4.28,-9.174 30.55,-10.951 52.81,3.886c22.26,14.838 60.49,-7.772 60.48,37.978c0,37.641 -132.38,6.182 -132.38,6.182Z" style="fill:#ccb650;fill-rule:nonzero;"/><path d="M1035.07,607.547c-0,-0 -63.257,-20.622 -29.849,-71.362c22.55,-34.258 61.16,-4.416 92.25,-15.014c31.09,-10.599 59.3,-9.539 87.37,5.299c46.1,24.376 34.87,117.899 -56.88,100.169c-85.381,-16.498 -92.891,-19.092 -92.891,-19.092Z" style="fill:#ebd15c;fill-rule:nonzero;"/><path d="M1076.52,687.511c0,-0 -26.81,-2.596 -47.48,-4.716c-20.66,-2.12 -77.895,72.069 -77.895,72.069c0,0 6.889,33.914 44.513,51.402c0,-0 -62.53,263.894 -47.163,286.684c-0,0 41.969,-44.51 128.025,-11.66c86.06,32.86 123.69,53.52 142.76,53.52c19.08,-0 -15.9,-235.279 -15.9,-235.279l-1.59,-94.325l39.87,33.912c0,0 44.92,-27.553 51.81,-47.16c-0,0 -63.06,-74.188 -87.44,-91.676c-24.37,-17.487 -67.29,-5.829 -67.29,-5.829l-62.22,-6.942Z" style="fill:#50903c;fill-rule:nonzero;"/><path d="M1049.38,592.293c0,-0 -9.72,-12.079 -20.041,-0c-10.309,12.08 7.37,35.944 20.041,27.989l0,-27.989Z" style="fill:#e6ab8c;fill-rule:nonzero;"/><path d="M1173.38,589.883c-8.02,-9.388 -15.73,-6.606 -20.17,-3.486c-2.2,-29.008 -11.92,-54.91 -54.99,-54.91c-55.641,0 -55.641,43.232 -55.641,80.547c-0,37.315 24.911,54.581 55.641,54.581c26.94,-0 49.41,-13.275 54.54,-41.695c14.7,3.946 32.08,-21.608 20.62,-35.037Z" style="fill:#ffbf9c;fill-rule:nonzero;"/><path d="M1131.4,658.25c-9.18,5.628 -20.46,8.365 -32.67,8.365c-5.8,-0 -11.39,-0.616 -16.65,-1.865c0.04,11.808 -4.75,29.703 -15.94,29.703c0,0 -7.42,37.624 18.54,37.624c25.97,0 50.88,-23.316 54.06,-37.624c-0,0 -8.88,-14.863 -7.34,-36.203Z" style="fill:#e6ab8c;fill-rule:nonzero;"/><path d="M1216.53,814.149c14.46,-11.159 57.68,-43.111 76.94,-41.798c-0,-0 21.73,18.547 21.73,35.504c-0,-0 -59.88,30.735 -60.41,46.103l-38.4,-32.12c-2.42,-2.025 -2.36,-5.761 0.14,-7.689Z" style="fill:#346925;fill-rule:nonzero;"/><path d="M1148.29,692.472c0,0 -106.53,134.46 -9.55,270.119c-0,-0 14.66,9.137 29.49,-11.859c-0,0 -70.11,-121.403 19.35,-258.26c-0,0 -17.54,-12.226 -39.29,0Z" style="fill:#ebd15c;fill-rule:nonzero;"/><path d="M1005.73,794.078l-45.753,-50.244c-0,-0 -24.729,-0.53 -36.917,25.122c-0,0 24.376,53.737 67.829,75.994l14.841,-50.872Z" style="fill:#346925;fill-rule:nonzero;"/><path d="M1138.74,902.887c-0,-0 31.47,90.454 80.29,119.413c0,-0 6.54,17.66 2.34,23.491c-0,0 -55.26,-17.841 -97.47,-137.009c0,-0 2.13,-10.582 14.84,-5.895Z" style="fill:#ccb650;fill-rule:nonzero;"/><path d="M1165.05,795.844c0,-0 -7,-15.191 -15.12,-19.077l-3.11,13.804c-0,0 -46.42,-4.619 -57.37,-4.265c-10.95,0.353 -19.43,3.532 -18.72,11.657c0.71,8.126 11.3,6.713 11.3,6.713c0,0 -1.76,18.017 1.06,34.974c2.83,16.958 43.1,15.544 55.65,11.659c12.54,-3.887 81.43,57.231 93.08,70.302c11.66,13.071 43.1,38.154 68.54,25.789c25.44,-12.365 35.61,-100.289 7.6,-135.676c-0,-0 -41.16,15.208 -53.17,42.234c0,0 -68.19,-49.989 -89.74,-58.114Z" style="fill:#ffbf9c;fill-rule:nonzero;"/><path d="M1065.16,686.402c0,-0 -38.581,-13.138 -48.48,0.636c-0,-0 -48.25,194.82 -49.033,247.375c-0,-0 11.583,4.861 21.122,-9.446c9.539,-14.308 52.44,-231.072 76.391,-238.565Z" style="fill:#ebd15c;fill-rule:nonzero;"/><path d="M1062.16,588.47c0,4.244 -1.24,7.684 -2.78,7.684c-1.54,0 -2.78,-3.44 -2.78,-7.684c-0,-4.243 1.24,-7.684 2.78,-7.684c1.54,0 2.78,3.441 2.78,7.684Z" style="fill:#192f35;fill-rule:nonzero;"/><path d="M1100.76,588.47c0,4.244 -1.24,7.684 -2.78,7.684c-1.54,0 -2.78,-3.44 -2.78,-7.684c-0,-4.243 1.24,-7.684 2.78,-7.684c1.54,0 2.78,3.441 2.78,7.684Z" style="fill:#192f35;fill-rule:nonzero;"/><path d="M1075.23,614.182c-3.21,0 -6.82,-0.922 -8.23,-4.673c-2.5,-6.655 8.86,-25.32 10.16,-27.425c0.31,-0.501 0.96,-0.652 1.46,-0.343c0.5,0.306 0.65,0.96 0.34,1.457c-3.39,5.479 -11.78,20.752 -9.98,25.566c2.01,5.36 11.32,2.569 11.42,2.54c0.56,-0.182 1.15,0.141 1.32,0.7c0.17,0.561 -0.14,1.153 -0.7,1.325c-0.22,0.068 -2.84,0.85 -5.79,0.853Z" style="fill:#192f35;fill-rule:nonzero;"/><path d="M1067.73,630.599c-0,-0 30.73,-1.59 41.86,-7.419c-0,0 -1.06,25.7 -18.02,25.7c-16.95,0 -23.84,-18.281 -23.84,-18.281Z" style="fill:#fd735d;fill-rule:nonzero;"/><path d="M1067.73,630.599c-0,-0 3.31,8.756 10.97,14.149c0.02,-0.054 5.87,-13.599 20.35,-18.109c-13.42,3.03 -31.32,3.96 -31.32,3.96Z" style="fill:#ce503d;fill-rule:nonzero;"/><path d="M1163.98,612.881c-0.62,-0 -1.23,-0.272 -1.65,-0.796c-2.59,-3.235 -7.71,-1.622 -7.76,-1.604c-0.81,0.258 -1.69,0.018 -2.24,-0.612c-0.56,-0.634 -0.69,-1.537 -0.33,-2.303c5.67,-12.129 14.23,-11.673 14.6,-11.641c1.17,0.083 2.05,1.097 1.97,2.264c-0.09,1.159 -1.09,2.024 -2.24,1.967c-0.27,-0.027 -4.54,-0.074 -8.5,5.684c2.52,0.056 5.58,0.814 7.81,3.598c0.73,0.914 0.58,2.248 -0.33,2.979c-0.39,0.312 -0.86,0.464 -1.33,0.464Z" style="fill:#e6ab8c;fill-rule:nonzero;"/><path d="M1042.59,604.82c0.021,-1.953 0.041,-3.913 0.081,-5.874c-4.13,-3.22 -7.86,-3.042 -8.101,-3.021c-1.169,0.083 -2.049,1.097 -1.959,2.265c0.079,1.158 1.089,2.023 2.229,1.966c0.25,-0.025 4.031,-0.068 7.75,4.664Z" style="fill:#bd8c73;fill-rule:nonzero;"/><path d="M1042.59,605.884c-2.359,0.185 -5.049,1.041 -7.049,3.554c-0.74,0.914 -0.591,2.248 0.33,2.979c0.39,0.312 0.85,0.464 1.319,0.464c0.621,-0 1.241,-0.272 1.65,-0.796c1.021,-1.263 2.411,-1.776 3.74,-1.944c-0,-1.413 -0,-2.832 0.01,-4.257Z" style="fill:#bd8c73;fill-rule:nonzero;"/><path d="M1081.62,671.595c5.24,1.241 10.82,1.854 16.6,1.854c12.39,-0 23.8,-2.844 33.04,-8.636c-0.05,-2.113 -0.02,-4.292 0.14,-6.563c-9.18,5.628 -20.46,8.365 -32.67,8.365c-5.8,-0 -11.39,-0.616 -16.65,-1.865c0.01,2.13 -0.15,4.46 -0.46,6.845Z" style="fill:#bd8c73;fill-rule:nonzero;"/><path d="M1098.22,531.487c-14.88,0 -25.78,3.096 -33.77,8.344l-0,-0.003c-0,0 -24.32,13.933 -31.85,10.753c-0,0 3.26,9.754 9.979,8.744c-0,-0 -6.949,23.867 0.091,39.621c0.12,-6.376 0.44,-12.75 1.19,-18.907c0.209,-0.119 12.81,-7.278 20.79,-26.897c0,-0 17.58,17.392 43.37,16.468c0,-0 -13.32,-9.402 -10.55,-13.288c-0,0 19.74,15.897 40.76,15.544c-0,-0 11.48,18.689 7.59,27.185c-0,0 4.89,0.464 7.39,-12.654c-2.2,-29.008 -11.92,-54.91 -54.99,-54.91Z" style="fill:#192f35;fill-rule:nonzero;"/><path d="M1153.32,625.037c-0.18,-0.041 -0.37,-0.067 -0.56,-0.117c-2.49,13.774 -9.07,23.959 -18.24,30.831c12.43,5.765 18.69,-0.776 18.69,-0.776c-5.39,-3.18 -3.61,-7.684 -3.61,-7.684c4.77,6.889 16.51,1.589 16.51,1.589c-10.24,-0.553 -12.35,-16.833 -12.79,-23.843Z" style="fill:#192f35;fill-rule:nonzero;"/><path d="M981.88,871.445c0,-0 -12.188,58.424 -23.316,71.672c0,-0 -8.139,12.954 3.614,19.129c-0,-0 28.181,-55.296 30.83,-90.801c-0,-0 -4.287,-5.496 -11.128,-0Z" style="fill:#ccb650;fill-rule:nonzero;"/><path d="M763.029,946.084c1.126,0.394 3.97,1.26 7.881,1.58c2.994,-6.477 8.316,-20.773 9.072,-41.951c1.06,-29.675 -22.256,-19.96 -22.256,-19.96c0,0 14.307,-1.06 15.897,8.479c1.582,9.49 -1.036,40.977 -10.979,51.486l0.385,0.366Z" style="fill:#e6ac8c;fill-rule:nonzero;"/><path d="M757.726,885.753c2.119,22.787 -9.539,30.205 -16.428,30.735c-0,0 12.012,1.237 17.311,-11.128c5.299,-12.364 3.091,-19.638 3.091,-19.638c-3.634,-0.822 -3.974,0.031 -3.974,0.031Z" style="fill:#e6ac8c;fill-rule:nonzero;"/><path d="M1315.2,667.568c-0,23.862 -8.31,43.205 -18.55,43.205c-10.24,-0 -18.55,-19.343 -18.55,-43.205c-0,-23.862 8.31,-43.206 18.55,-43.206c10.24,0 18.55,19.344 18.55,43.206Z" style="fill:#376773;fill-rule:nonzero;"/><path d="M1359.07,1066.04l-45.35,-0c-11.18,-0 -20.25,-9.07 -20.25,-20.249l-0,-77.312c-0,-3.443 2.79,-6.233 6.23,-6.233l73.38,-0c3.45,-0 6.24,2.79 6.24,6.233l-0,77.312c-0,11.179 -9.07,20.249 -20.25,20.249Z" style="fill:#376773;fill-rule:nonzero;"/><path d="M1379.32,1023.12l-0,-45.745l-58.33,0c-7.3,0 -13.21,5.916 -13.21,13.214l0,27.641c0,23.71 19.22,42.93 42.92,42.93c2.25,-0 4.43,-0.23 6.58,-0.56c13.14,-7.34 22.04,-21.36 22.04,-37.48Z" style="fill:#192f35;fill-rule:nonzero;"/><path d="M1095.28,576.021c0,-0 1.01,-1.65 3.33,-3.292c1.16,-0.807 2.63,-1.663 4.41,-2.173c0.86,-0.318 1.84,-0.434 2.83,-0.573c1,-0.02 2.04,-0.09 3.08,0.142l1.54,0.35c0.5,0.172 0.98,0.42 1.45,0.633c0.99,0.369 1.73,1.106 2.5,1.696c0.76,0.609 1.24,1.421 1.78,2.081c0.55,0.665 0.76,1.462 1.08,2.105c0.3,0.656 0.54,1.261 0.62,1.845c0.13,0.563 0.2,1.065 0.26,1.47c0.11,0.814 0.13,1.276 0.13,1.276c0,0 -0.35,-0.34 -0.9,-0.93c-0.26,-0.297 -0.59,-0.647 -0.92,-1.061c-0.31,-0.43 -0.78,-0.819 -1.22,-1.262c-0.49,-0.408 -0.88,-0.968 -1.46,-1.34c-0.57,-0.37 -1.05,-0.9 -1.67,-1.213c-0.63,-0.292 -1.19,-0.746 -1.88,-0.913l-0.98,-0.363l-1.05,-0.198c-0.34,-0.111 -0.71,-0.13 -1.08,-0.139c-0.37,-0.005 -0.72,-0.086 -1.1,-0.077c-0.74,0.058 -1.49,0.009 -2.23,0.136c-1.48,0.122 -2.91,0.47 -4.18,0.71c-2.6,0.654 -4.34,1.09 -4.34,1.09Z" style="fill:#1a2e35;fill-rule:nonzero;"/><path d="M1068.13,576.446c0,0 -1.73,-0.493 -4.31,-1.232c-1.26,-0.281 -2.67,-0.676 -4.15,-0.847c-0.74,-0.152 -1.49,-0.127 -2.23,-0.209c-0.37,-0.022 -0.73,0.048 -1.1,0.04c-0.37,-0.003 -0.73,0.005 -1.08,0.104l-1.05,0.163l-1,0.331c-0.7,0.144 -1.27,0.579 -1.91,0.851c-0.63,0.292 -1.13,0.806 -1.71,1.157c-0.59,0.353 -1,0.9 -1.501,1.292c-0.449,0.428 -0.929,0.801 -1.26,1.22c-0.339,0.404 -0.679,0.743 -0.959,1.031c-0.56,0.571 -0.931,0.9 -0.931,0.9c-0,-0 0.041,-0.461 0.171,-1.271c0.079,-0.402 0.16,-0.902 0.31,-1.461c0.1,-0.581 0.36,-1.179 0.69,-1.823c0.339,-0.633 0.579,-1.422 1.15,-2.068c0.559,-0.643 1.059,-1.439 1.84,-2.023c0.79,-0.563 1.55,-1.276 2.55,-1.612c0.49,-0.198 0.97,-0.429 1.47,-0.585l1.56,-0.3c1.04,-0.197 2.08,-0.093 3.08,-0.04c0.98,0.172 1.96,0.32 2.81,0.665c1.77,0.569 3.2,1.473 4.33,2.317c2.27,1.718 3.23,3.4 3.23,3.4Z" style="fill:#1a2e35;fill-rule:nonzero;"/><path d="M1173.34,1040.18c-0.19,0 -0.38,-0.031 -0.57,-0.081c-71.24,-19.86 -110.48,-53.408 -130.86,-78.059c-22.19,-26.84 -27.36,-48.713 -27.57,-49.631c-0.26,-1.141 0.45,-2.275 1.59,-2.536c1.12,-0.267 2.28,0.45 2.54,1.592c0.2,0.867 21.51,87.22 155.44,124.554c1.13,0.31 1.78,1.48 1.47,2.61c-0.26,0.94 -1.11,1.551 -2.04,1.551Z" style="fill:#347322;fill-rule:nonzero;"/><path d="M1119.77,1034.88l-0.08,0c-92.3,-3.53 -131.926,-49.753 -132.315,-50.221c-0.749,-0.896 -0.629,-2.231 0.267,-2.983c0.897,-0.749 2.233,-0.633 2.985,0.265c0.379,0.452 38.942,45.249 129.223,48.699c1.17,0.05 2.08,1.031 2.03,2.2c-0.04,1.14 -0.98,2.04 -2.11,2.04Z" style="fill:#347322;fill-rule:nonzero;"/><path d="M1215.72,1487.07c-0.95,0 -1.81,-0.63 -2.05,-1.59c-0.6,-2.33 -60.24,-233.48 -79.72,-276.62c-19.29,-42.71 -67.91,-71.93 -68.4,-72.22c-1,-0.6 -1.34,-1.9 -0.74,-2.91c0.6,-1 1.9,-1.33 2.91,-0.74c0.5,0.3 50.26,30.22 70.09,74.12c19.63,43.48 77.51,267.79 79.96,277.32c0.29,1.13 -0.39,2.29 -1.52,2.58c-0.18,0.04 -0.36,0.06 -0.53,0.06Z" style="fill:#7ba86f;fill-rule:nonzero;"/><path d="M898.832,1351.08c-0.114,0 -0.23,-0.01 -0.346,-0.03c-1.155,-0.19 -1.938,-1.28 -1.747,-2.44c0.006,-0.04 0.677,-4.23 0.677,-12.38c0,-2.41 -1.406,-3.41 -3.722,-4.76c-1.656,-0.97 -3.534,-2.07 -3.809,-4.26c-0.234,-1.87 0.76,-3.74 3.32,-6.27c4.111,-4.06 6.152,-7.93 5.598,-10.6c-0.297,-1.43 -1.377,-2.51 -3.215,-3.23c-2.143,-0.83 -3.898,-3.64 -5.214,-8.36c-3.84,-13.74 -4.006,-48.98 22.848,-83.93c33.36,-43.42 88.148,-65.02 88.698,-65.24c1.08,-0.42 2.31,0.12 2.74,1.22c0.42,1.09 -0.12,2.31 -1.21,2.74c-0.54,0.21 -54.245,21.4 -86.867,63.86c-24.728,32.19 -25.785,64.61 -22.51,78.7c1.188,5.12 2.645,6.86 3.063,7.07c3.159,1.23 5.229,3.47 5.817,6.31c0.61,2.95 -0.068,7.86 -6.771,14.48c-2.016,1.99 -2.087,2.72 -2.089,2.75c0.137,0.16 1.104,0.73 1.743,1.1c2.316,1.36 5.819,3.41 5.819,8.42c0,8.55 -0.704,12.89 -0.735,13.08c-0.171,1.03 -1.07,1.77 -2.088,1.77Z" style="fill:#7ba86f;fill-rule:nonzero;"/><path d="M1010.91,1121.19c-0.49,0 -0.79,-0.03 -0.86,-0.04l-2.34,-0.26l11.6,-52.05c0.25,-1.15 1.39,-1.87 2.53,-1.61c1.14,0.26 1.86,1.39 1.6,2.53l-10.47,47c3.16,-0.58 8.86,-2.8 14.08,-10.95c8.159,-12.75 12.46,-34.52 12.51,-34.74c0.22,-1.15 1.33,-1.9 2.48,-1.67c1.149,0.22 1.899,1.34 1.68,2.48c-0.18,0.93 -4.5,22.78 -13.1,36.21c-7.74,12.1 -16.89,13.1 -19.71,13.1Z" style="fill:#7ba86f;fill-rule:nonzero;"/><path d="M818.136,1362.15l22.963,103.15c-0,-0 -39.927,6.05 -57.629,42.05c-2.521,5.13 1.125,11.13 6.838,11.13l108.697,0c6.732,0 12.188,-5.45 12.188,-12.18l-0,-41l11.866,-103.15c0,0 -37.447,-29.68 -104.923,0Z" style="fill:#ebd15c;fill-rule:nonzero;"/><path d="M1310.85,1598.11l-8.37,-110.9c-0,0 -25.93,-29.85 -102.52,9.45l38.67,101.91c-8.62,1.88 -40.19,10.7 -55.4,41.62c-2.52,5.12 1.13,11.13 6.84,11.13l108.7,0c6.73,0 12.19,-5.46 12.19,-12.19l-0,-40.99c-0,0 -0.05,-0.02 -0.11,-0.03Z" style="fill:#ebd15c;fill-rule:nonzero;"/><path d="M1236,1591.63l2.63,6.94c0,0 25.49,-2.19 33.97,3.11c-0,-0 -9.46,-11.74 -36.6,-10.05Z" style="fill:#a89642;fill-rule:nonzero;"/><path d="M873.216,1465.3c0,-0 -3.894,-9.76 -33.73,-7.24l1.613,7.24c-0,-0 23.109,-4.78 32.117,-0Z" style="fill:#a89642;fill-rule:nonzero;"/><path d="M381.948,1671.27c-0,2.52 -0.042,4.94 -0.085,7.25l-17.72,-0c-0.445,-0.85 -0.911,-1.72 -1.378,-2.59c-3.921,-7.48 -8.309,-16.02 -12.972,-25.5c-16.767,-33.91 -37.221,-79.57 -53.67,-129.42c-0.021,0 -0.021,-0.03 -0.021,-0.03c-8.988,-27.23 -16.809,-55.7 -22.172,-84.19c-3.921,-20.84 6.953,-41.37 26.687,-47.8c0.89,-0.27 1.759,-0.55 2.671,-0.76c0.911,-0.21 1.822,-0.38 2.713,-0.55c20.497,-3.31 39.574,9.98 45.594,30.31c8.245,27.77 14.329,56.64 18.78,84.96c8.733,55.51 11.234,108.86 11.573,147.48c0.085,7.55 0.064,14.52 -0,20.84Z" style="fill:#23501c;fill-rule:nonzero;"/><path d="M376.395,1678.52l-5.681,-0l-3.985,-16.45l-2.819,-11.64l-63.293,-261.44c0.89,-0.27 1.759,-0.55 2.671,-0.76c0.911,-0.21 1.822,-0.38 2.713,-0.55l63.611,262.75l2.522,10.45l4.261,17.64Z" style="fill:#194514;fill-rule:nonzero;"/><path d="M434.982,1492.83c-3.031,56.66 -17.89,114.85 -31.413,157.6c-3.264,10.35 -6.465,19.8 -9.411,28.09l-19.862,-0c-0.72,-5.43 -1.463,-11.32 -2.162,-17.64c-0.382,-3.37 -0.763,-6.84 -1.123,-10.45c-4.134,-40.65 -6.825,-94.96 -0.636,-147.48c0.657,-5.58 1.42,-11.13 2.289,-16.64c2.523,-16.24 15.665,-28.43 31.668,-28.28c0.933,-0.02 1.865,0.04 2.798,0.13c0.933,0.1 1.823,0.23 2.713,0.44c15.707,3.18 25.987,17.83 25.139,34.23Z" style="fill:#326f2b;fill-rule:nonzero;"/><path d="M409.843,1458.6l-20.136,191.83l-2.947,28.09l-5.553,-0l0.741,-7.25l2.205,-20.84l20.179,-192.4c0.933,-0.02 1.865,0.04 2.798,0.13c0.933,0.1 1.823,0.23 2.713,0.44Z" style="fill:#296121;fill-rule:nonzero;"/><path d="M366.729,1662.07c2.205,5.85 4.218,11.36 6.02,16.45l-27.365,-0c-8.479,-8.23 -17.826,-17.68 -27.619,-28.09c-28.192,-29.97 -59.881,-68.06 -83.769,-108.95c-8.246,-14.2 -5.787,-31.94 6.698,-41.93c0.721,-0.61 1.441,-1.12 2.225,-1.65c0.785,-0.51 1.59,-0.99 2.438,-1.4c14.16,-7.44 31.414,-2.6 41.079,10.69c3.307,4.51 6.529,9.13 9.666,13.79c-0,0 -0,0.03 0.021,0.03c29.018,43.11 51.19,91.67 66.091,129.42c1.59,4.01 3.095,7.89 4.515,11.64Z" style="fill:#326f2b;fill-rule:nonzero;"/><path d="M362.765,1675.93l1.696,2.59l-6.634,-0l-18.378,-28.09l-98.755,-150.88c0.721,-0.61 1.441,-1.12 2.225,-1.65c0.785,-0.51 1.59,-0.99 2.438,-1.4l100.726,153.93l16.682,25.5Z" style="fill:#296121;fill-rule:nonzero;"/><path d="M1650.97,1436.79c-5.36,28.49 -13.16,56.96 -22.17,84.19c-0.02,0 -0.02,0.03 -0.02,0.03c-16.45,49.85 -36.91,95.51 -53.67,129.42c-4.69,9.54 -9.12,18.15 -13.06,25.65l-0.02,0.04c-0.42,0.81 -0.85,1.61 -1.27,2.4l-17.72,-0c-0.05,-2.31 -0.09,-4.73 -0.09,-7.25c-0.06,-6.32 -0.08,-13.29 -0,-20.84c0.34,-38.62 2.84,-91.97 11.58,-147.48c4.45,-28.32 10.53,-57.19 18.78,-84.96c6.02,-20.33 25.09,-33.62 45.59,-30.31c0.89,0.17 1.8,0.34 2.71,0.55c0.91,0.21 1.78,0.49 2.67,0.76c19.74,6.43 30.61,26.96 26.69,47.8Z" style="fill:#23501c;fill-rule:nonzero;"/><path d="M1624.28,1388.99l-63.29,261.44l-2.82,11.64l-3.98,16.45l-5.68,-0l4.3,-17.81l2.48,-10.28l63.61,-262.75c0.89,0.17 1.8,0.34 2.71,0.55c0.91,0.21 1.78,0.49 2.67,0.76Z" style="fill:#194514;fill-rule:nonzero;"/><path d="M1553.91,1650.43c-0.36,3.54 -0.72,6.98 -1.1,10.28c-0.72,6.38 -1.46,12.34 -2.18,17.81l-19.87,-0c-2.94,-8.29 -6.14,-17.74 -9.41,-28.09c-13.54,-42.75 -28.4,-100.94 -31.43,-157.6c-0.85,-16.4 9.45,-31.05 25.14,-34.23c0.89,-0.21 1.78,-0.34 2.71,-0.44c0.93,-0.09 1.87,-0.15 2.8,-0.13c16,-0.15 29.14,12.04 31.67,28.28c0.87,5.51 1.63,11.06 2.29,16.64c6.21,52.52 3.51,106.83 -0.62,147.48Z" style="fill:#326f2b;fill-rule:nonzero;"/><path d="M1543.69,1678.52l-5.55,-0l-2.95,-28.09l-20.13,-191.83c0.89,-0.21 1.78,-0.34 2.71,-0.44c0.93,-0.09 1.87,-0.15 2.8,-0.13l20.18,192.4l2.2,20.84l0.74,7.25Z" style="fill:#296121;fill-rule:nonzero;"/><path d="M1690.9,1541.48c-23.88,40.89 -55.57,78.98 -83.74,108.95c-9.8,10.41 -19.19,19.86 -27.64,28.09l-27.37,-0c1.8,-5.09 3.82,-10.6 6.02,-16.45c1.42,-3.75 2.93,-7.63 4.52,-11.64c14.9,-37.75 37.07,-86.31 66.09,-129.42c0,0 0,-0.03 0.02,-0.03c3.14,-4.66 6.36,-9.28 9.66,-13.79c9.67,-13.29 26.92,-18.13 41.1,-10.69c0.83,0.41 1.64,0.89 2.42,1.4c0.78,0.53 1.51,1.04 2.23,1.65c12.48,9.99 14.94,27.73 6.69,41.93Z" style="fill:#326f2b;fill-rule:nonzero;"/><path d="M1684.21,1499.55l-98.76,150.88l-18.38,28.09l-6.61,-0l1.57,-2.4l0.02,-0.04l16.79,-25.65l100.72,-153.93c0.83,0.41 1.64,0.89 2.42,1.4c0.78,0.53 1.51,1.04 2.23,1.65Z" style="fill:#296121;fill-rule:nonzero;"/><path d="M459.606,1650.43l756.014,-0c-0,-0 -35.33,-17.2 -56.53,-42.96c-21.19,-25.77 -26.84,-0.33 -73.48,-7.4c-46.63,-7.06 -120.245,-48.53 -138.902,-35.57c-18.656,12.96 -20.069,-51.17 -80.833,-58.67c-60.764,-7.5 -69.864,-4.67 -92.87,-25.87c-23.005,-21.2 -90.835,-25.44 -119.097,-11.31c-28.262,14.14 -62.177,17.83 -65.003,37.18c-2.826,19.35 -49.459,37.23 -53.698,58.67c-4.239,21.44 -80.547,51.51 -75.601,85.93Z" style="fill:#50903d;fill-rule:nonzero;"/><path d="M1348.54,1607.13c1.3,24.23 10.59,49.5 13.82,57.68c0.5,1.24 0.86,2.1 1.02,2.48c0.08,-0.41 0.25,-1.31 0.48,-2.63c1.47,-8.66 5.31,-35.32 1.54,-59.3c-0.68,-4.39 -4.24,-7.69 -8.57,-7.65c-0.25,-0 -0.5,0.01 -0.75,0.04c-0.26,0.03 -0.5,0.06 -0.74,0.12c-4.24,0.86 -7.03,4.82 -6.8,9.26Z" style="fill:#337128;fill-rule:nonzero;"/><path d="M1394.4,1620.57c-12.24,20.96 -32.06,39.19 -38.67,44.98c-1.02,0.88 -1.73,1.48 -2.05,1.74c0.13,-0.4 0.38,-1.27 0.79,-2.55c2.65,-8.38 11.42,-33.85 25.74,-53.45c2.62,-3.59 7.29,-4.89 11.12,-2.88c0.23,0.11 0.44,0.24 0.65,0.37c0.22,0.15 0.41,0.29 0.6,0.45c3.39,2.7 4.05,7.5 1.82,11.34Z" style="fill:#337128;fill-rule:nonzero;"/><path d="M873.229,1607.13c1.296,24.23 10.591,49.5 13.826,57.68c0.499,1.24 0.854,2.1 1.015,2.48c0.076,-0.41 0.248,-1.31 0.476,-2.63c1.473,-8.66 5.314,-35.32 1.545,-59.3c-0.685,-4.39 -4.238,-7.69 -8.569,-7.65c-0.252,-0 -0.502,0.01 -0.754,0.04c-0.254,0.03 -0.494,0.06 -0.738,0.12c-4.244,0.86 -7.029,4.82 -6.801,9.26Z" style="fill:#337128;fill-rule:nonzero;"/><path d="M919.088,1620.57c-12.235,20.96 -32.057,39.19 -38.673,44.98c-1.014,0.88 -1.721,1.48 -2.04,1.74c0.12,-0.4 0.379,-1.27 0.781,-2.55c2.652,-8.38 11.426,-33.85 25.743,-53.45c2.619,-3.59 7.286,-4.89 11.119,-2.88c0.228,0.11 0.443,0.24 0.656,0.37c0.212,0.15 0.409,0.29 0.601,0.45c3.381,2.7 4.045,7.5 1.813,11.34Z" style="fill:#337128;fill-rule:nonzero;"/><path d="M592.23,1607.13c-1.295,24.23 -10.59,49.5 -13.825,57.68c-0.499,1.24 -0.854,2.1 -1.015,2.48c-0.077,-0.41 -0.248,-1.31 -0.476,-2.63c-1.473,-8.66 -5.314,-35.32 -1.545,-59.3c0.684,-4.39 4.238,-7.69 8.568,-7.65c0.252,-0 0.503,0.01 0.755,0.04c0.254,0.03 0.494,0.06 0.738,0.12c4.244,0.86 7.028,4.82 6.8,9.26Z" style="fill:#337128;fill-rule:nonzero;"/><path d="M546.371,1620.57c12.236,20.96 32.058,39.19 38.673,44.98c1.015,0.88 1.722,1.48 2.041,1.74c-0.121,-0.4 -0.379,-1.27 -0.782,-2.55c-2.651,-8.38 -11.425,-33.85 -25.743,-53.45c-2.618,-3.59 -7.285,-4.89 -11.118,-2.88c-0.228,0.11 -0.443,0.24 -0.657,0.37c-0.211,0.15 -0.409,0.29 -0.6,0.45c-3.381,2.7 -4.045,7.5 -1.814,11.34Z" style="fill:#337128;fill-rule:nonzero;"/><path d="M1774.08,1664.49c-0,3.88 -1.57,7.39 -4.11,9.92c-2.52,2.54 -6.04,4.11 -9.92,4.11l-1552.04,-0c-7.759,-0 -14.054,-6.28 -14.054,-14.03c0,-3.88 1.569,-7.4 4.112,-9.95c2.544,-2.54 6.063,-4.11 9.942,-4.11l1552.04,-0c7.76,-0 14.03,6.3 14.03,14.06Z" style="fill:#50903d;fill-rule:nonzero;"/><path d="M345.091,898.117l172.926,-0c0,-0 11.354,-47.764 -14.847,-49.511c-26.201,-1.747 -40.175,32.835 -40.175,32.835c-0,0 4.367,-52.922 -20.96,-52.049c-25.328,0.874 -47.162,52.049 -47.162,52.049c-0,0 -5.241,-20.608 -22.223,-17.691c-13.846,2.377 -27.559,34.367 -27.559,34.367Z" style="fill:#fff;fill-rule:nonzero;"/><path d="M1296.5,446.952l286.59,0c-0,0 18.81,-79.16 -24.61,-82.054c-43.42,-2.895 -66.58,54.416 -66.58,54.416c0,-0 7.23,-87.707 -34.74,-86.259c-41.98,1.447 -78.16,86.259 -78.16,86.259c-0,-0 -8.69,-34.152 -36.83,-29.319c-22.95,3.94 -45.67,56.957 -45.67,56.957Z" style="fill:#fff;fill-rule:nonzero;"/><path d="M1587.14,964.855l254.26,-0c0,-0 16.7,-70.229 -21.83,-72.797c-38.52,-2.569 -59.07,48.277 -59.07,48.277c-0,-0 6.42,-77.813 -30.82,-76.528c-37.24,1.284 -69.34,76.528 -69.34,76.528c-0,-0 -7.71,-30.299 -32.68,-26.012c-20.36,3.496 -40.52,50.532 -40.52,50.532Z" style="fill:#fff;fill-rule:nonzero;"/></g></svg>