<?xml version="1.0" encoding="UTF-8" standalone="no"?><!DOCTYPE svg PUBLIC "-//W3C//DTD SVG 1.1//EN" "http://www.w3.org/Graphics/SVG/1.1/DTD/svg11.dtd"><svg width="100%" height="100%" viewBox="0 0 5395 4624" version="1.1" xmlns="http://www.w3.org/2000/svg" xmlns:xlink="http://www.w3.org/1999/xlink" xml:space="preserve" xmlns:serif="http://www.serif.com/" style="fill-rule:evenodd;clip-rule:evenodd;stroke-linejoin:round;stroke-miterlimit:2;"><g><path d="M1151.47,3605.14c-336.868,-91.68 -618.791,-489.57 -601.245,-832.61c14.217,-277.94 213.728,-299.07 442.14,-743.61c287.925,-560.36 104.825,-787.43 360.145,-1025.53c282.22,-263.202 832.63,-290.428 1203.43,-113.147c334.7,160.017 385.86,373.637 801,479.997c246.93,63.27 302.47,1.49 510.76,83.42c360.59,141.83 544.11,464.64 592.66,552.82c43.61,79.2 325.36,610.91 72,1131.42c-127.51,261.96 -334.76,406.45 -428.95,463.13c-286.54,172.45 -318.34,100.93 -815.04,203.5c-540.76,111.66 -603.8,181.45 -778.5,122.6c-272.66,-91.84 -247.07,-315.21 -523.24,-382.36c-350.11,-85.14 -502.27,150.97 -835.16,60.37Z" style="fill:#f2f2f2;fill-rule:nonzero;"/><path d="M1436.11,3340.48l-26.07,471.25l42.11,-0l100.27,-471.25l-116.31,-0Z" style="fill:#792b27;fill-rule:nonzero;"/><path d="M2272.33,3340.48l26.07,471.25l-42.11,-0l-100.27,-471.25l116.31,-0Z" style="fill:#792b27;fill-rule:nonzero;"/><rect x="1306.19" y="2808.9" width="1086.89" height="585.55" style="fill:#e9c4bb;fill-rule:nonzero;"/><path d="M1361.81,3339.31l975.65,0l-0,-475.27l-975.65,0l0,475.27Zm982.66,7.02l-989.68,-0l0,-489.31l989.68,0l-0,489.31Z" style="fill:#382632;fill-rule:nonzero;"/><rect x="1846.12" y="2858.7" width="7.02" height="484.12" style="fill:#382632;fill-rule:nonzero;"/><path d="M1792.48,2903.31c-8.39,0 -15.21,6.83 -15.21,15.21c0,8.39 6.82,15.21 15.21,15.21c8.38,-0 15.21,-6.82 15.21,-15.21c-0,-8.38 -6.83,-15.21 -15.21,-15.21Zm-0,37.44c-12.26,0 -22.23,-9.97 -22.23,-22.23c0,-12.25 9.97,-22.22 22.23,-22.22c12.25,0 22.22,9.97 22.22,22.22c-0,12.26 -9.97,22.23 -22.22,22.23Z" style="fill:#382632;fill-rule:nonzero;"/><path d="M1908.29,2903.31c-8.39,0 -15.21,6.83 -15.21,15.21c-0,8.39 6.82,15.21 15.21,15.21c8.38,-0 15.2,-6.82 15.2,-15.21c-0,-8.38 -6.82,-15.21 -15.2,-15.21Zm0,37.44c-12.26,0 -22.23,-9.97 -22.23,-22.23c0,-12.25 9.97,-22.22 22.23,-22.22c12.25,0 22.22,9.97 22.22,22.22c0,12.26 -9.97,22.23 -22.22,22.23Z" style="fill:#382632;fill-rule:nonzero;"/><rect x="1567.44" y="2543.21" width="461.13" height="44.83" style="fill:#7a2a27;fill-rule:nonzero;"/><rect x="1487.38" y="2656.89" width="493.16" height="59.24" style="fill:#3d45a8;fill-rule:nonzero;"/><rect x="1518.34" y="2716.13" width="534.78" height="92.77" style="fill:#232a54;fill-rule:nonzero;"/><rect x="1600.53" y="2588.04" width="428.04" height="68.85" style="fill:#ffc971;fill-rule:nonzero;"/><rect x="1944.78" y="2588.04" width="20.63" height="68.85" style="fill:#fff;fill-rule:nonzero;"/><rect x="1980.89" y="2588.04" width="20.64" height="68.85" style="fill:#fff;fill-rule:nonzero;"/><path d="M2016.01,3812.48c-1.46,-0 -2.94,-0.25 -4.39,-0.77c-6.76,-2.42 -10.27,-9.87 -7.84,-16.62l529.53,-1475.55c2.43,-6.76 9.87,-10.28 16.63,-7.85c6.76,2.43 10.27,9.87 7.85,16.63l-529.54,1475.55c-1.91,5.31 -6.91,8.61 -12.24,8.61Z" style="fill:#2b3058;fill-rule:nonzero;"/><path d="M2727.88,3812.48c-5.33,-0 -10.33,-3.3 -12.23,-8.61l-529.54,-1475.55c-2.43,-6.76 1.09,-14.2 7.84,-16.63c6.76,-2.43 14.21,1.09 16.63,7.85l529.54,1475.55c2.42,6.75 -1.09,14.2 -7.85,16.62c-1.45,0.52 -2.93,0.77 -4.39,0.77Z" style="fill:#2b3058;fill-rule:nonzero;"/><path d="M3124.02,1939.18l-668.47,217.62c0,0 -249.17,-58.64 -338.14,91.28l400.92,31.23l555.81,-56.69l49.88,-283.44Z" style="fill:#ed7447;fill-rule:nonzero;"/><path d="M2175.4,2249.44c-0.59,-0 -1.19,-0.15 -1.73,-0.46c-1.68,-0.97 -2.26,-3.1 -1.3,-4.78c0.85,-1.47 21.2,-36.33 63.48,-56.28c1.75,-0.83 3.84,-0.08 4.66,1.67c0.83,1.75 0.08,3.83 -1.67,4.66c-40.31,19.02 -60.2,53.09 -60.4,53.43c-0.64,1.13 -1.82,1.76 -3.04,1.76Z" style="fill:#2b3058;fill-rule:nonzero;"/><path d="M2299.42,2265.81c-27.33,0 -55.86,-2.87 -67.95,-13.51c-4.36,-3.83 -6.56,-8.47 -6.56,-13.79c-0,-9.63 13.06,-11.89 28.19,-14.51c13.11,-2.27 29.44,-5.09 31.33,-13.07c10.83,-45.75 83.92,-42.36 87.02,-42.2c1.93,0.1 3.41,1.75 3.31,3.68c-0.1,1.93 -1.75,3.42 -3.68,3.31c-0.71,-0.04 -70.35,-3.25 -79.84,36.82c-2.95,12.48 -21.01,15.6 -36.95,18.36c-9.45,1.63 -22.38,3.87 -22.38,7.61c-0,3.26 1.37,6.05 4.18,8.53c19.44,17.11 96.83,11.47 125.01,7.85c1.92,-0.24 3.68,1.11 3.92,3.03c0.25,1.92 -1.11,3.67 -3.02,3.92c-2.27,0.29 -31.66,3.97 -62.58,3.97Z" style="fill:#2b3058;fill-rule:nonzero;"/><path d="M1695.54,1942.81c-9.94,5.44 -27.57,-5.26 -37.86,-16.23c-17.92,-19.09 -12.39,-37.71 -21.63,-68.51c-13.13,-43.75 -34.54,-40.36 -46.88,-77.52c-15.35,-46.23 14.75,-60.63 5.41,-108.18c-10.39,-52.87 -50.76,-51.11 -75.72,-111.78c-23.05,-56.02 -18.03,-128.96 9.01,-140.63c20.45,-8.83 56.19,16.22 73.92,45.07c25.02,40.71 -0.45,65.13 21.64,109.98c24.04,48.82 66.43,44.66 72.11,82.94c5.32,35.79 -30.05,50.79 -21.63,88.34c6.28,28.01 27.32,25.69 36.06,57.69c6.47,23.72 -4.37,27.59 -7.21,81.14c-1.95,36.64 2.19,52.55 -7.22,57.69Z" style="fill:#3e9d8b;fill-rule:nonzero;"/><path d="M1836.17,1353.25c-21.79,-8 -47.7,15.18 -59.49,30.65c-4.61,6.04 -18.03,25.29 -19.84,90.15c-1.64,58.87 8.88,62.3 3.61,97.36c-6.59,43.8 -23.72,43.21 -37.86,93.75c-12.87,45.98 -17.78,114.76 10.82,129.81c7.39,3.89 18.5,4.97 27.04,-0c26.19,-15.26 -4.74,-68.36 18.03,-126.21c20.69,-52.55 61.13,-46.57 68.51,-90.14c7.98,-47.12 -36.96,-67.92 -23.44,-111.78c9.63,-31.22 37.08,-35.88 37.86,-66.71c0.47,-18.26 -8.54,-40.75 -25.24,-46.88Z" style="fill:#3e9d8b;fill-rule:nonzero;"/><path d="M1850.6,1941.01c-21.2,8.53 -50.07,-2.74 -63.11,-21.64c-22.49,-32.62 3.96,-85.46 16.23,-109.98c20.36,-40.68 33.26,-37.13 39.67,-64.9c9.89,-42.87 -18.41,-61.82 -5.41,-100.97c8.81,-26.54 22.8,-20.79 37.86,-50.48c25.57,-50.42 -3.94,-88.46 21.63,-113.58c14.78,-14.53 41.63,-18.52 57.7,-9.02c37.27,22.05 14.04,115.29 12.62,120.8c-12.86,49.71 -31.1,48.87 -34.26,88.34c-3.63,45.5 19.05,66.13 3.61,91.95c-13.11,21.91 -33.19,13.32 -46.88,36.06c-15,24.91 4.55,42.76 -7.21,84.74c-4.01,14.31 -11.25,40.14 -32.45,48.68Z" style="fill:#3e9d8b;fill-rule:nonzero;"/><path d="M1562.13,1942.81c-18.22,-14.51 -5.25,-36.51 -19.84,-64.9c-17.05,-33.22 -45.41,-23.79 -64.9,-55.9c-19.28,-31.75 3.97,-48.35 -12.62,-84.73c-19.56,-42.9 -60.77,-39.29 -70.32,-77.53c-6.97,-27.92 7.24,-60.92 21.64,-63.1c16.18,-2.46 19.63,35.98 63.1,68.51c28.41,21.26 45,18.35 57.7,39.66c12.13,20.38 1.61,30.79 7.21,59.5c10.35,53.07 53.7,55.27 68.51,111.78c1.15,4.4 13.87,55 -9.02,70.32c-11.36,7.6 -30.01,5.51 -41.46,-3.61Z" style="fill:#3e9d8b;fill-rule:nonzero;"/><path d="M1711.99,2045.31c-1.24,0 -2.32,-0.93 -2.47,-2.2c-13.83,-113.41 -58.69,-264.21 -93.89,-370.73c-38.16,-115.49 -73.51,-205.28 -73.86,-206.18c-0.51,-1.28 0.13,-2.73 1.41,-3.24c1.28,-0.51 2.74,0.12 3.24,1.41c0.36,0.89 35.74,90.79 73.94,206.41c35.28,106.75 80.24,257.9 94.12,371.73c0.17,1.37 -0.81,2.61 -2.18,2.78c-0.1,0.01 -0.21,0.02 -0.31,0.02Z" style="fill:#2b3058;fill-rule:nonzero;"/><path d="M1740.61,2045.31c-1.29,0 -2.39,-1 -2.49,-2.32c-6.45,-89.07 -5.67,-179.42 2.32,-268.56c6.39,-71.31 17.38,-142 32.67,-210.12c26.04,-116.02 55.97,-185.29 56.26,-185.98c0.56,-1.27 2.03,-1.85 3.3,-1.29c1.26,0.55 1.84,2.02 1.29,3.29c-0.3,0.68 -30.07,69.62 -56.01,185.23c-23.93,106.68 -49.4,276.04 -34.84,477.07c0.1,1.38 -0.93,2.57 -2.31,2.67c-0.06,0.01 -0.12,0.01 -0.19,0.01Z" style="fill:#2b3058;fill-rule:nonzero;"/><path d="M1783.98,2045.31c-0.35,0 -0.71,-0.07 -1.05,-0.23c-1.25,-0.58 -1.8,-2.06 -1.22,-3.32c60.57,-131.64 152.07,-543.44 152.99,-547.58c0.3,-1.35 1.64,-2.2 2.98,-1.9c1.35,0.29 2.2,1.63 1.9,2.98c-0.92,4.15 -92.53,416.46 -153.33,548.59c-0.42,0.92 -1.33,1.46 -2.27,1.46Z" style="fill:#2b3058;fill-rule:nonzero;"/><path d="M1688.33,2045.31c-0.7,0 -1.4,-0.3 -1.89,-0.87c-133.43,-155.29 -263.32,-409.02 -264.62,-411.57c-0.62,-1.23 -0.13,-2.73 1.1,-3.36c1.23,-0.62 2.73,-0.13 3.36,1.1c1.29,2.53 130.92,255.74 263.95,410.57c0.9,1.05 0.78,2.63 -0.27,3.53c-0.47,0.4 -1.05,0.6 -1.63,0.6Z" style="fill:#2b3058;fill-rule:nonzero;"/><rect x="1553.23" y="1978.48" width="345.43" height="298.63" style="fill:#2b3058;fill-rule:nonzero;"/><path d="M3142.93,1275.07c8.26,-29.83 4.51,-47.67 -21.25,-56.2c-33.74,-11.18 -37.83,21.87 -37.83,21.87c0,-0 -71.64,5.71 -111.61,-36.44c-39.96,-42.15 -86.57,-51.39 -86.57,-51.39c-0,-0 -4.03,18.81 -5.28,41.56c-0,-0 -2.31,46.54 20.38,76.26c1.2,1.45 2.38,2.87 3.55,4.28c0,0.01 0,0.01 0.01,0.01c23.88,28.84 40.68,51.26 40.39,84.28c-0.34,39.71 13.63,50.23 33.99,44.03c20.36,-6.19 13.15,11.37 16.35,15.61c3.2,4.23 11.12,8.01 24.04,4.42c0,0 -4.58,17.71 22.61,19.4c-0,0 24.74,33.06 34.48,34.18c9.73,1.13 25.49,-5.25 25.49,-5.25c-0,-0 26.08,-11.19 34.31,-34.73c15.8,58.54 35.18,135.55 46.71,200.01c-0,-0 80.66,-100.07 139.14,-150.46c3.74,-3.22 6.47,-6.82 8.28,-10.75c-45.23,-40.18 -91.5,-89.73 -126.73,-129.54c-35.99,-40.68 -60.44,-71.21 -60.44,-71.21l-0.02,0.06Z" style="fill:#ed7447;fill-rule:nonzero;"/><path d="M3106.96,1240.37c7.15,-2.63 18.61,-5.19 22.35,3.5c5.57,12.95 -3.41,56.37 -8.84,57.03c-4.89,0.6 -4.97,-30.09 -15.65,-51.42c-3.14,-7.26 2.13,-9.11 2.14,-9.11Z" style="fill:#ea7a57;fill-rule:nonzero;"/><path d="M3324.33,1178.86l-4.99,-0.36c0.08,-1.98 0.18,-3.82 0.3,-5.62c0.45,-6.7 0.72,-13.42 0.79,-20l5,-0.1c0.02,0.42 0.5,10.43 -1.1,26.08Z" style="fill:#2b3058;fill-rule:nonzero;"/><path d="M3336.56,895.084c7.12,-35.35 -59.2,-74.474 -80.34,-80.572c-33.69,-9.714 -99.49,40.993 -118.65,60c-12.72,12.624 -17.54,34.731 -19.25,52.855c-26.3,-0.343 -54.45,3.132 -84.04,10.776c-142.4,36.773 -150.57,167.077 -148.61,214.767c-0,-0 46.61,9.24 86.57,51.39c39.97,42.15 111.61,36.44 111.61,36.44c0,-0 4.09,-33.05 37.83,-21.87c25.76,8.53 29.51,26.37 21.25,56.2l0.02,-0.06c-0,0 24.45,30.53 60.44,71.21c2.08,-0.15 4.18,-0.32 6.3,-0.52c87.88,-40.29 107.8,-124.58 112.15,-167.1c0.07,-1.84 0.17,-3.69 0.29,-5.56c0.47,-6.82 0.73,-13.54 0.8,-20.13c0.68,-61.86 -15.62,-113.33 -44.97,-151.42c28.72,-19.194 49.81,-62.799 58.6,-106.406Z" style="fill:#2b3058;fill-rule:nonzero;"/><path d="M2933.54,1290.58c-1.55,0 -3.12,-0.48 -4.46,-1.47c-3.33,-2.47 -4.02,-7.17 -1.55,-10.5c9.04,-12.19 35.17,-32.5 69.34,-22.13c3.96,1.2 6.2,5.39 5,9.35c-1.2,3.96 -5.39,6.2 -9.35,5c-32.72,-9.93 -52.75,16.45 -52.95,16.72c-1.47,1.99 -3.73,3.03 -6.03,3.03Z" style="fill:#2b3058;fill-rule:nonzero;"/><path d="M2965.14,1322.26c-4.02,-1.09 -7.8,-5.22 -7.96,-9.14c-0.41,-9.65 20.84,-22.62 37.33,-18.05c2.5,0.69 7.5,2.08 8.22,5.29c1.22,5.4 -10.72,11.32 -28.89,20.35c-1.92,0.95 -5.15,2.5 -8.7,1.55Z" style="fill:#2b3058;fill-rule:nonzero;"/><path d="M3019.1,1426.86c-1.49,0 -2.87,-0.96 -3.34,-2.45c-0.58,-1.84 0.45,-3.8 2.28,-4.39c0.22,-0.07 22.16,-7.36 36.49,-35.27c0.89,-1.72 3,-2.4 4.72,-1.52c1.72,0.89 2.39,3 1.51,4.71c-15.74,30.66 -39.6,38.44 -40.61,38.76c-0.35,0.11 -0.7,0.16 -1.05,0.16Z" style="fill:#2b3058;fill-rule:nonzero;"/><path d="M3677.74,3617.35c-11.69,-25.87 -47.72,-75.53 -69.2,-104.18c0,0 -30.27,-71.56 -71.73,-160.18l-124.76,76.77c65.03,81.4 107.34,138.12 107.35,138.12l18.71,38.26c0,0 -65.97,118.97 -108.25,153.24c0,0 -30.02,43.67 13.39,51.5c43.41,7.82 251.54,-155.82 234.49,-193.53Z" style="fill:#ed7447;fill-rule:nonzero;"/><path d="M3646.45,3565.78c-2.41,16.83 -10.39,50.43 -36.49,75.39c-36.24,34.65 -106.24,113.21 -145.03,125.05c-17.89,5.46 -28.14,-0.13 -34,-7.73c-0.36,0.3 -0.72,0.6 -1.07,0.89c0,0 -30.02,43.67 13.39,51.5c32.7,5.89 158.87,-85.51 211.84,-147.09l18.17,35.67l36.82,-18.76l-33.05,-64.87c-6.12,-12.99 -17.78,-31.37 -30.58,-50.05Z" style="fill:#793b35;fill-rule:nonzero;"/><path d="M3357.59,3739.12c1.3,-28.36 -8.29,-88.96 -14.45,-124.24c-0,0 5.47,-77.5 8.69,-175.29l-146,11.86c21.05,102.03 33.05,171.77 33.05,171.78l-0.67,42.58c-0,-0 -112.74,76.13 -165.96,87.51c-0,0 -46.56,25.31 -11.41,51.97c35.14,26.65 294.84,-24.83 296.75,-66.17Z" style="fill:#ed7447;fill-rule:nonzero;"/><path d="M3353.08,3678.96c-9.79,13.91 -32.13,40.24 -66.71,50.66c-48.01,14.45 -146.02,52.73 -185.97,45.69c-18.42,-3.24 -25.02,-12.87 -26.79,-22.3c-0.45,0.1 -0.92,0.21 -1.36,0.31c0,0 -46.56,25.31 -11.41,51.97c26.47,20.08 180.37,-4.19 255.5,-35.05l0.03,40.03l41.31,-0.03l-0.04,-72.8c0.44,-14.35 -1.63,-36.03 -4.56,-58.48Z" style="fill:#793b35;fill-rule:nonzero;"/><path d="M3058.98,2603.65c-0,0 242.58,-102.22 263.58,-136.5c20.99,-34.29 -8.19,-117.83 -51.7,-112.36c0,0 -274.09,32.7 -406.67,66.9c-0.12,0.05 -73.37,26.87 -106.56,64.97c-30.96,36.3 -54.08,83.01 -49.22,148.6c6.85,92.58 459.3,963.37 459.3,963.37l285.01,-154.4l-393.74,-840.58Z" style="fill:#faa660;fill-rule:nonzero;"/><path d="M3319.55,2168.86c0,0 27.43,130.29 -17.14,164.57c-44.57,34.29 -463.72,197.08 -473.14,349.72c-10.25,165.94 519.18,971.87 519.18,971.87l269.39,-160.83l-364.74,-657.98c0,-0 485.66,-251.49 499.37,-326.27c13.72,-74.78 119.08,-269.08 -4.34,-485.08l-428.58,144Z" style="fill:#ffc971;fill-rule:nonzero;"/><path d="M3559.62,1662.36c0,0 -114.07,-220.23 -271.29,-220.23c0,-0 -76.75,79.57 -114.46,149.85c-37.72,70.29 -91.68,236.66 -77.97,336.09c9.89,71.7 100.9,191.97 161.5,254.45c4.98,5.04 20.79,20.21 37.14,27.16c21.61,8.09 60.15,18.96 86.77,6.36l374,-178.13l-195.69,-375.55Z" style="fill:#792a26;fill-rule:nonzero;"/><path d="M3270.33,1424.5c0,0 -12.86,-87.43 -65.57,-78.43c-52.71,9 -54,70.72 -84.86,90c-30.85,19.29 -98.84,48.86 -118.2,102.86c-19.37,54 -132.08,406.28 -166.37,548.57c-34.28,142.29 34.29,180 70.29,186.86c36,6.85 78.85,5.14 154.28,-42.86c75.43,-48 301.72,-312 354.86,-428.57c0,-0 39.43,-159.43 -65.14,-190.29c-104.57,-30.85 -137.15,44.57 -162.86,80.57c-25.71,36 -94.29,125.15 -94.29,125.15c-0,0 17.15,-162.86 24,-207.43c-0,-0 127.72,-69.43 153.86,-186.43Z" style="fill:#ed7447;fill-rule:nonzero;"/><rect x="1440.98" y="2277.31" width="1774.17" height="51.74" style="fill:#ee7447;fill-rule:nonzero;"/><path d="M2636.29,2281.64l-477.71,-0c-18.07,-0 -35.49,-5.4 -50.39,-15.62c-14.86,-10.19 -26.16,-24.45 -32.67,-41.25l-190.88,-473.04l31.53,-12.72l191.02,473.39c8.14,21.07 28.79,35.24 51.39,35.24l477.71,-0l0,34Z" style="fill:#2b3058;fill-rule:nonzero;"/><path d="M2072.68,2213.75c-8.139,17.77 -29.089,34.73 -59.579,38.14c11.88,-23.25 28.14,-55.95 34.54,-73.1c8.17,-0.78 16.9,0.72 23.82,7.64c5.8,5.8 6.27,16.28 1.219,27.32Zm8.901,-37.45c-9.36,-9.35 -20.37,-12.26 -30.72,-12.09c0.11,-8.01 -2.83,-13.18 -5.3,-16.08c-2.24,-2.36 -4.81,-2.9 -6.23,-3l-150.31,-0c-1.42,0.1 -3.99,0.64 -6.23,3c-3.06,3.61 -6.87,10.7 -4.64,22.42c3.51,18.4 50.83,107.79 50.83,107.79l70.39,0c-0,0 2.36,-4.46 6.05,-11.57c41.01,-1.25 69.53,-23.6 80.27,-47.06c7.61,-16.63 6.03,-33.26 -4.11,-43.41Z" style="fill:#792a26;fill-rule:nonzero;"/><path d="M1916.82,2125.43c-1.87,-0 -3.66,-1.06 -4.49,-2.87c-0.61,-1.32 -14.74,-32.46 3.9,-50.29c1.98,-1.89 5.12,-1.82 7.01,0.16c1.89,1.98 1.82,5.12 -0.16,7.01c-13.5,12.92 -1.87,38.7 -1.75,38.96c1.14,2.48 0.05,5.43 -2.43,6.57c-0.67,0.31 -1.38,0.46 -2.08,0.46Z" style="fill:#792a26;fill-rule:nonzero;"/><path d="M2012.26,2125.43c-1.87,-0 -3.66,-1.06 -4.5,-2.87c-0.61,-1.32 -14.73,-32.46 3.91,-50.29c1.97,-1.89 5.11,-1.82 7.01,0.16c1.89,1.98 1.82,5.12 -0.16,7.01c-13.51,12.92 -1.88,38.7 -1.76,38.96c1.14,2.48 0.06,5.43 -2.42,6.57c-0.68,0.31 -1.38,0.46 -2.08,0.46Z" style="fill:#792a26;fill-rule:nonzero;"/><path d="M1964.99,2125.43c-1.33,-0 -2.66,-0.53 -3.64,-1.58c-0.21,-0.23 -21.19,-23.45 3.47,-51.28c9.93,-11.22 8.93,-20.45 6.33,-26.21c-3.42,-7.6 -10.54,-11.58 -13.39,-11.58c-2.74,0 -4.96,-2.22 -4.96,-4.96c0,-2.74 2.22,-4.96 4.96,-4.96c7.17,0 17.52,6.52 22.44,17.43c3.1,6.9 6.2,20.87 -7.96,36.85c-18.76,21.18 -4.25,37.29 -3.62,37.96c1.86,2.01 1.75,5.14 -0.26,7.01c-0.96,0.88 -2.17,1.32 -3.37,1.32Z" style="fill:#792a26;fill-rule:nonzero;"/><rect x="2117.41" y="1452.98" width="653.08" height="456.48" style="fill:#e9c4bb;fill-rule:nonzero;"/><path d="M2159.93,1866.91l567.71,-0l-0,-372.01l-567.71,-0l-0,372.01Zm573.71,6l-579.71,-0l-0,-384.01l579.71,-0l-0,384.01Z" style="fill:#382632;fill-rule:nonzero;"/><rect x="1946.39" y="1042.84" width="386.03" height="322.24" style="fill:#e9c4bb;fill-rule:nonzero;"/><path d="M1976.41,1335.04l325.77,0l-0,-262.61l-325.77,-0l0,262.61Zm330,4.24l-334.23,0l0,-271.09l334.23,-0l-0,271.09Z" style="fill:#382632;fill-rule:nonzero;"/><path d="M2984.4,2215.16c-0.51,-0 -1.04,-0.12 -1.53,-0.36c-1.74,-0.85 -2.46,-2.95 -1.61,-4.68c79.4,-162.17 107.46,-389.9 107.74,-392.18c0.23,-1.92 1.97,-3.29 3.89,-3.06c1.92,0.23 3.29,1.98 3.06,3.89c-0.07,0.58 -7.09,58.24 -23.88,135.27c-15.5,71.13 -42.74,173.83 -84.52,259.15c-0.61,1.25 -1.85,1.97 -3.15,1.97Z" style="fill:#2b3058;fill-rule:nonzero;"/><path d="M3327.51,2268.14c-1.31,-0 -2.58,-0.75 -3.17,-2.03c-0.82,-1.75 -0.05,-3.83 1.7,-4.65l439.09,-204.06c1.75,-0.81 3.83,-0.05 4.64,1.7c0.82,1.76 0.06,3.84 -1.69,4.65l-439.09,204.06c-0.48,0.22 -0.98,0.33 -1.48,0.33Z" style="fill:#2b3058;fill-rule:nonzero;"/><path d="M3064.42,1472.54c-1.63,0 -3.09,-1.15 -3.43,-2.81c-0.38,-1.89 0.84,-3.74 2.74,-4.12c0.56,-0.12 39.89,-8.51 64.53,-41.63c2.89,-3.89 6.1,-10.29 9.82,-17.7c12.17,-24.22 30.55,-60.83 66.4,-63.7c1.92,-0.15 3.61,1.28 3.77,3.21c0.15,1.93 -1.28,3.62 -3.21,3.77c-31.92,2.55 -48.56,35.68 -60.7,59.86c-3.87,7.71 -7.21,14.36 -10.47,18.74c-26.33,35.4 -67.03,43.96 -68.75,44.31c-0.24,0.05 -0.47,0.07 -0.7,0.07Z" style="fill:#2b3058;fill-rule:nonzero;"/><path d="M3172.48,1572.32c-1.07,0 -2.14,-0.49 -2.82,-1.42c-1.15,-1.56 -0.81,-3.75 0.75,-4.9c68.88,-50.6 95.09,-131.85 95.35,-132.67c0.58,-1.84 2.55,-2.87 4.39,-2.29c1.84,0.59 2.87,2.55 2.29,4.39c-0.27,0.86 -6.79,21.31 -22.13,48.44c-14.15,25.05 -38.79,60.61 -75.76,87.77c-0.62,0.46 -1.35,0.68 -2.07,0.68Z" style="fill:#2b3058;fill-rule:nonzero;"/><path d="M3178.93,1513.8c-0.94,0 -1.88,-0.38 -2.57,-1.12c-1.31,-1.43 -1.22,-3.64 0.2,-4.95c53.55,-49.37 78.54,-118.85 78.78,-119.55c0.65,-1.82 2.65,-2.78 4.47,-2.13c1.82,0.64 2.78,2.64 2.13,4.46c-0.25,0.71 -25.78,71.79 -80.64,122.37c-0.67,0.62 -1.52,0.92 -2.37,0.92Z" style="fill:#2b3058;fill-rule:nonzero;"/><path d="M3166.6,1481.49c-0.77,-0 -1.55,-0.25 -2.19,-0.77c-1.51,-1.21 -1.75,-3.41 -0.54,-4.92c46.2,-57.44 72.22,-117.54 72.48,-118.14c0.76,-1.78 2.82,-2.6 4.59,-1.84c1.78,0.76 2.6,2.82 1.84,4.6c-0.26,0.6 -26.66,61.59 -73.45,119.77c-0.69,0.86 -1.71,1.3 -2.73,1.3Z" style="fill:#2b3058;fill-rule:nonzero;"/><path d="M3132.87,1469.48c-0.85,-0 -1.71,-0.31 -2.38,-0.93c-1.42,-1.32 -1.5,-3.54 -0.18,-4.95c45.33,-48.69 76.26,-119.16 76.56,-119.87c0.77,-1.77 2.84,-2.58 4.61,-1.81c1.77,0.77 2.58,2.83 1.81,4.6c-0.31,0.72 -31.69,72.27 -77.86,121.85c-0.68,0.74 -1.62,1.11 -2.56,1.11Z" style="fill:#2b3058;fill-rule:nonzero;"/><path d="M3199.51,3814.95c-0.82,0 -1.66,-0.08 -2.5,-0.25c-6.79,-1.37 -11.19,-7.99 -9.82,-14.79l60.14,-997.27c1.37,-6.8 7.99,-11.2 14.79,-9.83c6.8,1.37 11.2,8 9.83,14.79l-60.14,997.27c-1.2,5.96 -6.44,10.08 -12.3,10.08Z" style="fill:#2b3058;fill-rule:nonzero;"/><path d="M4049.24,3818.71c-4.95,0 -9.64,-2.94 -11.63,-7.8l-259.65,-1225.98c-2.63,-6.42 0.44,-13.75 6.86,-16.38c6.42,-2.64 13.75,0.43 16.38,6.85l259.65,1225.98c2.63,6.42 -0.44,13.75 -6.85,16.38c-1.56,0.64 -3.18,0.95 -4.76,0.95Z" style="fill:#2b3058;fill-rule:nonzero;"/><path d="M4052.71,1987.42c-0,-0 -10.86,-23.53 -56.12,-23.53c-45.25,-0 -248.01,30.77 -316.8,123.1c-68.79,92.32 -83.27,155.68 -88.7,193.7c-5.43,38.01 -28.97,139.39 -121.29,164.73c-92.33,25.35 -260.68,97.76 -304.13,184.65c-43.45,86.9 -41.64,171.98 -41.64,171.98l458.01,0c0,0 221.69,6.93 305.93,-97.81c3.41,-4.89 5.63,-9.59 7.06,-13.48c0.65,-2.54 1.5,-5.83 2.52,-9.8c22.52,-87.62 129.92,-506.93 146.11,-597.59c18.1,-101.38 9.05,-95.95 9.05,-95.95Z" style="fill:#2b3058;fill-rule:nonzero;"/></g></svg>